<svg xmlns="http://www.w3.org/2000/svg" viewBox="0 0 800.56 709.92"><defs><style>.cls-1{fill:#fff;}</style></defs><title>Element 2</title><g id="Ebene_2" data-name="Ebene 2"><g id="Ebene_1-2" data-name="Ebene 1"><path class="cls-1" d="M800.55,10.08c-.23.92-5,.92-13.51,0-4.35-.23-9.39-1.14-15.58-1.14-3-.23-6.41-.23-9.84-.46S754.29,8,750.39,8s-8,0-12.37.23h-6.64c-2.29.23-4.58.23-6.87.46-4.58.46-9.16.69-14.2,1.14-2.52.23-5,.69-7.56.92-2.52.46-5.27.69-8,1.15s-5.5.91-8.25,1.14c-2.75.46-5.72,1.15-8.47,1.84-3,.68-6,1.14-8.94,1.83s-6.18,1.14-9.39,2.06c-6.41,1.6-12.82,3.44-19.24,5L621.21,30A335.92,335.92,0,0,0,583,45.83c-6.65,3-13.29,6.88-19.93,10.54-1.61.92-3.44,1.84-5,2.75l-2.52,1.38L553,62.1c-3.21,2.06-6.41,4.13-9.85,6.42-6.64,4.12-13.05,8.93-19.47,13.75-6.41,4.58-12.13,10.08-18.32,15.35-1.6,1.37-3,2.75-4.58,4.12s-3,3-4.35,4.36L487.46,115a85.64,85.64,0,0,0-8.71,9.62c-3,3.21-5.72,6.65-8.7,9.85-5.73,6.88-11,13.75-14.66,21.09a40.67,40.67,0,0,0-3.89,11.22,24.46,24.46,0,0,0-.69,5.73v2.75a8.14,8.14,0,0,0,.46,2.52c1.14,6.65,6.87,13.07,13.05,15.82,3.21,1.37,6.65,1.83,9.39.91a12.16,12.16,0,0,0,7.1-5.73c3.44-5.95,3.44-14.89,1.15-23.14A43.92,43.92,0,0,0,468.9,144.6a70.32,70.32,0,0,0-22.21-13.52A113.08,113.08,0,0,0,420.58,124a150.4,150.4,0,0,0-24.74-1.83,111.49,111.49,0,0,0-12.37.69c-4.12.46-8.47,1.14-12.59,1.83l-12.6,1.83-12.37,2.75c-4.12.92-8.24,1.61-12.37,2.75s-8,2.29-12.14,3.67c-8.24,2.06-16,5.27-24,8l-6,2.06a45.09,45.09,0,0,0-5.73,2.52c-3.89,1.61-7.78,3.44-11.45,5-2.06.92-3.89,1.61-6,2.53-1.84.91-3.9,1.83-5.73,3-3.66,1.84-7.56,3.9-11.22,5.73s-7.33,3.9-10.77,6-7.1,4.13-10.53,6.19a418.75,418.75,0,0,0-74.21,58.2c-1.38,1.15-2.52,2.52-3.9,3.67-1.14,1.37-2.51,2.52-3.66,3.9-2.52,2.74-4.81,5.27-7.33,8-5,5.27-9.62,11.22-14.43,17.18-2.29,3-4.81,5.73-7.1,8.94-2.29,3-4.58,6.19-6.87,9.4-2.29,3-4.35,5.72-6.41,8.47-2.06,3-3.9,6-6,8.71-3.89,5.73-7.79,11.23-11.22,17.19-1.83,3-3.44,5.73-5,8.48s-3.44,5.5-5,8.48c-3.2,5.95-6.18,11.68-9.16,17.18-3,6.19-5.95,12.15-8.7,17.65-3,5.5-5,11-7.56,16-1.15,2.52-2.29,5-3.21,7.56-.46,1.15-1.14,2.52-1.6,3.67s-.92,2.29-1.38,3.66c-1.83,4.82-3.43,9.17-5,13.52-.69,2.07-1.61,4.13-2.29,6.19s-1.15,4.12-1.84,6.19c-2.29,8.25-4.81,16.5-6.64,24.75-1.83,8-3.89,16-5.27,23.37-3.43,15.12-5.49,27-6.87,34.14-.91,3.9-1.37,7.57-2.06,11.23S16.1,529.58,15.41,533c-1.38,6.88-2.06,13.3-2.75,19.25-.46,3-.69,6-1.15,8.71-.45,3.21-.68,6.42-.91,9.63-.46,6.41-1.15,12.83-1.38,18.79-.45,12.37-1.37,23.83-1.37,34.37,0,5.27-.23,10.54-.23,15.35s.23,9.63.23,14.21c0,8.94.46,17,.69,23.83C8.77,684.26,9,690,9.22,695c.46,9.62.23,14.89-.23,14.89-.68,0-1.83-5.27-3.43-15.12-.46-2.52-.69-5.27-1.15-8.25s-.68-6.19-1.14-9.85c-.69-7.11-1.6-15.13-2.06-24.3C1,647.82.75,643,.29,638c-.23-5-.23-10.32-.23-15.81-.23-11,.23-22.69.46-35.06.46-6.19.69-12.61,1.15-19.25,0-1.61.22-3.44.22-5.05a37.17,37.17,0,0,0,.46-5c.46-3.89.92-7.79,1.15-11.45.69-7.57,2.06-14.9,3.2-22.23.69-3.67,1.15-7.11,1.84-10.77q1-5.16,2.06-10.31c.69-3.44,1.37-7.11,2.29-11.69S15,481.68,16.32,476q1-4.45,2.07-9.62c.91-3.44,1.6-7.1,2.74-11.23.92-3.89,2.07-8.25,3-12.83q2.07-6.87,4.12-14.44c.69-2.52,1.61-5.27,2.29-8,.92-2.75,1.84-5.5,3-8.25,2.06-5.5,4.12-11,6.19-16.27C44.5,384.75,48.85,374,54.34,363.9c1.38-2.52,2.52-5,3.9-7.56,1.14-2.53,2.52-5,3.89-7.57,2.75-5,5.5-10.31,8.93-16.27,3.21-5.72,6.88-11.22,10.31-17.18a205.18,205.18,0,0,1,11.45-17.19c2.06-3,3.9-5.73,6-8.71,2.06-2.75,4.35-5.73,6.41-8.48,1.83-2.52,3.89-5.27,6-7.79a50,50,0,0,1,3.2-4.12l3.44-4.13c2.29-2.75,4.58-5.5,6.87-8.48,2.29-2.74,4.58-6,7.33-8.7,2.52-2.75,5.27-5.73,8-8.71s5.49-6.19,8.47-8.94a423.76,423.76,0,0,1,76.73-59.58l11-6.19c3.67-2.06,7.1-4.35,11-6l11-5.5c3.66-1.84,7.33-3.67,11-5.27,3.9-1.61,7.79-3.21,11.45-5.05l5.73-2.52c1.83-.91,3.89-1.37,6-2.29,3.89-1.37,8-2.75,11.91-4.35l5.95-2.06,6.18-1.84c8.25-2.29,16.27-5,24.74-6.41,4.12-.92,8.47-1.84,12.6-2.75l3.2-.69,3.21-.46,6.42-.92,12.82-1.83a120.1,120.1,0,0,1,12.83-.92A148.39,148.39,0,0,1,445.31,124a79.39,79.39,0,0,1,24.28,13.75A48.71,48.71,0,0,1,479,147.8a52.53,52.53,0,0,1,3.67,6c.45.92.91,1.84,1.37,3a11.62,11.62,0,0,1,1.15,3,38.91,38.91,0,0,1,2.74,12.6,37.41,37.41,0,0,1-.91,13.3,18.62,18.62,0,0,1-7.56,11,15.64,15.64,0,0,1-6.41,2.53,25.24,25.24,0,0,1-7.1-.23,26.61,26.61,0,0,1-12.6-7.11A29.45,29.45,0,0,1,446,179.89c-1.37-4.36-1.14-9.17-.46-13.52a42.22,42.22,0,0,1,4.12-12.84c3.67-8,8.94-15.12,14.21-21.54,5.49-6.41,11-12.83,16.72-19.25,3-3,6-6.18,8.93-9.16L494.1,99l2.29-2.29,2.29-2.06,9.62-8.48,4.81-4.35c1.6-1.38,3.43-2.75,5-3.9,3.2-2.52,6.64-5,9.85-7.56,1.6-1.15,3.2-2.52,4.81-3.67s3.43-2.29,5-3.43c3.43-2.29,6.64-4.36,10.07-6.65a39.24,39.24,0,0,1,5-3.21c1.6-.91,3.44-2.06,5-3,3.43-1.83,6.87-3.89,10.08-5.72a33.8,33.8,0,0,1,5-2.75c1.6-.92,3.43-1.61,5-2.53A327.81,327.81,0,0,1,619.61,22c6.64-2.06,13.06-4.36,19.24-6.19q9.28-2.4,17.87-4.81a30,30,0,0,1,4.35-1.15l4.35-.91c3-.69,5.73-1.15,8.7-1.84,2.75-.68,5.73-1.14,8.48-1.83,2.75-.46,5.72-.92,8.47-1.37,5.73-.69,11.22-1.61,16.49-2.3,5.5-.45,10.77-.68,16-1.14,2.51-.23,5-.23,7.32-.46h6.87c4.59,0,8.71.23,12.83.23,16.26.92,28.86,2.29,37.11,4.35C796.43,8,800.78,9.4,800.55,10.08Z"/></g></g></svg>