<?xml version="1.0" encoding="utf-8"?>
<!-- Generator: Adobe Illustrator 16.0.0, SVG Export Plug-In . SVG Version: 6.00 Build 0)  -->
<!DOCTYPE svg PUBLIC "-//W3C//DTD SVG 1.1//EN" "http://www.w3.org/Graphics/SVG/1.1/DTD/svg11.dtd">
<svg version="1.1" id="Layer_1" xmlns="http://www.w3.org/2000/svg" xmlns:xlink="http://www.w3.org/1999/xlink" x="0px" y="0px"
	 width="70px" height="70.833px" viewBox="0 48.167 70 70.833" enable-background="new 0 48.167 70 70.833" xml:space="preserve">
<path fill="#FFFFFF" d="M29.715,81.115c-1.152,0.247-2.139,0.576-2.879,0.946c0.905,0.37,1.81,0.658,2.756,0.905
	C29.633,82.309,29.674,81.691,29.715,81.115z"/>
<path fill="#FFFFFF" d="M25.89,82.679c-0.288,0.288-0.452,0.616-0.452,0.945c0,0.987,1.521,1.893,3.866,2.427
	c0.083-0.699,0.124-1.398,0.206-2.139C28.275,83.624,27.083,83.213,25.89,82.679z"/>
<path fill="#FFFFFF" d="M39.627,83.912c-0.082,0.041-0.206,0.041-0.288,0.082c0.082,0.699,0.123,1.398,0.206,2.057
	c2.468-0.534,4.071-1.439,4.071-2.468c0-0.329-0.164-0.658-0.535-0.987c-0.41,0.288-0.945,0.453-1.315,0.617
	C41.066,83.542,40.367,83.748,39.627,83.912z"/>
<path fill="#FFFFFF" d="M38.353,83.172c-0.083-0.781-0.165-1.521-0.206-2.303c-1.028-0.124-2.139-0.247-3.332-0.247
	c0,0.946-0.041,1.851-0.041,2.797C35.967,83.419,37.159,83.378,38.353,83.172z"/>
<path fill="#FFFFFF" d="M34.856,84.405c-0.041,0-0.082,0-0.082,0c0,0.699,0,1.439-0.041,2.139c1.398,0,2.714-0.123,3.907-0.328
	c-0.082-0.699-0.123-1.398-0.205-2.098C37.241,84.323,36.049,84.405,34.856,84.405z"/>
<path fill="#FFFFFF" d="M33.828,83.46c0-0.946,0.041-1.851,0.041-2.797c-1.152,0.041-2.221,0.123-3.249,0.288
	c-0.042,0.74-0.083,1.439-0.165,2.18C31.566,83.295,32.676,83.419,33.828,83.46z"/>
<path fill="#FFFFFF" d="M30.373,84.077c-0.041,0.657-0.123,1.315-0.165,2.015c0,0.041,0,0.082-0.041,0.124
	c1.11,0.205,2.303,0.328,3.619,0.328c0-0.699,0-1.439,0.042-2.139C32.676,84.364,31.525,84.282,30.373,84.077z"/>
<path fill="#FFFFFF" d="M40.901,82.555c0.248-0.082,0.864-0.329,1.316-0.534c-0.781-0.411-1.892-0.74-3.166-0.987
	c0.082,0.658,0.123,1.316,0.205,1.975C39.792,82.925,40.367,82.761,40.901,82.555z"/>
<path d="M45.878,83.912c0-0.123,0.041-0.205,0.041-0.329c0-2.55-5.1-4.647-11.392-4.647s-11.392,2.057-11.392,4.647
	c0,0-0.042,8.185,6.416,11.022c0,0,4.771,2.139,9.911,0C45.179,92.138,45.796,85.476,45.878,83.912z M34.733,86.544
	c0-0.699,0-1.439,0.041-2.139c0.041,0,0.082,0,0.082,0c1.193,0,2.385-0.082,3.579-0.246c0.082,0.699,0.123,1.398,0.205,2.098
	C37.447,86.421,36.131,86.544,34.733,86.544z M25.89,82.679c1.193,0.534,2.385,0.945,3.578,1.192
	c-0.082,0.699-0.124,1.439-0.206,2.139c-2.344-0.534-3.866-1.398-3.866-2.427C25.438,83.295,25.603,82.967,25.89,82.679z
	 M29.715,81.115c-0.042,0.617-0.083,1.234-0.124,1.81c-0.946-0.205-1.851-0.493-2.756-0.904
	C27.535,81.65,28.522,81.321,29.715,81.115z M33.869,80.663c0,0.946,0,1.851-0.041,2.797c-1.152-0.041-2.262-0.123-3.373-0.329
	c0.041-0.74,0.123-1.439,0.165-2.18C31.648,80.786,32.717,80.704,33.869,80.663z M42.218,82.021
	c-0.411,0.205-1.027,0.452-1.316,0.534c-0.534,0.206-1.109,0.329-1.645,0.453c-0.082-0.658-0.123-1.316-0.205-1.975
	C40.326,81.28,41.437,81.609,42.218,82.021z M38.353,83.172c-1.193,0.165-2.386,0.247-3.579,0.247c0-0.946,0.041-1.851,0.041-2.797
	c1.193,0,2.303,0.082,3.332,0.247C38.188,81.65,38.27,82.432,38.353,83.172z M33.787,86.544c-1.316-0.041-2.55-0.164-3.619-0.328
	c0-0.042,0.041-0.083,0.041-0.124c0.083-0.658,0.124-1.315,0.165-2.015c1.11,0.205,2.262,0.287,3.455,0.328
	C33.828,85.104,33.828,85.845,33.787,86.544z M39.339,83.994c0.082-0.041,0.206-0.041,0.288-0.082
	c0.74-0.164,1.439-0.37,2.139-0.658c0.37-0.164,0.946-0.329,1.315-0.616c0.33,0.287,0.535,0.616,0.535,0.986
	c0,1.028-1.645,1.934-4.071,2.468C39.462,85.393,39.421,84.693,39.339,83.994z"/>
<path d="M28.193,72.808c-0.329,0.247-0.576,0.617-0.74,0.987c-0.083,0.247-0.083,0.534,0.165,0.658
	c0.206,0.123,0.576,0.082,0.658-0.165c0.042-0.082,0.083-0.164,0.124-0.288c0.041-0.041,0.041-0.082,0.083-0.123
	c0,0,0.041-0.041,0.041-0.082c0,0,0.041-0.082,0.082-0.082c0.042-0.042,0.083-0.083,0.124-0.124s0.124-0.123,0.206-0.164
	l0.041-0.041c0.042-0.041,0.083-0.041,0.124-0.083c0.083-0.041,0.165-0.082,0.206-0.123h0.041c0.042,0,0.083-0.041,0.165-0.041
	c0.083-0.041,0.165-0.041,0.206-0.041c0.042,0,0.083,0,0.083,0c0.041,0,0.082,0,0.124,0c0.041,0,0.082,0,0.123,0c0,0,0,0,0.042,0
	l0,0c0.082,0.041,0.165,0.041,0.247,0.082h0.041h0.041c0.042,0,0.083,0.041,0.124,0.041c0.041,0.041,0.083,0.041,0.124,0.082l0,0
	l0,0c0.082,0.083,0.165,0.124,0.206,0.206c0.124,0.123,0.247,0.37,0.37,0.617c0.124,0.246,0.453,0.288,0.658,0.164
	c0.247-0.123,0.288-0.411,0.165-0.658c-0.329-0.74-0.987-1.439-1.851-1.563C29.509,72.026,28.769,72.314,28.193,72.808z"/>
<path d="M39.545,72.273c-1.11-0.042-1.975,0.699-2.263,1.769c-0.164,0.616,0.781,0.863,0.946,0.246
	c0.083-0.329,0.206-0.575,0.493-0.822l0,0c0,0,0,0,0.041,0c0.041-0.041,0.083-0.041,0.124-0.082c0.041,0,0.082-0.041,0.124-0.041
	l0.082-0.042c0.082-0.041,0.164-0.041,0.246-0.041h0.082c0.041,0,0.124,0,0.165,0c0.329,0,0.699,0.165,0.946,0.411
	c0.328,0.288,0.534,0.576,0.617,0.946c0.164,0.617,1.068,0.329,0.945-0.247C41.766,73.219,40.655,72.273,39.545,72.273z"/>
<path d="M34.239,75.193c0.082-1.193,0.247-2.427,0.452-3.619c0.042-0.247-0.082-0.535-0.329-0.576
	c-0.247-0.082-0.535,0.082-0.576,0.329c-0.247,1.439-0.493,2.92-0.535,4.4c0,0.576-0.123,1.398,0.494,1.728
	c0.535,0.329,1.316,0.082,1.892,0.041c0.246-0.041,0.493-0.205,0.493-0.493c0-0.247-0.206-0.494-0.493-0.494
	c-0.288,0.042-0.576,0.083-0.864,0.124c-0.124,0-0.494,0.082-0.576,0c-0.042-0.041,0-0.452,0-0.535
	C34.239,75.81,34.239,75.481,34.239,75.193z"/>
</svg>
