<svg width="182" height="240" fill="none" xmlns="http://www.w3.org/2000/svg">
    <path d="M150.839 1.053c.878.879-.549 3.515-3.732 7.58-.768.988-1.756 2.086-2.744 3.185-.988 1.098-1.976 2.417-3.073 3.735-1.098 1.428-2.305 2.966-3.732 4.503-1.427 1.538-3.074 3.076-4.61 4.614-1.647 1.538-3.293 2.966-4.83 4.724a3552.517 3552.517 0 0 1-5.049 5.382c-.878.879-1.756 1.868-2.634 2.856a31.254 31.254 0 0 0-2.525 2.856c-1.756 1.978-3.512 4.175-5.488 6.262-1.976 2.087-4.061 4.064-6.147 6.041-.988.989-1.975 1.978-2.854 3.076-.878 1.099-1.646 2.307-2.524 3.515-.878 1.209-1.647 2.527-2.634 3.735-.988 1.318-1.976 2.307-2.964 3.515l-5.927 6.92c-3.622 4.175-7.135 8.46-10.757 12.523-1.756 2.088-3.622 4.175-5.378 6.262-1.866 2.087-3.732 3.954-5.488 5.932-3.513 3.954-6.915 7.689-10.208 11.314-1.427 1.758-2.744 3.735-4.171 5.712a27.15 27.15 0 0 1-2.305 2.966c-.769.879-1.537 1.758-2.196 2.636l-4.28 4.944c-.659.769-1.427 1.647-2.086 2.416-.768.879-1.537 1.538-2.195 2.307-2.964 2.746-5.379 4.833-6.806 7.03-1.646 2.307-2.963 4.724-4.39 6.701-1.427 1.977-2.854 3.405-3.732 4.174-1.866 1.758-3.622 3.186-5.049 4.504l-.988.989-1.098 1.098c-.768.769-1.426 1.428-2.085 2.197-2.744 2.856-5.269 5.163-7.354 7.25-4.171 3.955-7.025 5.932-7.793 5.383-.769-.549.658-3.735 3.841-8.568 1.537-2.417 3.732-5.163 6.257-8.239l1.976-2.307c.329-.439.658-.879.988-1.208.439-.44.768-.879 1.207-1.318 1.646-1.758 3.512-3.296 5.159-4.834.768-.769 1.866-1.757 2.963-3.185 1.208-1.538 2.415-3.735 4.39-6.481.989-1.318 2.306-2.856 3.623-4.065 1.317-1.318 2.744-2.526 4.171-3.735 1.427-1.208 2.525-2.416 3.951-4.064 1.427-1.538 2.854-3.076 4.391-4.723.768-.769 1.537-1.648 2.305-2.527a65.041 65.041 0 0 0 2.086-2.526c1.426-1.758 2.744-3.845 4.5-5.822 3.512-3.845 6.915-7.25 10.647-11.205 1.866-1.977 3.841-3.735 5.598-5.602 1.866-1.977 3.622-3.955 5.488-5.932 3.732-3.955 7.464-8.129 11.196-12.083 2.085-2.197 4.06-4.504 6.146-6.701l1.537-1.648.768-.879c.22-.22.44-.549.659-.769a40.757 40.757 0 0 0 2.525-3.515c.878-1.208 1.646-2.526 2.634-3.735.988-1.208 1.976-2.416 3.073-3.515 2.086-2.197 4.171-4.174 5.927-6.151 1.757-1.977 3.403-4.174 5.159-6.371.878-1.099 1.756-2.198 2.634-3.186.879-.989 1.757-1.977 2.525-2.966a128.63 128.63 0 0 1 4.939-5.602c1.647-1.868 3.403-3.625 4.94-5.163 1.646-1.538 3.073-2.966 4.281-4.394 1.317-1.428 2.414-2.856 3.622-4.284 1.097-1.428 2.305-2.746 3.402-3.955 1.098-1.208 2.086-2.087 3.074-2.966 3.841-3.954 6.366-5.602 7.244-4.613zM181.794 162.42c.109 1.318-1.757 2.197-4.94 2.966-.768.22-1.756.33-2.744.549-.988.11-1.976.44-3.073.769-1.098.33-2.305.659-3.732.879-1.317.22-2.744.22-4.281.33-1.427 0-2.854.11-4.39.329-1.537.22-3.183.44-4.72.659-.768.11-1.647.33-2.525.44-.768.11-1.646.329-2.524.549a184.88 184.88 0 0 1-5.269 1.318c-1.866.33-3.732.44-5.598.659-.878.11-1.866.33-2.634.549-.878.33-1.756.66-2.634 1.099-.878.439-1.757.879-2.744 1.208-.988.33-1.976.55-2.854.769-1.866.549-3.842 1.099-5.708 1.648-3.512.989-6.915 2.087-10.318 3.076-1.756.549-3.402.988-5.158 1.538-1.757.549-3.513.769-5.159 1.208-3.293.879-6.586 1.757-9.66 2.636-1.426.55-2.744 1.318-4.28 1.978-.769.329-1.427.659-2.305.988-.769.22-1.427.44-2.195.659-1.427.44-2.745.879-4.062 1.318l-1.975.66c-.659.219-1.427.329-2.086.439-2.634.439-4.83.549-6.366 1.428-1.647.769-3.183 1.867-4.61 2.526-1.537.66-2.744.879-3.513.989-1.646.22-3.183.22-4.5.44-.33 0-.658.109-.988.219-.329.11-.658.11-.988.22-.658.11-1.317.329-1.975.439-2.525.55-4.94.769-6.806 1.099-3.841.549-6.256.329-6.585-.659-.33-.989 1.427-2.417 4.83-4.175 1.646-.988 3.84-1.757 6.256-2.636.658-.22 1.207-.439 1.866-.659l.988-.33c.329-.109.768-.219 1.207-.329 1.537-.33 3.183-.439 4.61-.659.768-.11 1.646-.22 2.854-.769 1.207-.439 2.634-1.428 4.61-2.307.988-.439 2.305-.769 3.512-.989 1.208-.219 2.525-.219 3.732-.439 1.207-.11 2.305-.329 3.732-.769 1.317-.329 2.744-.769 4.171-1.098.659-.22 1.427-.33 2.195-.55l1.976-.659c1.427-.549 2.854-1.318 4.5-1.867 3.293-.879 6.476-1.428 9.989-2.307 1.756-.33 3.512-.549 5.159-.989 1.756-.439 3.402-.878 5.158-1.208 3.513-.769 7.025-1.648 10.647-2.526 1.976-.44 3.952-.879 5.818-1.428l1.427-.33.768-.22c.22-.11.439-.11.659-.219.878-.22 1.756-.66 2.634-1.099.878-.439 1.756-.879 2.744-1.208.988-.33 1.976-.549 2.964-.769 1.975-.33 3.841-.549 5.598-.879 1.756-.439 3.402-.989 5.158-1.538.878-.22 1.757-.549 2.635-.769.878-.219 1.646-.439 2.524-.549 1.647-.439 3.293-.659 4.83-.989 1.646-.329 3.293-.439 4.72-.549 1.426-.11 2.853-.11 4.061-.329 1.207-.22 2.415-.55 3.622-.769 1.207-.33 2.305-.55 3.403-.55 1.097-.109 1.975-.109 2.853-.109 3.513-.11 5.379.439 5.489 1.647zM175.097 231.185c.11 1.318-1.317 2.197-3.951 2.856-.659.22-1.427.33-2.195.439-.769.11-1.647.33-2.525.55-.878.219-1.866.439-3.073.659a18.73 18.73 0 0 1-3.513 0c-1.207-.11-2.305-.22-3.622-.11-1.207.11-2.524.11-3.951.22-.659 0-1.317.11-2.086.11-.658 0-1.317.109-2.085.219-1.427.22-2.854.44-4.391.549-1.536.11-3.073-.109-4.61-.219-.768 0-1.536 0-2.195.11-.768.109-1.427.329-2.195.549-.769.22-1.537.439-2.415.659-.878.11-1.647.11-2.415.22-1.537.109-3.183.219-4.829.329-2.854.22-5.818.44-8.672.549-1.427.11-2.853.11-4.28.22-1.427 0-2.854-.11-4.281-.11-2.744 0-5.488-.11-8.013-.11-1.207.11-2.415.44-3.732.659-.658.11-1.317.22-1.976.22h-6.915c-.549 0-1.097-.11-1.646-.22-2.195-.439-3.842-.988-5.159-.659-1.427.22-2.854.769-4.171.879-1.317.11-2.305-.11-2.963-.22-1.318-.329-2.525-.768-3.513-.988-.22-.11-.549-.11-.768-.11-.33 0-.55-.11-.769-.11-.549-.11-1.097-.22-1.646-.22-2.086-.329-3.952-.878-5.378-1.208-3.074-.769-4.83-1.867-4.83-2.856 0-.989 1.756-1.758 4.72-2.307 1.536-.329 3.293-.329 5.378-.329h2.525c.329 0 .658 0 .988.11 1.317.219 2.524.659 3.622.878.549.11 1.317.33 2.305.22.988 0 2.305-.439 4.061-.659.878-.11 1.866 0 2.854.22.988.219 1.976.549 2.854.769.988.329 1.866.329 2.963.439 1.098.11 2.195.11 3.403.22.549 0 1.207.11 1.756.11.549 0 1.098 0 1.646-.11 1.208-.11 2.415-.44 3.842-.44 2.744.11 5.269.44 8.123.55 1.427.109 2.854.329 4.171.439 1.427 0 2.853.11 4.28.11 2.854.11 5.818 0 8.672 0 1.646 0 3.183-.11 4.829-.11h2.305c.769-.11 1.427-.33 2.196-.549.768-.22 1.536-.55 2.305-.659.768-.22 1.646-.22 2.414-.22 1.537 0 3.074.11 4.501 0 1.427-.11 2.854-.439 4.28-.769.659-.11 1.427-.33 2.086-.33.659-.109 1.427-.219 2.085-.219 1.318-.22 2.635-.33 3.952-.55a14.44 14.44 0 0 1 3.732-.109c1.207 0 2.305 0 3.293-.11s1.975-.33 2.854-.549c.987-.22 1.866-.33 2.744-.44h2.305c3.073-.329 4.61.22 4.719 1.538z" fill="#fff"/>
</svg>
