<svg xmlns="http://www.w3.org/2000/svg" xmlns:xlink="http://www.w3.org/1999/xlink" viewBox="0 0 737.98 315.14"><defs><style>.cls-1{fill:none;}.cls-2{clip-path:url(#clip-path);}.cls-3{fill:#fff;}</style><clipPath id="clip-path" transform="translate(-13.61 -200.15)"><rect class="cls-1" x="186.58" y="-35.22" width="432.03" height="704.27" transform="translate(-26.04 597.62) rotate(-71.43)"/></clipPath></defs><title>Element 4</title><g id="Ebene_2" data-name="Ebene 2"><g id="Ebene_1-2" data-name="Ebene 1"><g class="cls-2"><path class="cls-3" d="M603.19,460.37c-.7-1-2.89-.71-6.65.38-3.52,1.18-8.53,3.69-14.95,6.52-3.06,1.33-6.58,3.3-10.49,4.87-3.68,1.64-7.83,3.14-12.37,5q-7.05,2.35-15,5.18c-5.55,1.8-11,4.16-16.67,6.2a178.1,178.1,0,0,1-17.61,5.88c-3.13.78-6.34,1.8-9.7,2.51l-10.09,2.12c-3.36.7-6.8,1.64-10.32,2-3.36.7-6.88,1.09-10.48,1.72-3.52.39-7.27.7-11.1,1.25s-7.82.79-11.57,1.1c-7.9,1-15.71,1.8-23.53,2.58-4,.24-7.9.23-11.57.31-1.8-.08-3.83-.24-5.94-.16a49.32,49.32,0,0,1-6-.71c-4.06-.31-8.28-.94-12.58-1.34-4.53-.47-8.43-.47-12.73-.87-8.36-.71-16.72-1.42-24.91-2.6-7.5-.95-15.08-2.44-22.57-3.39-7.58-1.49-15-2.67-22.49-4.4-7.57-1.5-14.75-3.39-22-5-3.83-1-7.5-1.73-11.09-2.68s-7.26-1.65-10.61-2.51c-14.13-3.7-27.55-8-40.43-12.28-6-2.28-11.85-5-18-7.62-3.2-1.34-6.32-2.91-9.6-4-3-1-6-2.28-9-3.54-5.77-2.2-11.47-4.64-16.77-6.68-2.73-1.18-5.46-2.36-8.27-3.31-3-1.26-5.77-2.2-8.35-3.06-5.38-1.81-10.06-3.39-14.2-5a82.45,82.45,0,0,1-11.07-5c-6.86-3.62-13.25-7.86-19.17-11.16a143.81,143.81,0,0,0-14.12-6.84c-6.39-2.68-12.17-4.88-17.08-7.31a21.14,21.14,0,0,0-3.59-1.73c-1.32-.71-2.65-1.42-3.74-2.05a81.75,81.75,0,0,1-7.4-4.32,216,216,0,0,1-23.84-15.88C22.42,373.8,15.58,367,13.85,368.3c-1.41,1.1,3.24,10.53,15.3,22.71a142.19,142.19,0,0,0,23.51,19.17c2.34,1.58,4.91,3.23,7.48,4.88a26.77,26.77,0,0,0,4.13,2.44c1.56.78,3,1.8,4.6,2.59,6.24,3.14,12.4,5.74,18.1,8.18a106.65,106.65,0,0,1,11.22,5.34c4.92,2.44,10.92,6.29,19.34,10.69a99.51,99.51,0,0,0,14.11,6.06c4.84,1.89,9.84,3.3,14.75,4.95s9.29,3.38,14.82,5.51l16.85,6.45c3.05,1,5.78,2.2,8.82,3.22,2.81.94,5.54,2.12,8.5,3.38,6.17,2.6,12.56,5.27,19.5,7.86,13.89,4.41,27,8,41.92,11.73,7.41,2,14.59,3.07,21.85,4.72s14.76,3.38,22.18,4.56c14.91,2.92,30.29,5.2,45.6,6.93,4.3.4,8.51,1,12.81,1.42s8.36.71,12.65,1.11c2,.16,4.15.08,6.41.32l3.05.23c1,.08,2,.16,2.81.16,3.75.47,7.81.79,12.11,1.18,4.06.32,8.28.95,12.65,1.11s8.83.08,13.05-.07c8.29-.63,16.34-1.33,23.84-2s15.24-1.17,22.75-1.8c3.75-.31,7.58-.86,11.41-1.41,1.88-.15,3.6-.62,5.48-.78,1.72-.47,3.59-.63,5.31-1.1,3.6-.62,7-1.33,10.56-2,3.37-.7,6.81-1.64,10.17-2.35,6.73-1.41,13.3-3.92,19.41-5.81,5.94-2.19,11.11-4.39,16.35-6,5.09-2,10.1-3.69,14.8-5.26a142.32,142.32,0,0,0,13.38-5.72c4.08-2,7.37-4.09,10.58-5.89a90.61,90.61,0,0,0,13.87-9.5C602.78,463.11,603.88,461.39,603.19,460.37Z" transform="translate(-13.61 -200.15)"/><path class="cls-3" d="M563.22,360.66c-1.08-2.2-8.2-1.18-19.7,2-2.89.87-6.33,1.81-9.54,2.83-3.29,1.25-7.12,1.8-11.35,2.74s-8.68,1.81-13.53,3.06c-2.58.71-4.93,1.49-7.27,2.28s-5,1.72-7.6,2.43c-5.16,1.41-10.09,2.9-15.49,4.24l-8.44,1.88a76.25,76.25,0,0,1-8.68,1.8l-9.15,1.65c-3.05.55-6,.86-9.08,1.41s-6.25.78-9.53,1.25-6.73.63-10,1.1c-6.8.86-13.68,2-20.33,3.13l-4.93.71a36.65,36.65,0,0,1-5,.15c-3.36-.08-6.72-.16-10.31-.32s-7.19-.31-10.86-.24c-3.91,0-7.43.39-11,.23l-21.8-.24c-3.36-.08-6.49-.08-9.85-.16l-9.92-.71c-6.64-.4-13-1-19.61-1.35s-13-1.49-19.37-2.05l-9.84-.94c-3.28-.32-6.4-.32-9.37-.79-6.17-1-12.42-1.81-18.35-2.76s-11.95-1.65-17.73-3.07c-5.3-1.26-10.69-3.07-16.07-4.88-2.81-.94-5.7-1.65-8.59-2.36-2.65-.63-5.31-1.25-7.88-2.12q-7.85-2.25-15-4.25c-2.42-.55-5-1.41-7.18-1.89l-7.49-1.73c-9.37-2.36-16.94-3.85-22.55-6.53a65.36,65.36,0,0,1-9-4.32c-2.89-1.5-5.54-2.91-8.19-4.32a90.21,90.21,0,0,0-12.48-4.72c-2.81-.95-5.7-1.65-8.35-2.28l-7-2.36a16.55,16.55,0,0,1-3.2-1.34c-1.17-.39-2.26-1-3.43-1.41-2.27-1-4.61-1.81-6.87-2.84q-6.55-2.6-12.4-5c-3.82-1.81-7.25-3.22-10.45-4.56-12.71-5.58-20.75-8-21.62-6.21-1,1.49,5.44,7.07,17.36,15a112,112,0,0,0,9.9,6.21c3.74,2,7.79,3.93,12.24,6.21,2.26,1,4.44,2.28,6.7,3.3,1.1.63,2.5,1.1,3.59,1.73,1.33.71,2.73,1.18,4.06,1.89,5.46,2.35,11,3.69,16.23,5.19a81.22,81.22,0,0,1,10,3.61c2,1,4.45,2.28,7.33,3.78s6,3.06,9.91,4.64a80.72,80.72,0,0,0,12.72,4c4.29,1.18,8.74,1.89,13,3.07,4.37.94,8.28,1.73,13.51,3.22,4.76,1.34,9.83,2.52,15.14,3.78,2.65.63,5.23,1.49,8,1.89,2.42.55,5.08,1.18,7.73,1.81,5.23,1.49,10.93,3.14,17.17,4.72,6.09,1.26,12.1,2,18.35,2.75,6,.71,12.26,1.5,19,2.45a57.84,57.84,0,0,0,9.69.63c3.28.32,6.4.32,9.45.55,6.33.55,12.89,1.19,19.53,1.58,6.72.16,13.12.48,19.84.64s13.28.79,19.93.4c7.34-.16,14.61-.07,21.95-.23,1.8.08,3.68-.08,5.48,0l2.65-.15a16.67,16.67,0,0,0,2.66-.16c3.44-.15,6.72.16,10.31.32s7.19.32,11,.55a63.66,63.66,0,0,0,11.18-.7c7.11-1,14-2.11,20.48-2.82,3.21-.23,6.41-.47,9.93-.86,3.28-.47,6.49-.7,9.77-1.17s6.49-.71,9.78-1.18,6.33-1,9.3-1.33c1.64-.23,3.05-.55,4.69-.78,1.41-.32,3.05-.55,4.46-.86,3.05-.55,5.87-1.18,8.68-1.81,5.87-1.18,11.81-2.59,16.74-4.08,2.58-.7,4.93-1.49,7.51-2.19,2.35-.79,4.62-1.34,6.89-1.88,4.53-1.1,8.84-2.28,13.29-3.14A64.55,64.55,0,0,0,537.06,375q5.4-2.13,9.87-3.77C557.88,366.47,564.07,362.78,563.22,360.66Z" transform="translate(-13.61 -200.15)"/><path class="cls-3" d="M602.62,464.37c-.79,2.36,1.39,4.4,5.91,6.45l3.75,1.25a29.71,29.71,0,0,0,4.52,1.26,43.67,43.67,0,0,0,5.31,1.26,52.81,52.81,0,0,0,6.1-.31,38.46,38.46,0,0,1,6.1-1.1l6.57-.94a18,18,0,0,0,3.36-.7c1.09-.16,2.19-.32,3.52-.4a42.18,42.18,0,0,0,7.43-1.17,56.7,56.7,0,0,0,7-2.9,22.85,22.85,0,0,1,3.53-1.18c1.09-.16,2.42-.24,3.75-.31a25.43,25.43,0,0,0,4.06-.47,36.42,36.42,0,0,0,3.84-1.34c2.34-.78,5-1.72,7.43-2.74a130.42,130.42,0,0,0,13-5.34c2.11-.86,4.3-2,6.42-2.83,2.19-1.1,4.15-2.27,6.11-3.45A72.5,72.5,0,0,0,722,441.79c1.73-1.25,3.84-2.11,6.11-3.45a14.4,14.4,0,0,0,2.91-2.43,18.65,18.65,0,0,0,2.2-2.67,35.85,35.85,0,0,0,3.62-6.13c.39-1.18.94-2,1.34-3.22a16.52,16.52,0,0,0,.64-3.46c.18-4.4-.59-7.54-.5-10.13.16-2.83.41-5.89-.51-8.56a12,12,0,0,0-3.73-5.19c-2.26-1.81-4.91-2.44-6.79-3.06l-1.4-.48-1.4-.47c-1-.08-2-.39-2.74-.39a23.71,23.71,0,0,0-8.91,1.72c-4.54,1.89-6.74,4.56-6.36,6.52s3.27,2.67,6.7,3.3c1.72.32,3.75.47,5.24.71.46.16.78,0,1.25.16l.46.15.71.24a12.67,12.67,0,0,1,3,.24,1.83,1.83,0,0,1,1.4,1.26,16.17,16.17,0,0,1,0,3.92,7.32,7.32,0,0,0,.53,3.07,13.8,13.8,0,0,1,.84,3.69,6.37,6.37,0,0,1-.48,3.77,14.58,14.58,0,0,1-1.9,4.08c-.47.63-.94,1.26-1.49,2.12a5,5,0,0,1-1.88,1.73c-1.41,1.1-3,1.89-4.7,3.14a85.56,85.56,0,0,1-9.88,7.7c-1.73,1.25-3.77,2.67-5.49,3.92-2,1.18-3.84,2.12-5.8,3.3-3.92,2.36-8.22,4.32-12.29,6.36-2.43,1-4.62,2.12-7.05,3.14l-1.8.7-.86.24c-.32.16-.55.08-.86.23a17.48,17.48,0,0,1-3.52.39l-4,.24a14.93,14.93,0,0,0-3.75,1.1c-2.35.78-4.54,1.88-6.81,2.43a33.59,33.59,0,0,1-6.72.63c-1.1.15-2.35,0-3.44.15a14.84,14.84,0,0,1-3.21.24l-6.33.23a21.18,21.18,0,0,0-5.94.63,19.64,19.64,0,0,1-5.24.07c-1.56,0-3.12-.79-4.6-1a2375.31,2375.31,0,0,1-4.37-.94c-1.25-.16-2.5-.32-3.52-.4C606.23,461.39,603.41,462,602.62,464.37Z" transform="translate(-13.61 -200.15)"/><path class="cls-3" d="M701.52,399.52c1.79,1.65,2,3.3,3.35,3.22a2.55,2.55,0,0,0,1.33-.07c.55-.08,1,.08,1.56,0a10.65,10.65,0,0,0,2.11-.08,13.47,13.47,0,0,0,2-1.41c.7-.55,1.26-1.42,2.12-1.65l2.5-1.26,1.26-.63a5.55,5.55,0,0,1,1.48-.55,6.88,6.88,0,0,0,3.21-1,36,36,0,0,0,2.9-2.43,6.65,6.65,0,0,1,1.65-1,14.57,14.57,0,0,1,2.19-.31c.31-.16.78,0,1.09-.16.55-.08.86-.24,1.41-.31l1.25-.63c.4-.4,1-.71,1.41-1.1l.71-.55c.31-.16.39-.39.79-.79a13,13,0,0,0,1.65-2.59l.24-.7.15-.48.32-.94c.16-.47.4-1.18.55-1.65a19,19,0,0,0-.34-10.6,42,42,0,0,0-1.47-4.17,10.39,10.39,0,0,0-2.56-3.22,40.67,40.67,0,0,0-5-5.34,21.38,21.38,0,0,1-1.63-2.91,5.06,5.06,0,0,0-1.09-1.41,19.34,19.34,0,0,0-4.36-2.52,4.12,4.12,0,0,1-1.56-.79l-.94-.31-1-.08a5.8,5.8,0,0,0-1.88.16,3.13,3.13,0,0,0-1.17.39c-.86.23-1.41.31-1.8-.08-1.09-.63-1.79-1.65-2.72-2a2.19,2.19,0,0,0-2.19.32,11.55,11.55,0,0,1-2.9,1.65l-.63.31-.62.31c-.32.16-.87.24-1.18.4-1.49.54-3.13,1.57-4.31,2-2.27,1.33-4.15,3.06-4.55,5a2.87,2.87,0,0,0,.69,2.6,8.41,8.41,0,0,0,2.41,2.12,7.59,7.59,0,0,0,3.91.79c.23.07.78,0,1,.07l.55-.07c.24.07.55-.08.78,0a23.13,23.13,0,0,0,2.9-1.65,2.11,2.11,0,0,1,1.64-.24,26.73,26.73,0,0,1,2.57,1.65,2.67,2.67,0,0,0,1.88-.15c.63-.32,1.33-.87,1.26-1.42a2.12,2.12,0,0,1,1.64-.23c.47.16,1.25.16,2,.39l1.17.4a1.82,1.82,0,0,1,.78.78,5.82,5.82,0,0,0,1.4,2c1.48,1,3,1.81,4.67,3.15a13.69,13.69,0,0,1,2.49,1.88,16.45,16.45,0,0,1,1.71,2.68,11.55,11.55,0,0,1,1.54,6.28c-.24.71-.16,1.26-.4,2a6.08,6.08,0,0,1-1.18,2l-.79.78c-.08.24-.31.16-.39.4l-.31.15a3.94,3.94,0,0,1-2,.4,3.75,3.75,0,0,0-1.88.15,3,3,0,0,0-1.56.79,26.9,26.9,0,0,1-2.74,2,9.71,9.71,0,0,1-3,.55l-1.65.23c-.54.08-.86.24-1.4.32a23.45,23.45,0,0,1-2.82.63,7.48,7.48,0,0,0-2.51,1.25,5.35,5.35,0,0,1-2,1.18c-.62.31-1.32.08-2.18.31a4,4,0,0,0-2,.39,5.27,5.27,0,0,0-1.41,1.1c-.79.79-1.26,1.42-1,2.28C700.28,397.79,700.83,398.5,701.52,399.52Z" transform="translate(-13.61 -200.15)"/><path class="cls-3" d="M694.18,362.44c1.4,2,3,2.59,5.07,2,.55-.08.94-.47,1.49-.55.63-.32,1.17-.39,1.8-.71a8.85,8.85,0,0,0,2.11-.86,4.23,4.23,0,0,0,1.5-2.12,11.67,11.67,0,0,1,1.57-2.36,26.76,26.76,0,0,0,2-2.2,3.59,3.59,0,0,0,1-1.25,5.38,5.38,0,0,1,1.09-.95,29.39,29.39,0,0,0,2.59-2.27,18.52,18.52,0,0,0,1.42-3.46,4.67,4.67,0,0,1,1-1.49,6.65,6.65,0,0,1,1.65-1,4.57,4.57,0,0,0,1.73-1.26c.47-.63.7-1.33,1.18-2a28.36,28.36,0,0,0,2-4.32,18,18,0,0,0,1-9.9l-.69-2.59a14,14,0,0,0-1-2.44,12.22,12.22,0,0,0-3.19-3.69,23.4,23.4,0,0,0-6.39-4.24,17.37,17.37,0,0,1-2.33-2.36,3.53,3.53,0,0,0-1.24-1l-1.18-.39-2.1-.71-.94-.31c-.47-.16-.78,0-1.33.08-1.64.23-3.36.7-3.9,0-.78-.79-1.17-2-2-2.52a3,3,0,0,0-2.27-.24c-1.17.4-2.35.79-3.21,1a.73.73,0,0,1-.54.08l-.55.08c-.55.08-.86.24-1.41.32a13.08,13.08,0,0,0-4.07,2,7.24,7.24,0,0,0-2.92,5.57,5.5,5.5,0,0,0,1.78,4c.31.63,1.09.63,1.87.63.24.08.55-.08.79,0l.23.08c.23.08.23.08.55-.08l2.5-1.26c.32-.15.94-.47,1.33-.08.47.16.86,1.34,1.71,1.89a2.92,2.92,0,0,0,2,.39,11.27,11.27,0,0,0,2.59-.7,5.75,5.75,0,0,1,2.34,0c.7.24,1.49.24,2.42.55.47.16.78,0,1.25.16.23.08.7.23.86.55.62.47.93,1.1,1.63,1.33a16.35,16.35,0,0,1,4.76,1.34,8.94,8.94,0,0,1,2.42,1.34l.93,1.1c.16.31.47.94.62,1.26.93,1.88.77,3.92.6,6a16.68,16.68,0,0,1-.87,3.37l-.24.71-.16.47-.16.47a2.49,2.49,0,0,1-1.33.87,5.89,5.89,0,0,0-1.57.78,1.85,1.85,0,0,0-.94,1.26c-.55.86-.71,2.12-1.42,2.67a8.56,8.56,0,0,1-2.58,1.49,5.38,5.38,0,0,0-1.33.86c-.4.4-.71.55-1.1.95l-2.12,1.64a8.68,8.68,0,0,0-1.65,1.81,16.85,16.85,0,0,1-1.33,1.65,6.82,6.82,0,0,1-1.81.71,5.82,5.82,0,0,0-1.56.78,3.59,3.59,0,0,0-.94,1.26C692.87,358.59,692.78,360.4,694.18,362.44Z" transform="translate(-13.61 -200.15)"/><path class="cls-3" d="M686.42,313.42c1.8,1.65,7.2-2,14.58-10.05,1.73-2,3.85-4.48,6-6.91s4.32-5.11,6.6-8,4.95-6.2,7.47-9.82,4.72-7.85,7.08-11.78c2.21-4.24,4.34-8.24,6.78-12.41s5.27-8.71,8-13c1.34-2.44,2.76-4.32,4.26-7.23a33.38,33.38,0,0,0,4.1-10.68,22.68,22.68,0,0,0,0-7.62,18.51,18.51,0,0,0-8.85-12.42,22.1,22.1,0,0,0-6.4-2.67,24.14,24.14,0,0,0-13.52.7L721,202l-1.25.63a16.18,16.18,0,0,0-2.59,1.49,55.63,55.63,0,0,0-4.54,3.45c-2.67,2.52-5.11,5.11-7.15,7.31-2.12,2.43-4.16,4.63-6.2,6.83s-4.08,4.4-6.2,6.83-4,4.95-5.82,7.23c-3.92,4.71-7.85,9.42-12,14.05-7.54,8.48-15.16,16.41-23.08,24.5-3.93,3.93-7.85,7.86-12,11.7s-7.85,7.86-11.69,11.55l-3,2.67L624,301.61l-.7.55-.4.39.09-.23a3.1,3.1,0,0,1,2-.63,6.31,6.31,0,0,1,1.95.39,3.81,3.81,0,0,1,1.79,2.44c.15,1.88,0-.79.16-2,0-1.57.17-2.83.1-4.17-.07-2.9-.21-5.57-.36-8.24-.13-5-.27-10.06-.87-15.25a49.68,49.68,0,0,0-1.21-8c-.46-2.51-1.23-4.87-1.77-7.15s-1.31-4.63-1.84-6.91a27.42,27.42,0,0,0-1-3.22,14.15,14.15,0,0,0-3.42-6.13,9.54,9.54,0,0,0-2.1-1.5,11.12,11.12,0,0,0-2.5-1.1,36.78,36.78,0,0,0-4.29-.39,28.41,28.41,0,0,0-4.54,1.1c-.55.08-.86.23-.94.47l.24.08.23.08.47.15a2.67,2.67,0,0,0-1.33.08,11.51,11.51,0,0,0-7.28,3.06,23.58,23.58,0,0,0-2.83,3.77,17.32,17.32,0,0,0-1.34,3.22,43.19,43.19,0,0,0-1.67,5.74,58.35,58.35,0,0,1-2.7,8.79c-2,5.34-4.81,10.45-6.47,15.4a66.5,66.5,0,0,0-3,11.31c-1,5.18-1.21,9.82-1.78,13.82-.08,1-.4,2-.48,3s-.48,2.2-.56,3.22c-.48,2.2-.64,4.24-1,6.21-1.45,8.16-2,15.31-2.67,21.13C570.76,353,571.27,360,573,360.27c2,.39,4.64-6,8.21-17.44,1.9-5.65,3.65-12.4,5.56-20.42.39-2,1-3.85,1.51-6.05.31-.94.48-2.2.79-3.14a18.83,18.83,0,0,0,.72-3.69c.88-4.95,1.45-9.74,2.17-14.22a71.39,71.39,0,0,1,2.15-8.71c1.27-3.77,3.63-8.49,6-14.77a52.81,52.81,0,0,0,3-10.53,31,31,0,0,1,1.27-4.55l.32-.95.23-.7.16-.47-.31-.63c-.15-.32-.31-.63-.46-.95-.08-.54-.16-.31-.31-.62a.25.25,0,0,0-.16-.32,17,17,0,1,1-.24,2.28l.23.08a5.8,5.8,0,0,0,1.88-.16,30.78,30.78,0,0,0,3.76-1.1,8.66,8.66,0,0,0,1.48-.54c.08-.24-.07-.55,0-.79.16-.47-.07-.55.09-1l.08-.24-.08.24-.32.15a2.49,2.49,0,0,1-1,.71l.15.32a.85.85,0,0,1,.08.55c.46.94.61,2,1.08,3,.61,2,1.23,4.09,2,6.44.62,2.05,1.15,4.33,1.69,6.6a42.12,42.12,0,0,1,1.22,6.44c.61,4.4.74,9.43,1.27,14.85.22,2.44.6,5.19.59,7.55a19.88,19.88,0,0,1,.06,3.69l-.09,1.8-.08,1a5,5,0,0,0,0,1.57,8.06,8.06,0,0,0,3.56,5.65,6.83,6.83,0,0,0,6.72.16,5.6,5.6,0,0,1,1.34-.86l.78-.79,1.49-1.33c1.1-.94,2-2,3.06-2.91,3.93-3.92,7.62-7.93,11.31-11.93,3.92-3.93,7.85-7.85,11.62-12.1,7.69-8.16,15.31-16.88,22.38-25.52,4-4.94,7.93-9.66,11.94-14.6l2.83-3.77,1.41-1.89c.47-.63.87-1,1.34-1.65a61.46,61.46,0,0,1,6.12-6.59c2-2.2,4.4-4.56,6.52-7a55.8,55.8,0,0,1,6.75-6.91,27.11,27.11,0,0,1,7.68-5,15.78,15.78,0,0,1,8.83-.7A14.94,14.94,0,0,1,741.1,212a10.41,10.41,0,0,1,2.7,8.25,16.34,16.34,0,0,1-3.16,7.85c-1.34,2.43-2.83,4.55-4.41,6.91-2.83,4.56-5.82,8.8-8.49,12.88-2.76,4.32-5.28,8.72-7.64,12.65s-4.41,7.69-6.53,10.91-4.72,6.28-7,9.19-4.55,5.81-6.52,8.56-3.54,5.11-5,7.23C687.78,306.27,684.4,311.69,686.42,313.42Z" transform="translate(-13.61 -200.15)"/><path class="cls-3" d="M530.58,497.34c2-1.42,2.44-3.38,1.75-6a7.78,7.78,0,0,0-.62-2.05,8.63,8.63,0,0,1-.69-2.59,14.75,14.75,0,0,0-.85-2.91,10,10,0,0,0-2-2.51,7.85,7.85,0,0,1-2.17-2.83,26.33,26.33,0,0,1-1.78-3.22l-.93-1.89a6.65,6.65,0,0,1-.7-1.81,27.52,27.52,0,0,0-1.47-4.16,45.12,45.12,0,0,0-2.64-3.77,8.15,8.15,0,0,1-.92-1.89v-2.35a20.76,20.76,0,0,0,0-2.36c-.23-.86-.54-1.49-.77-2.36-.54-1.49-.84-2.9-1.38-4.4-.93-2.67-1.31-5.42-2.23-8.09a30.82,30.82,0,0,0-1.24-4.08c-.3-1.42-1.24-2.52-1.54-3.93-.93-2.67-1.7-5-2.47-7.39a16.63,16.63,0,0,1,.25-3.85,3.75,3.75,0,0,0-.15-1.88c-.07-.55-.38-1.18-.46-1.73-.15-1.1-.54-2.28-.69-3.38a5.08,5.08,0,0,0-.46-1.73,3,3,0,0,0-.77-1.57c-1.17-2-2.49-3.46-2.25-4.95s1-3.06,1.11-4.08a4.87,4.87,0,0,0-.84-2.91c-.86-1.34-1.79-2.44-2.25-3.38-.16-.31-.31-.63-.31-.63l-.23-.86c-.31-.63-.39-1.18-.55-1.49-.85-2.13-1.77-4-2.55-5.58-1.55-3.15-3.49-5.11-5.29-5.19s-3.21,1.81-4.24,4.87a16.57,16.57,0,0,0-.34,5.65c.08.56.15,1.11.23,1.65l.23.87c.15.31.07.55.15,1.1.31,1.41,1.47,2.59,2.09,3.85a4.17,4.17,0,0,1,.77,2.36c.16,1.1-.55,2.43-.72,4.47a5.64,5.64,0,0,0,.85,2.91,19.09,19.09,0,0,0,1.94,2.75,10.82,10.82,0,0,1,1.32,3.06c.38,1.18.77,2.36,1.15,3.54.31.63.39,1.18.7,1.81.07.55.15,1.1.22,1.65a24.88,24.88,0,0,0,.22,4c.93,2.67,2.48,5,3.64,7.78.62,1.26,1.47,2.6,2.09,3.85s1.16,2.75,1.78,4c1.24,2.51,2.32,5.5,3.56,8,.54,1.5,1.32,3.07,1.86,4.56l.38,1.18.31.63c-.08.23.16.31.08.55a4,4,0,0,1,0,2.35c0,.79-.09,1.81-.09,2.6a6,6,0,0,0,.77,2.35c.85,1.34,1.71,2.68,2.33,3.93s.61,2.83.92,4.24a4.39,4.39,0,0,0,.61,2.05,4.48,4.48,0,0,1,.62,2c.38,1.18,1,2.44,1.39,3.61a14.41,14.41,0,0,0,2,3.3,27.71,27.71,0,0,1,1.94,2.75,15.68,15.68,0,0,1,.85,2.91,14,14,0,0,0,1,2.44,8.42,8.42,0,0,0,1.48,1.8C526.52,497.8,528.39,498.43,530.58,497.34Z" transform="translate(-13.61 -200.15)"/><path class="cls-3" d="M477.48,491c-1.65,1.81-1.5,3.69.29,5.34a4.63,4.63,0,0,0,1.48,1,12.76,12.76,0,0,1,1.95,1.18,4.19,4.19,0,0,0,2.34.79,5,5,0,0,0,2.66-.94,6.81,6.81,0,0,1,2.27-1.34,14.63,14.63,0,0,0,2.51-1.25c.39-.4.71-.55,1.1-.95a4.25,4.25,0,0,1,1.33-.86,5.22,5.22,0,0,0,2.51-2,9.52,9.52,0,0,0,.95-3.62c.16-.47.16-1.25.56-1.64a4.7,4.7,0,0,1,1-1.5,3.54,3.54,0,0,0,.95-2c.23-.71-.08-1.33-.07-2.12a13.81,13.81,0,0,0-.85-3.69,15.41,15.41,0,0,0-5.75-6.92,6,6,0,0,0-2.89-.71,14,14,0,0,0-5.7-.08c-.78,0-1.72-.31-2.73-.39a4.13,4.13,0,0,0-1.65.24l-1.25.62a10.17,10.17,0,0,0-1.88,1.73c-.31.16-.47.63-.79.79-.16.47-.23.7-.39,1.17-.09,1.81.3,3-.33,3.3-.71.55-1.8.71-2,1.42a1.21,1.21,0,0,0,.23,1.65c.47.94,1.56,1.57,1.94,2,.24.08.16.31.39.39a.9.9,0,0,0,.39.4c.16.31.39.39.55.7a4.66,4.66,0,0,0,3,1,3.63,3.63,0,0,0,2.58-.71c.31-.16.94-.47,1-.71l.31-.15c.32-.16.55-.08.86-.24l.24.08.23.08.24.08.46.16-.23-.08-.23-.08c-.24-.08-.24-.08-.39-.39a3.35,3.35,0,0,1-.55-.71c-.15-.32-.15-.32-.31-.63l-.15-.32c.23.08.08.55.39.4a4.82,4.82,0,0,1,1.41-1.89c.32-.16,1-.7,1.49-.55a3.17,3.17,0,0,1,1.48.24A6.36,6.36,0,0,1,491,480.9a6.46,6.46,0,0,1,1,1.65c-.08.24.16.31.08.55l-.08.24-.08.23a1.9,1.9,0,0,1-.78.79c-.32.15-.71.55-1,.7s-.16.47-.24.71a2.19,2.19,0,0,1-.32,1.73,2.49,2.49,0,0,1-1.49.55c-.23-.08-.55.08-.78,0l-.63.31a1.82,1.82,0,0,1-1.09.16c-.47-.16-.63.31-1,.71s-.7.54-.94.46-.62-.47-.86-.55a.89.89,0,0,0-.62-.47c-.23-.07-.55.08-.78,0C480.38,488.59,478.9,489.14,477.48,491Z" transform="translate(-13.61 -200.15)"/></g></g></g></svg>