<svg width="71" height="70" viewBox="0 0 71 70" fill="none" xmlns="http://www.w3.org/2000/svg">
<path d="M64.5956 58.3118C64.1693 58.7901 63.6855 59.2139 63.1553 59.5735C60.671 61.2484 57.2041 61.2484 54.3848 62.1081C52.442 62.7166 50.756 63.8332 48.7462 64.3747C47.4008 64.7432 46.0331 65.0111 44.6597 65.2512C43.973 65.3684 43.2863 65.5024 42.5941 65.5862C42.0515 65.5922 41.5101 65.6407 40.9751 65.7313C40.245 66.0024 39.4865 66.1897 38.7141 66.2896C33.6952 66.5901 28.6587 66.3694 23.6854 65.6308C22.3567 65.4578 21.0503 64.8046 19.7775 64.4696C18.9624 64.2575 18.0691 64.1458 17.282 63.8778C16.4948 63.6099 15.9198 63.0907 15.0154 63.2135C13.8989 63.3531 12.9051 64.224 11.8388 64.5534C10.5939 64.9386 9.13678 65.1675 8.99721 66.6804C8.84648 68.3943 10.3147 67.6462 11.3587 67.4229C12.8102 67.1046 13.3908 66.0328 14.6748 65.5248C15.1773 66.0216 16.506 66.1612 17.2987 66.5464C17.9964 66.9878 18.7922 67.2505 19.6156 67.3112C21.0001 67.4452 22.2785 68.0258 23.624 68.3329C29.162 69.5834 34.9625 69.5108 40.5787 68.852C43.2026 68.545 45.8991 68.2324 48.361 67.3168C51.091 66.3007 54.0108 65.4689 56.8189 64.6818C58.1699 64.3021 59.3423 63.3642 60.7268 62.873C62.6301 62.1795 64.4939 61.3818 66.3095 60.4835C66.985 60.1542 68.1128 57.8485 68.4421 57.039C68.8664 56.0006 68.7882 54.7668 69.0506 53.6894C69.3425 52.5206 69.5164 51.3255 69.5698 50.122C69.7425 47.3388 69.1641 44.5603 67.895 42.0773C68.3584 41.3627 66.918 39.3417 66.5161 38.5657C65.1874 36.0088 63.4679 33.6753 62.4295 30.9453C61.1846 27.6627 58.8287 25.4743 56.6402 22.8225C55.8522 21.7418 55.1343 20.6118 54.4909 19.4393C52.8161 16.955 50.583 15.0178 48.5397 12.8349C46.2173 10.3785 43.8874 7.92956 41.5501 5.48805C39.7357 3.58992 37.9158 1.9877 35.2528 1.60808C32.266 1.18379 29.2234 1.45175 26.2144 1.28427C23.5067 1.13354 20.8047 0.575248 18.1864 1.61922C17.3211 1.95977 16.1375 2.21657 15.4508 2.90883C14.8926 3.4671 14.8423 4.09238 14.6134 4.87955C14.1277 6.55437 13.134 8.28501 13.0391 10.0771C12.9362 11.7323 12.7498 13.3813 12.4808 15.0178C12.2799 16.3018 11.5932 18.6242 12.5255 19.7464C13.536 20.9634 15.931 20.7512 17.3211 21.2704C19.1187 24.4414 21.7593 22.694 24.1711 21.3151C26.1593 20.1883 28.2934 19.3411 30.5131 18.7973C31.7971 18.4791 32.3219 17.5914 33.3993 17.0667C34.2821 18.3149 35.0306 19.6528 35.6324 21.0583C36.2959 22.3974 36.7173 23.8433 36.8774 25.3291C37.0281 26.8923 37.525 28.3717 37.525 29.9739C37.525 30.99 38.0832 32.8993 37.6255 33.6697C35.9506 33.3236 34.2758 32.8211 32.601 32.8211C31.3393 32.8211 29.9939 32.9774 28.6931 33.0333C26.2172 33.1175 23.7818 33.6866 21.5249 34.7081C20.2894 35.2566 18.9923 35.654 17.6616 35.8916C15.0545 33.5022 12.6372 31.8553 9.20936 30.8672C6.82553 30.1581 3.51497 29.8008 1.06973 30.4708C1.06973 30.6048 1.18697 30.588 1.26513 30.6606C0.360726 32.3354 1.95739 32.2182 3.24142 32.3354C4.8513 32.422 6.44563 32.6956 7.99231 33.1505C9.47174 33.6585 10.9009 34.0382 12.0398 35.0654C13.0782 35.9977 14.3734 36.5895 15.5569 37.3543C16.7405 38.1191 17.282 39.0291 18.7391 38.5602C19.6082 38.3474 20.4454 38.0208 21.229 37.5887C21.9237 37.0655 22.6985 36.6583 23.5235 36.3829C26.4767 35.512 29.0113 34.7081 32.0986 35.2663C36.6929 36.1108 40.9054 38.3782 44.1405 41.7479C45.1454 42.803 45.7874 44.8184 47.0882 45.4716C49.4776 46.6663 48.5732 43.5734 47.6074 42.6467C46.2564 41.3403 45.1231 39.8553 43.9284 38.4262C42.7422 36.9636 41.4042 35.6312 39.9367 34.4513C40.3442 31.4757 39.8865 28.7625 39.4343 25.8092C39.225 24.0198 38.7723 22.2674 38.0888 20.6005C37.1822 18.8972 36.1871 17.2424 35.1076 15.643C35.0574 14.6605 36.4866 11.9752 35.4203 11.2327C34.1753 10.3618 33.4161 12.6116 33.0811 13.4658C32.5228 14.8838 31.4342 15.1406 30.1279 15.671C28.2186 16.4023 26.7056 17.7422 24.908 18.6577C24.0799 19.0317 23.2206 19.3325 22.3399 19.5565C21.8319 19.7129 20.1069 20.5503 19.6602 20.3995C18.9345 20.1651 18.9568 19.4281 18.4209 19.0039C17.8423 18.6259 17.1858 18.3835 16.5004 18.2948C15.155 17.971 14.4069 17.9989 14.513 16.4079C14.6916 13.784 15.5904 11.5621 15.9924 8.98284C16.171 7.79372 16.2213 4.91305 17.3434 4.32128C18.0637 3.81602 18.8945 3.49059 19.7663 3.3722C20.6986 3.3722 21.536 3.93048 22.4795 3.93048C23.423 3.93048 24.4781 3.81882 25.4663 3.81882C28.5424 3.81882 31.557 4.10912 34.6108 4.34359C36.4308 4.48875 37.2123 5.36525 38.5634 6.4148C40.093 7.60392 41.7623 8.44692 42.9681 10.0157C46.4071 14.4819 49.8907 18.948 53.5251 23.2691C55.8724 25.9771 58.0769 28.8058 60.1294 31.7436C61.9494 34.4289 64.5454 37.7395 65.4219 40.8937C66.2481 43.8861 66.1923 47.0794 66.9683 50.0662C67.6829 52.7459 66.5496 56.1402 64.5956 58.3118Z" fill="#1D1D1B" stroke="#1D1D1B" stroke-width="1.2" stroke-miterlimit="10"/>
<path d="M16.6496 51.0153C16.0132 50.5184 14.9748 50.5854 14.6733 51.4395C14.3328 52.4556 15.6782 53.5889 16.4709 54.0858C17.5875 54.8004 19.0223 55.0181 20.2337 55.5819C21.6406 56.2295 22.9916 56.9162 24.4543 57.4577C25.9169 57.9993 27.3014 58.5743 28.8758 58.658C30.3685 58.6942 31.8617 58.6139 33.342 58.4179C34.4764 58.3131 35.5897 58.0442 36.6469 57.6196C37.797 57.1339 39.0475 56.9609 40.1976 56.5031C41.0943 56.0799 41.9534 55.5813 42.7656 55.0125C43.6308 54.4291 44.445 53.7736 45.1997 53.053C46.841 51.5233 45.2332 50.3621 43.5863 51.4172C41.5988 52.6957 39.1201 53.2037 36.9428 54.1751C34.6595 55.2023 32.3147 56.0844 29.7969 56.0844C28.6299 56.1588 27.4583 56.0629 26.3189 55.7996C25.3033 55.4731 24.3126 55.0739 23.3545 54.605C22.2379 54.1025 21.0544 53.6224 19.9378 53.092C19.1805 52.6338 18.4683 52.1048 17.8108 51.5121C17.4947 51.2144 17.0832 51.0384 16.6496 51.0153Z" fill="#1D1D1B" stroke="#1D1D1B" stroke-width="1.2" stroke-miterlimit="10"/>
</svg>
