<svg width="71" height="74" fill="none" xmlns="http://www.w3.org/2000/svg">
    <g clip-path="url(#a)" fill="#1D1D1B" stroke="#1D1D1B" stroke-width="1.2" stroke-miterlimit="10">
        <path d="M69.042 26.112c-.377-1.417-.85-2.822-1.311-4.187-1.125-3.347-2.352-6.568-4.93-9.263a33.629 33.629 0 0 0-5.25-4.604 30.384 30.384 0 0 0-3.224-2.124l-.822-.463-.079-.051a2.569 2.569 0 0 0-.276-.166h-.044l-.164-.097c-.107-.063-.18-.103-.264-.16a6.098 6.098 0 0 1-.822-.6 6.031 6.031 0 0 0-.658-.508 8.622 8.622 0 0 1-.445-.348 8.935 8.935 0 0 0-1.125-.8 6.425 6.425 0 0 0-1.688-.668 9.998 9.998 0 0 0-1.756-.348l-.287-.052c-.53-.091-.985-.171-1.474-.222-.49-.052-.76-.172-1.126-.269l-.641-.16-.468-.12a7.558 7.558 0 0 0-1.125-.245h-.056a8.535 8.535 0 0 0-1.632-.223h-.236c-.456 0-.93-.04-1.424-.029h-.563c-.343 0-.692 0-1.058.046-.653 0-1.26.092-1.559.126-.968.112-1.915.364-2.813.748l-.563.217c-.248.103-.501.206-.765.297a7.913 7.913 0 0 1-1.244.445l-2.29.646-.53.177c-.18.063-.365.126-.562.177h-.045c-.29.117-.572.255-.844.411-.31.183-.563.36-.816.526l-.084.045a18.69 18.69 0 0 0-3.608 2.182l-.461.331c-.777.571-1.604 1.034-2.42 1.514-.726.428-1.553.913-2.301 1.439-3.484 2.461-6.061 5.043-7.879 7.91a6.617 6.617 0 0 0-.613 1.233l-.13.218c-.2.233-.387.477-.562.73-.073.155-.175.32-.276.492-.101.171-.186.314-.27.48l-1.126 2.147c-.208.41-.447.803-.714 1.176a9.016 9.016 0 0 1-.417.657l-.304.474a10.914 10.914 0 0 0-1.316 2.639c-.096.297-.287.885-.434 1.49a12.68 12.68 0 0 0-.365 1.571c-.141.634-.231 1.205-.31 1.713a8.177 8.177 0 0 0-.124 1.645h.14l-.145.052c-.031.408-.031.819 0 1.227v1.137c0 .377.04.76 0 1.142-.051.543-.068 1.028-.085 1.537v.308c-.059.588-.068 1.18-.028 1.77.013.636.115 1.267.304 1.874.142.434.319.857.529 1.262l.073.148c.05.109.107.217.152.32.11.279.234.551.371.817.172.323.32.659.44 1.005l.056.166c0 .091.045.154.067.211.034.133.077.262.13.388l.315 1.034a29.653 29.653 0 0 0 1.362 3.581 34.423 34.423 0 0 0 3.376 6.202 26.01 26.01 0 0 0 2.088 2.782l1.125 1.399c.32.406.704.805 1.07 1.194.036.043.075.083.117.12l.45.405c1.576 1.422 3.068 2.764 5.347 3.255l.185.04c.26.04.514.115.754.223.223.126.429.28.614.457.12.11.244.213.371.308a5.3 5.3 0 0 0 1.61.72c.416.124.82.285 1.21.48.327.192.637.411.928.657.13.097.253.2.383.29 1.558 1.143 3.415 1.6 5.188 1.943 3.13.617 6.31.928 9.499.93h1.401a25.908 25.908 0 0 0 3.984-.428c.254-.045.501-.08.738-.114a4.116 4.116 0 0 0 2.476-.92l.14-.13c.166-.184.37-.328.597-.424.094-.026.19-.043.287-.05.11-.014.219-.035.326-.064.26-.1.495-.253.692-.45a3.87 3.87 0 0 1 .242-.207 4.4 4.4 0 0 1 1.126-.57c.49-.145.946-.386 1.345-.709l.185-.183c.112-.128.243-.238.389-.325.116-.056.239-.097.365-.12h.09a10.476 10.476 0 0 0 4.25-2.644 13.798 13.798 0 0 0 2.982-4.09c.096-.194.17-.399.219-.61l.079-.298.343-.234c.324-.135.622-.328.878-.57a25.618 25.618 0 0 0 5.352-6.575l.151-.274a15.073 15.073 0 0 0 1.587-3.5c.105-.449.171-.906.197-1.365 0-.275 0-.572.045-.834.012-.737.09-1.471.237-2.194.05-.205.101-.41.157-.616.177-.595.299-1.205.366-1.822v-1.023a9.147 9.147 0 0 1 0-1.039c.071-.607.2-1.205.383-1.787.084-.297.169-.6.242-.897 1.08-4.055-.265-9.144-1.154-12.513zm-9.724 34.095a.78.78 0 0 0 .383.64c-.31.189-.625.366-.934.537-.67.356-1.312.764-1.92 1.222a46.601 46.601 0 0 1-5.345 3.867 44.516 44.516 0 0 1-4.637 2.381c-2.814 1.234-5.97 1.805-9.977 1.805-.648 0-1.306 0-1.953-.04a21.094 21.094 0 0 1-10.889-3.25c-.146-.091-.304-.171-.478-.268-.175-.097-.501-.269-.771-.446a11.374 11.374 0 0 0-1.3-.57l-.501-.172a14.765 14.765 0 0 1-2.352-.977 44.7 44.7 0 0 1-7.316-6.048 10.498 10.498 0 0 1-.523-.571l-.101-.108a15.82 15.82 0 0 0-.417-.457 8.275 8.275 0 0 1-.731-.891 10.732 10.732 0 0 0-.31-.4c-4.142-5.746-6.308-11.765-6.42-17.899-.08-4.112.056-8.801 2.7-12.399.254-.343.507-.685.715-.994a6.59 6.59 0 0 0 .608-.942l.034-.057c.188-.284.352-.584.49-.897.08-.24.179-.473.297-.697v-.034c.045-.097.085-.177.124-.268.163-.366.304-.686.44-.937l.275-.417c.076-.104.146-.212.208-.325a8.34 8.34 0 0 1 .507-.777l.168-.251c.096-.137.186-.263.26-.377.261-.397.504-.807.725-1.228a22.597 22.597 0 0 1 4.598-5.626 29.191 29.191 0 0 1 5.143-3.215 35.68 35.68 0 0 0 3.793-2.205l.4-.177.168-.063c.214-.08.394-.16.608-.25.315-.144.613-.27.945-.384a3.24 3.24 0 0 0 .389-.154l.4-.165c.337-.103.697-.183 1.04-.257l.22-.058h.112c.253-.07.511-.121.771-.154.303-.064.599-.158.884-.28h.056c.36-.108.71-.248 1.047-.416a27.86 27.86 0 0 0 1.058-.48l.236-.109c.764-.375 1.568-.659 2.397-.845.411-.091.833-.16 1.418-.234.32-.072.643-.123.968-.154h.096l.332-.035h.321a3.04 3.04 0 0 1 .523 0h.253c.088.007.177.007.265 0h.073c.144-.008.289-.008.433 0h.36l1.784.235c.128.046.264.069.4.068h.05l.18.029c.099.022.198.037.299.045.161.013.321.04.478.08l.276.057h.078c.136 0 .276.046.428.086l1.553.171a8.55 8.55 0 0 1 1.689.28 5.17 5.17 0 0 1 1.688.571l.23.126c.158.086.332.183.563.314l.045.029c.124.097.23.182.344.262.112.08.27.2.382.297l.101.086c.15.134.31.257.479.366l.078.057c.218.208.452.399.698.57l.406.246c.382.235.742.452 1.091.691.48.29.945.607 1.39.948l.338.246c.365.263.776.571 1.187.92a27.27 27.27 0 0 1 5.627 5.87c.136.206.282.406.422.606.141.2.327.445.468.674.14.228.264.388.422.6.157.211.332.462.467.68.264.405.5.782.742 1.142l.062.097a49.782 49.782 0 0 1 2.6 5.888c.235.856.393 1.731.473 2.616l.067.53c.563 4.387.434 8.647.22 13.37a32.475 32.475 0 0 1-.518 5.095 24.78 24.78 0 0 1-2.628 6.853 23.141 23.141 0 0 1-3.545 4.666c-.332.366-.664.732-.996 1.114a1.63 1.63 0 0 0-.484.925z"/>
        <path d="M53.566 42.64a9.83 9.83 0 0 0-.562-2.587c-.18-.41-.387-.807-.62-1.188a10.777 10.777 0 0 1-.314-.572 20.372 20.372 0 0 1-1.599-4.654v-.109h-.106c-.13 0-.26-.01-.389-.028a1.56 1.56 0 0 0-.743.034c-.63.251-.562.743-.49 1.228.037.221.037.447 0 .668-.189.491-.53.906-.973 1.182a5.895 5.895 0 0 0-.472.412c-.664.674-1.328 1.353-1.998 2.027l-.664.68c-.42.402-.798.848-1.126 1.33a7.68 7.68 0 0 0-.934 3.244 14.529 14.529 0 0 1-1.755-2.855c-.073-.171-.141-.354-.209-.526a2.387 2.387 0 0 0-.76-1.245l2.488-1.93a7.722 7.722 0 0 0 2.324-2.422c.198-.42.36-.858.484-1.307l.32-1.068c.231-.672.386-1.367.462-2.074a8.18 8.18 0 0 0-.236-2.284 19.245 19.245 0 0 0-1.852-5.277c-.725-1.348-1.688-2.89-2.56-2.89-.332 0-.619.245-.85.714-.123.251.045.491.209.725.152.166.245.38.264.606 0 .296-.32.496-.523.628a14.517 14.517 0 0 0-5.808 7.738 4.635 4.635 0 0 1-.81-3.61c.063-.308.144-.613.242-.913.108-.331.196-.669.264-1.01.081-.538.093-1.083.034-1.623a11.385 11.385 0 0 0-1.277-4.294 22.065 22.065 0 0 0-1.688-2.582 1.95 1.95 0 0 0-.604-.682 1.915 1.915 0 0 0-.843-.329l-.13-.028a14.203 14.203 0 0 1-2.723-1.103c-1.317-.64-2.555-1.245-3.939-1.245h-.191v.115a47.157 47.157 0 0 0-.962 7.213c-.1.91-.024 1.832.225 2.713.456 1.33 1.615 2.313 2.549 3.107 2.031 1.713 3.9 3.18 6.19 3.352h.045c.209-.004.415.05.596.154.13.114.23.256.293.417l.8 1.605a7.145 7.145 0 0 0-4.593-.468 22.784 22.784 0 0 0-3.73 1.205l-.8.302a.753.753 0 0 1-1.103-.172.779.779 0 0 1-.13-.399 2.12 2.12 0 0 0-.174-.434.866.866 0 0 0-.94-.354.883.883 0 0 0-.472.228.906.906 0 0 0-.265.457c-.025.272.013.546.113.8a16.18 16.18 0 0 0 6.556 8.658 7.89 7.89 0 0 0 1.784.902c1.98.646 4.17.052 5.93-.422 1.216-.331 2.364-.708 3.006-1.645.4.676.855 1.316 1.362 1.913a8.997 8.997 0 0 1 1.795 2.964l-1.97-.13h-.118l-1.93-.127c-1.626-.125-3.32-.16-4.502.834-.112.092-.225.2-.355.326-.318.4-.77.667-1.271.748a3.525 3.525 0 0 1-.704-.571 5.23 5.23 0 0 0-.523-.457 1.155 1.155 0 0 0-1.508 0c-.298.36-.237.902.18 1.662l.062.103a20.759 20.759 0 0 0 2.814 4.226c.236.257.472.525.731.817a9.925 9.925 0 0 0 2.814 2.513c.27.131.562.24.821.337 1.35.508 4.778 1.553 7.367.24a9.465 9.465 0 0 0 1.22-.834 7.232 7.232 0 0 1 1.509-.966c.117.113.26.195.416.24.045 0 .062 0 .225.343.147.321.264.656.35 1 .044.16.084.32.134.48a11.547 11.547 0 0 0 2.054 3.426c.235.35.535.648.884.88.195.114.416.175.641.176a.87.87 0 0 0 .563-.182c.231-.205.373-.495.394-.806a1.941 1.941 0 0 0-.512-1.507 4.707 4.707 0 0 0-.428-.366 1.89 1.89 0 0 1-.664-.725 2.214 2.214 0 0 1-.101-.383c0-.074-.028-.148-.045-.217a3.138 3.138 0 0 0-.507-.948l-.045-.063a3.864 3.864 0 0 1-.67-1.422c-.094-.343-.207-.68-.337-1.01.294-.395.66-.727 1.08-.977l.192-.092c.267-.096.5-.273.664-.508.065-.082.137-.158.214-.228.103-.094.214-.178.332-.252l.135-.097c.47-.325.856-.76 1.125-1.268a3.877 3.877 0 0 0 1.289-1.684l.067-.126c.816-1.57.687-3.427.467-5.374l.029-.023zM24.4 21.012c.04-.366.09-.737.146-1.114.154-.81.207-1.638.158-2.462-.045-.474-.101-1 .242-1.245a21.43 21.43 0 0 1 4.294 2.25c.443.266.82.634 1.097 1.074.084.171.156.349.214.531.056.17.123.337.202.497.142.255.314.49.512.703.203.212.377.45.518.708.243.634.302 1.326.169 1.993a7.872 7.872 0 0 0-.05 1.09c0 .218.044.44.078.675.04.263.067.528.079.794 0 .57-.118.948-.377 1.113a.69.69 0 0 1-.372.097 4.242 4.242 0 0 1-1.598-.57 37.419 37.419 0 0 1-3.635-2.108 4.912 4.912 0 0 1-.85-.657c-.68-.731-.968-1.89-.827-3.37zm12.172 17.704a1.058 1.058 0 0 1-.473.674 7.032 7.032 0 0 1-2.982 1.382 4.743 4.743 0 0 1-.81.069 10.324 10.324 0 0 1-3.94-1.068c-1.165-.509-2.448-1.143-2.999-2.342a2.854 2.854 0 0 0-.445-.622c-.32-.389-.624-.754-.512-1.143.113-.388.782-.725 1.216-.913l.107-.046a9.262 9.262 0 0 1 3.342-.828h.073a7.286 7.286 0 0 1 1.88.274 9.36 9.36 0 0 1 4.716 3.113l.186.222c.354.434.68.828.641 1.228zm5.627-4.358a21.872 21.872 0 0 1-1.84 2.13l-.191.19-.05.05c-.4.406-.85.863-1.278.863a.74.74 0 0 1-.524-.245c-1.3-1.234-1.502-4.141-1.322-5.683a8.84 8.84 0 0 1 1.642-4.12 8.662 8.662 0 0 1 3.423-2.774 10.644 10.644 0 0 1 1.688 5.637 5.47 5.47 0 0 1-.31 2.05 7.233 7.233 0 0 1-1.226 1.897l-.012.005zm-4.046 19.847a4.47 4.47 0 0 1-1.941-.366 6.335 6.335 0 0 1-2.026-1.844l-2.538-3.09a7.832 7.832 0 0 1 3.473-1.68 7.768 7.768 0 0 1 3.843.19 9.429 9.429 0 0 1 5.239 4.1.972.972 0 0 1 .09.988c-.507.994-3.095 1.514-5.16 1.656-.299.023-.642.046-.98.046zm13.32-10.68c-.028.2-.05.406-.062.605-.011.2 0 .406 0 .606.009.442-.037.883-.135 1.313a5.457 5.457 0 0 1-1.322 2.062l-.04.046a28.876 28.876 0 0 1-1.992 2.096c-.472.434-.804.72-1.091.72h-.08c-.235-.04-.466-.292-.736-.812a10.268 10.268 0 0 1-1.08-5.87 4.678 4.678 0 0 1 .753-2.257 6.65 6.65 0 0 1 .872-.913l3.067-2.782 1.328 2.376c.25.393.44.823.563 1.274.066.51.051 1.03-.045 1.536z"/>
    </g>
    <defs>
        <clipPath id="a">
            <path fill="#fff" d="M0 0h71v74H0z"/>
        </clipPath>
    </defs>
</svg>
