<svg width="71" height="70" fill="none" xmlns="http://www.w3.org/2000/svg">
    <path d="M64.596 58.312c-.427.478-.91.902-1.44 1.262-2.485 1.674-5.952 1.674-8.771 2.534-1.943.609-3.629 1.725-5.639 2.267-1.345.368-2.713.636-4.086.876-.687.117-1.374.251-2.066.335-.543.006-1.084.055-1.619.145-.73.271-1.489.459-2.26.559-5.02.3-10.056.08-15.03-.66-1.328-.172-2.635-.825-3.907-1.16-.816-.213-1.709-.324-2.496-.592-.787-.268-1.362-.787-2.267-.664-1.116.14-2.11 1.01-3.176 1.34-1.245.385-2.702.614-2.842 2.126-.15 1.714 1.318.966 2.362.743 1.451-.318 2.032-1.39 3.316-1.898.502.497 1.831.636 2.624 1.021a5.025 5.025 0 0 0 2.317.765c1.384.134 2.663.715 4.008 1.022 5.538 1.25 11.338 1.178 16.955.519 2.624-.307 5.32-.62 7.782-1.535 2.73-1.016 5.65-1.848 8.458-2.635 1.35-.38 2.523-1.318 3.908-1.809a55.216 55.216 0 0 0 5.583-2.39c.675-.329 1.803-2.634 2.132-3.444.424-1.038.346-2.272.609-3.35a18.02 18.02 0 0 0 .519-3.567 15.559 15.559 0 0 0-1.675-8.045c.463-.714-.977-2.735-1.379-3.511-1.329-2.557-3.048-4.89-4.087-7.62-1.244-3.283-3.6-5.472-5.789-8.123a31.298 31.298 0 0 1-2.15-3.384c-1.674-2.484-3.907-4.421-5.95-6.604a1627.715 1627.715 0 0 0-6.99-7.347c-1.814-1.898-3.634-3.5-6.297-3.88-2.987-.424-6.03-.156-9.039-.324-2.707-.15-5.41-.709-8.028.335-.865.34-2.049.598-2.735 1.29-.558.558-.609 1.183-.838 1.97-.485 1.675-1.479 3.406-1.574 5.198a49.333 49.333 0 0 1-.558 4.94c-.201 1.285-.888 3.607.044 4.73 1.011 1.216 3.406 1.004 4.796 1.523 1.798 3.171 4.438 1.424 6.85.045a24.86 24.86 0 0 1 6.342-2.518c1.284-.318 1.809-1.206 2.886-1.73a21.714 21.714 0 0 1 2.233 3.991 12.68 12.68 0 0 1 1.245 4.271c.151 1.563.648 3.043.648 4.645 0 1.016.558 2.925.1 3.696-1.674-.346-3.35-.849-5.024-.849-1.262 0-2.607.156-3.908.212a18.946 18.946 0 0 0-7.168 1.675 16.798 16.798 0 0 1-3.863 1.184c-2.607-2.39-5.025-4.037-8.453-5.025-2.383-.709-5.694-1.066-8.14-.396 0 .134.118.117.196.19-.904 1.674.692 1.557 1.976 1.674 1.61.087 3.205.36 4.751.816 1.48.507 2.909.887 4.048 1.914 1.038.933 2.333 1.525 3.517 2.29 1.184.764 1.725 1.674 3.182 1.205a10.16 10.16 0 0 0 2.49-.971 8.052 8.052 0 0 1 2.294-1.206c2.954-.871 5.488-1.675 8.576-1.117a22.276 22.276 0 0 1 12.042 6.482c1.004 1.055 1.646 3.07 2.947 3.724 2.39 1.194 1.485-1.899.52-2.825-1.352-1.307-2.485-2.792-3.68-4.22a26.598 26.598 0 0 0-3.991-3.976c.407-2.975-.05-5.689-.503-8.642A19.789 19.789 0 0 0 38.09 20.6a55.337 55.337 0 0 0-2.981-4.957c-.05-.982 1.379-3.668.312-4.41-1.245-.871-2.004 1.379-2.339 2.233-.558 1.418-1.647 1.675-2.953 2.205-1.91.731-3.422 2.071-5.22 2.987-.828.374-1.687.674-2.568.898-.508.157-2.233.994-2.68.843-.726-.234-.703-.97-1.24-1.395a4.588 4.588 0 0 0-1.92-.71c-1.345-.323-2.093-.295-1.987-1.886.179-2.624 1.077-4.846 1.48-7.425.178-1.19.228-4.07 1.35-4.662a5.51 5.51 0 0 1 2.423-.949c.933 0 1.77.558 2.714.558.943 0 1.998-.111 2.986-.111 3.076 0 6.091.29 9.145.525 1.82.145 2.601 1.021 3.952 2.07 1.53 1.19 3.2 2.033 4.405 3.602 3.44 4.466 6.923 8.932 10.557 13.253a103.012 103.012 0 0 1 6.604 8.475c1.82 2.685 4.416 5.995 5.293 9.15.826 2.992.77 6.185 1.546 9.172.715 2.68-.418 6.074-2.372 8.246z" fill="#1D1D1B" stroke="#1D1D1B" stroke-width="1.2" stroke-miterlimit="10"/>
    <path d="M16.65 51.015c-.637-.497-1.675-.43-1.977.425-.34 1.016 1.005 2.149 1.798 2.646 1.116.714 2.551.932 3.763 1.496 1.407.648 2.758 1.334 4.22 1.876 1.463.541 2.847 1.116 4.422 1.2a28.72 28.72 0 0 0 4.466-.24 11.774 11.774 0 0 0 3.305-.798c1.15-.486 2.4-.66 3.55-1.117a17.489 17.489 0 0 0 2.569-1.49 18.51 18.51 0 0 0 2.434-1.96c1.641-1.53.033-2.69-1.614-1.636-1.987 1.279-4.466 1.787-6.643 2.758-2.283 1.027-4.628 1.91-7.146 1.91a12.044 12.044 0 0 1-3.478-.285 22.2 22.2 0 0 1-2.964-1.195c-1.117-.502-2.3-.983-3.417-1.513a14.003 14.003 0 0 1-2.127-1.58 1.836 1.836 0 0 0-1.161-.497z" fill="#1D1D1B" stroke="#1D1D1B" stroke-width="1.2" stroke-miterlimit="10"/>
</svg>
