<svg width="55" height="82" fill="none" xmlns="http://www.w3.org/2000/svg">
    <g clip-path="url(#a)" fill="#010101" stroke="#1D1D1B" stroke-width="1.2" stroke-miterlimit="10">
        <path d="M28.874 31.928c0 .583.094.706.115.725.134.009.27.009.405 0l1.397-.031c.12-.752.168-1.512.142-2.272-.02-.76.02-1.522.122-2.278.215-1.585.342-3.18.378-4.777a23.026 23.026 0 0 0 0-3.549 64.555 64.555 0 0 1-.223-7.742V8.602a73.694 73.694 0 0 0-.615-8.24h-.074a2.919 2.919 0 0 0-1.14.258l-.102.105c-.08.091-.169.177-.263.257l-.095.08v.05a6.202 6.202 0 0 0-.358 1.89c-.02.886-.099 1.77-.236 2.647l-.04.295c-.04.319-.102.614-.17.945-.09.389-.15.783-.181 1.179 0 .669.091 1.335.27 1.983.647 2.33.9 4.736.749 7.135a76.858 76.858 0 0 0-.142 9.904h-.675.675c.02 1.59.06 3.205.06 4.838z"/>
        <path d="M.756 57.36a1.17 1.17 0 0 0-.283.08c.239.516.614.969 1.093 1.32.858.688 1.648 1.43 2.417 2.15.77.717 1.35 1.282 2.1 1.878.925.767 1.822 1.609 2.7 2.42.567.527 1.12 1.043 1.681 1.54a23.15 23.15 0 0 1 1.904 1.983l.047.05c.452.51.918 1.031 1.404 1.498.786.721 1.62 1.398 2.498 2.026l.85.614c1.315.89 2.517 1.91 3.585 3.04.885 1.006 1.695 1.915 2.593 2.787l.216.209c.918.896 3.294 3.217 4.469 2.554.37-.246.697-.54.972-.872l.257-.282c1.735-1.892 3.888-4.237 6.454-5.428a29.76 29.76 0 0 0 4.604-3.991 39.924 39.924 0 0 1 5.69-5.072c2.364-1.842 4.767-3.727 6.428-6.072.26-.346.543-.678.844-.995a6.935 6.935 0 0 0 1.228-1.584 1.97 1.97 0 0 0-.459-.135 13.691 13.691 0 0 0-3.105-.086c-.493 0-1.128.043-1.762.043l-8.054-.123a1.969 1.969 0 0 1-.727-.1 1.836 1.836 0 0 1-.623-.354 1.6 1.6 0 0 1-.426-.835 27.858 27.858 0 0 1-.472-8.627c.06-.614.148-1.265.236-1.898a18.77 18.77 0 0 0 0-6.858l-.108-.81a52.697 52.697 0 0 1-.067-13.165 8.492 8.492 0 0 0-.142-2.407 12.436 12.436 0 0 1-.196-2.302v-.11c-.16.04-.322.072-.486.098-.233.038-.46.102-.675.19-.48.227-.675.718-.675 1.682l-.088 19.034v4.698c.054 4.666.324 9.412.587 14.011l11.065.11-.911 1.34a10.406 10.406 0 0 1-2.194 2.136c-.318.245-.635.497-.925.761L28.705 77.395c-.328.35-.793.57-1.296.614a2.103 2.103 0 0 1-.743-.183 1.938 1.938 0 0 1-.607-.431l-4.685-4.12a19.677 19.677 0 0 1-2.789-2.77c-.175-.226-.337-.46-.5-.693a8.469 8.469 0 0 0-1.059-1.314 5.756 5.756 0 0 0-1.438-.872 11.023 11.023 0 0 1-1.094-.565 13.21 13.21 0 0 1-2.167-1.78c-.27-.258-.54-.51-.81-.75a12.62 12.62 0 0 1-1.35-1.277c-.101-.122-.203-.245-.297-.374a4.954 4.954 0 0 0-.466-.54 4.267 4.267 0 0 0-.445-.35 2.833 2.833 0 0 1-.902-.805 2.535 2.535 0 0 1-.449-1.074l-.04-.675.675-.215c1.257-.288 2.56-.371 3.848-.246h.216c.369.018.738.018 1.107 0l3.376-.043c.117.01.234.01.35 0h1.317v-.11l.169-.142c.162-.988.243-2.014.317-2.922.061-.768.122-1.56.23-2.364.04-.32.101-.614.169-.946.092-.388.153-.782.182-1.179a7.646 7.646 0 0 0-.27-1.99 21.383 21.383 0 0 1-.743-7.128 36.647 36.647 0 0 0 0-5.9c-.047-.94-.108-2.008-.121-3.07-.034-1.99.074-3.991.182-5.931.068-1.26.142-2.671.169-4.035.027-1.363-.081-2.959-.19-4.427v-.085c-.094-1.198-.182-2.456-.202-3.648v-2.364c.034-2.72.068-5.526-.628-7.945a2.51 2.51 0 0 0-.54-1.086 2.836 2.836 0 0 0-1.012-.756.556.556 0 0 0-.183-.037c-.324.228-1.02 1.425-.398 7.694v.104c0 .295.054.528.06.682.034.614.082 1.228.13 1.842.22 2.155.258 4.323.114 6.484a59.826 59.826 0 0 0-.068 8.289c.08 2.586.012 5.174-.202 7.755a66.908 66.908 0 0 0-.182 7.896c.195 3.493.526 7.33 1.005 11.715l.04.362-.249.282c-.756.86-2.086 1.327-3.963 1.394-1.444.056-2.896 0-4.307-.067h-.115a65.013 65.013 0 0 0-3.159-.099H3.457a15.294 15.294 0 0 0-2.7.16z"/>
    </g>
    <defs>
        <clipPath id="a">
            <path fill="#fff" d="M0 0h55v82H0z"/>
        </clipPath>
    </defs>
</svg>
