<svg width="72" height="74" fill="none" xmlns="http://www.w3.org/2000/svg">
    <path d="M69.243 26.141c-.374-1.384-.843-2.758-1.3-4.092-1.117-3.272-2.334-6.42-4.891-9.055a33.216 33.216 0 0 0-5.209-4.5 29.327 29.327 0 0 0-3.199-2.077l-.82-.452-.073-.05a1.858 1.858 0 0 0-.273-.162h-.045l-.162-.095-.268-.156a5.94 5.94 0 0 1-.81-.592 6.626 6.626 0 0 0-.652-.491 8.526 8.526 0 0 1-.442-.34 8.862 8.862 0 0 0-1.116-.782 6.433 6.433 0 0 0-1.675-.654 10.131 10.131 0 0 0-1.742-.34l-.285-.05c-.524-.09-.977-.168-1.462-.218-.486-.05-.754-.168-1.117-.263l-.63-.161-.464-.118a8.373 8.373 0 0 0-1.144-.245h-.056a8.157 8.157 0 0 0-1.62-.218h-.234c-.452 0-.92-.04-1.412-.028h-.558c-.34 0-.687 0-1.05.05-.653 0-1.25.09-1.546.123-.96.11-1.9.356-2.792.731l-.558.213c-.24.1-.491.2-.754.29-.4.176-.812.322-1.233.435l-2.273.631c-.184.05-.357.112-.524.173a6.017 6.017 0 0 1-.559.173h-.05c-.286.116-.563.25-.832.402-.307.179-.558.346-.81.508l-.089.05a18.422 18.422 0 0 0-3.572 2.133l-.458.324c-.77.558-1.597 1.01-2.406 1.48-.72.418-1.536.893-2.278 1.406-3.456 2.4-6.013 4.93-7.816 7.732a6.81 6.81 0 0 0-.614 1.206l-.129.212c-.161.196-.334.413-.558.715a6.326 6.326 0 0 1-.273.474c-.1.162-.185.313-.268.475l-1.089 2.099c-.207.4-.444.785-.709 1.15a8.784 8.784 0 0 1-.413.642c-.15.218-.201.302-.302.463a10.394 10.394 0 0 0-1.306 2.58c-.095.29-.285.865-.43 1.457a12.242 12.242 0 0 0-.363 1.535c-.14.614-.229 1.172-.312 1.675a8.738 8.738 0 0 0-.123 1.602h.14l-.14.05c-.03.4-.03.801 0 1.2v1.112c0 .368.039.742.028 1.116-.05.525-.067 1-.084 1.502v.296a9.664 9.664 0 0 0 0 1.736c.01.622.111 1.239.302 1.831.138.426.314.839.524 1.234l.073.145c.05.106.106.212.15.313.107.273.23.54.37.798.17.315.314.643.429.983a.747.747 0 0 1 .056.161c.028.09.05.151.072.207.035.13.078.256.129.38l.312 1.01a29.24 29.24 0 0 0 1.346 3.495 33.384 33.384 0 0 0 3.35 6.068c.628.952 1.32 1.86 2.07 2.72l1.117 1.367c.318.396.692.787 1.055 1.167l.118.117.452.396c1.563 1.39 3.037 2.702 5.303 3.183l.179.039c.26.035.514.108.754.217.22.123.425.273.608.447.117.1.24.207.369.301.488.32 1.026.558 1.59.704.416.12.82.277 1.207.469.323.187.631.4.92.636.13.1.252.201.38.29 1.547 1.117 3.39 1.564 5.148 1.899 3.105.603 6.26.907 9.423.91h1.39a26.126 26.126 0 0 0 3.953-.413c.251-.045.491-.079.731-.112a4.12 4.12 0 0 0 2.457-.899l.14-.128c.163-.18.365-.322.591-.413a1.52 1.52 0 0 1 .285-.05 2.33 2.33 0 0 0 .324-.062 1.96 1.96 0 0 0 .686-.441c.076-.072.157-.139.24-.201.343-.24.72-.428 1.117-.559.486-.14.94-.376 1.334-.692l.184-.178c.111-.126.241-.234.386-.319.115-.055.237-.095.363-.117h.089a10.418 10.418 0 0 0 4.31-2.64 13.6 13.6 0 0 0 2.959-3.998c.093-.19.166-.39.217-.597l.078-.29.34-.23c.323-.13.618-.32.872-.558a25.334 25.334 0 0 0 5.309-6.425l.15-.268a14.978 14.978 0 0 0 1.575-3.422c.104-.439.17-.885.196-1.335 0-.273.027-.558.044-.815.006-.72.084-1.439.235-2.144.05-.2.1-.402.156-.603a9.972 9.972 0 0 0 .363-1.78v-1.005a8.735 8.735 0 0 1 0-1.01c.07-.594.198-1.18.38-1.748.083-.29.167-.558.24-.877.92-3.902-.414-8.876-1.296-12.17zM59.596 59.47a.754.754 0 0 0 .38.625c-.307.184-.62.358-.927.525-.665.348-1.301.747-1.904 1.195a46.714 46.714 0 0 1-5.303 3.78 44.982 44.982 0 0 1-4.6 2.327c-2.792 1.206-5.923 1.764-9.898 1.764-.642 0-1.296 0-1.938-.039a21.17 21.17 0 0 1-10.808-3.176c-.14-.09-.296-.168-.474-.263a10.832 10.832 0 0 1-.76-.435 11.36 11.36 0 0 0-1.29-.558l-.496-.174a13.783 13.783 0 0 1-2.334-.954c-.982-.637-2.428-1.597-3.735-2.585l-.675-.508.653-.558c.104-.083.2-.177.285-.28.508-.63 1.116-1.45 1.77-2.272l.29-.368c.52-.675 1.027-1.334 1.451-1.86a2.4 2.4 0 0 0 .268-2.489.558.558 0 0 0-.474-.34 1.116 1.116 0 0 0-.324.256 26.44 26.44 0 0 0-2.529 3.132 6.066 6.066 0 0 1-1.06 1.083l-.101.078a5.247 5.247 0 0 0-1.29 1.363l-.424.904-.877-.966a9.962 9.962 0 0 0-.48-.508c-.173-.167-.346-.363-.519-.558l-.1-.106c-.134-.15-.274-.302-.413-.447a8.002 8.002 0 0 1-.726-.87 7.308 7.308 0 0 0-.307-.392c-4.115-5.616-6.258-11.5-6.376-17.501-.078-4.02.062-8.603 2.686-12.115a29.4 29.4 0 0 0 .709-.971c.225-.29.427-.599.603-.921l.033-.056c.187-.278.35-.571.486-.877.076-.235.173-.463.29-.68v-.034c.045-.095.084-.173.123-.263.162-.357.301-.67.435-.915.1-.162.185-.28.274-.408.076-.101.145-.207.206-.318.154-.262.322-.515.503-.76l.167-.245c.095-.134.185-.257.257-.374.262-.384.5-.783.715-1.195a22.291 22.291 0 0 1 4.566-5.499 28.718 28.718 0 0 1 5.103-3.143 35.52 35.52 0 0 0 3.763-2.155l.396-.173.168-.061c.206-.078.39-.156.603-.246.312-.14.608-.262.938-.374.131-.042.26-.092.385-.15l.396-.162c.335-.101.692-.18 1.033-.252l.218-.056.106-.027c.253-.068.51-.119.77-.151.3-.064.594-.155.877-.274h.055a6.566 6.566 0 0 0 1.039-.407c.346-.145.692-.307 1.05-.47l.234-.105a10.804 10.804 0 0 1 2.378-.827c.408-.089.826-.156 1.407-.228.308-.062.62-.105.932-.129h.095l.33-.033h.318a3.06 3.06 0 0 1 .519 0h.285c.087.01.175.01.262 0h.073c.143-.008.286-.008.43 0h.357l1.77.229c.127.042.261.064.396.067H42.519c.097.022.196.036.296.044.16.012.319.038.474.078l.274.056h.078c.134 0 .273.045.419.084l1.546.167a8.597 8.597 0 0 1 1.675.274c.586.09 1.152.28 1.675.558l.228.123c.151.084.33.179.53.307h.046c.117.095.229.179.34.257a5.7 5.7 0 0 1 .38.29l.1.084c.149.131.307.25.475.357l.078.056c.216.204.447.39.692.558l.402.24c.38.23.737.441 1.083.676.477.281.937.589 1.38.921l.334.246c.357.257.77.558 1.172.899a26.89 26.89 0 0 1 2.088 1.864l.47.463-.453.48c-.29.297-.558.626-.848.955-.387.478-.81.924-1.268 1.335-1.172.938-3.221 2.992-3.65 3.941a8.442 8.442 0 0 0-.766 2.462c-.053.28-.018.568.1.826a.319.319 0 0 0 .101.117l.062.028c.39.05 1.245-.653 2.5-2.082.157-.184.269-.313.353-.396 1.395-1.452 3.556-3.953 4.84-5.527l.519-.637.52.637c.083.106.172.206.261.312l.062.067c.255.282.49.58.703.894.134.2.28.396.419.591.14.196.318.436.463.66.146.222.263.379.414.585.15.207.334.453.468.665l.732 1.116.067.1a47.432 47.432 0 0 1 2.574 5.756c.236.836.395 1.692.474 2.557l.067.52c.558 4.287.43 8.452.218 13.069a31.302 31.302 0 0 1-.514 4.98 24.006 24.006 0 0 1-2.607 6.699 22.819 22.819 0 0 1-3.517 4.56c-.33.358-.659.715-.988 1.09-.263.26-.427.603-.464.97z" fill="#1D1D1B" stroke="#1D1D1B" stroke-width="1.2" stroke-miterlimit="10"/>
    <path d="m53.741 34.783-.173-.363-.056-.122a196.144 196.144 0 0 1-3.556-8.134c-.307-.748-.614-1.502-.915-2.234l-.425-1.049-1.876-4.667c-.49-1.228-1.049-2.624-2.076-3.512a.714.714 0 0 0-.212-.15H44.346l-.324.212-.257.167a6.02 6.02 0 0 1-2.468.698l-.558.078c-1.943.302-3.768 1.184-5.532 2.032L24.7 22.81a3.73 3.73 0 0 0-2.094 2.115c-.26.639-.473 1.295-.636 1.965-.134.492-.285 1.056-.486 1.597a13.8 13.8 0 0 1-.67 1.474 12.556 12.556 0 0 0-.692 1.563l-2.004 5.868-.034.167-.19.837V38.602a1.571 1.571 0 0 0-.066.452 4.623 4.623 0 0 0 .25 2.122c.092.17.195.334.308.49.061.085.123.18.184.274a17.38 17.38 0 0 1 1.597 3.596c.24.658.485 1.345.748 1.942l.324.737c.72 1.642 1.535 3.495 2.473 5.187a.66.66 0 0 0 .078.123l.073.095.234-.118.357.687-.608.318.837.056c.274.765 2.055 3.35 2.574 3.712h.039c.183.045.37.067.558.068 1.586 0 4.165-1.223 5.79-1.994.418-.2.798-.385 1.116-.524.514-.224 1.016-.453 1.519-.681 1.761-.86 3.589-1.58 5.465-2.15a50.45 50.45 0 0 0 4.494-1.54c.318-.129.636-.224.91-.313.983-.307 1.424-.47 1.736-1.117.087-.168.187-.329.302-.48.05-.072.1-.145.145-.223a62.494 62.494 0 0 0 2.652-7.258c.558-1.675 1.116-3.405 1.725-5.058.227-.459.335-.968.312-1.48a3.087 3.087 0 0 0-.279-.742zM42.576 18.242c-.155.399-.262.815-.318 1.24a8.228 8.228 0 0 1-.185.842 9.77 9.77 0 0 1-1.284 2.495c-.128.196-.257.391-.38.592a16.233 16.233 0 0 0-1.808 4.243l-.1.363-.358.1c-.812.226-1.609.506-2.384.838-.245.106-.48.223-.72.34h-.033c-.659.349-1.35.63-2.066.838a10.64 10.64 0 0 1-1.116.2h-.101c-.24.034-.491.068-.737.124a11.48 11.48 0 0 0-2.847 1.194l-8.447 4.467.854-1.81c.118-.256.23-.518.34-.786.163-.386.341-.821.56-1.229.105-.195.217-.385.334-.558.157-.253.3-.514.43-.781a7.639 7.639 0 0 0 .463-1.982c.04-.268.073-.53.123-.788a5.45 5.45 0 0 1 1.373-2.875c1.072-1.155 2.54-1.596 3.959-2.02.754-.202 1.49-.467 2.2-.793a13.04 13.04 0 0 0 1.378-.826c.33-.218.737-.492 1.15-.72a18.25 18.25 0 0 1 3.568-1.396 17.864 17.864 0 0 0 3.35-1.295l.323-.185a6.07 6.07 0 0 1 1.77-.781l1.323-.263-.614 1.212zM22.048 37.39a137.925 137.925 0 0 1 3.233-1.564c2.07-.977 4.248-1.96 6.174-2.825l6.945-3.126.324.402a20.827 20.827 0 0 1 2.858 5.387c1.44 3.506 2.937 7.135 4.176 10.82.153.474.34.937.558 1.384l.38.737-.798.218c-.743.2-1.363.374-2.021.603-1.245.44-2.496 1.01-3.719 1.569-1.021.463-2.076.943-3.115 1.345l-5.856 2.3a6.092 6.092 0 0 1-2.088.525 1.898 1.898 0 0 1-1.223-.39 3.506 3.506 0 0 1-.904-1.726 5.396 5.396 0 0 0-.268-.748l-1.931-3.478c-.363-.659-.726-1.334-1.117-2.015v-.05c-.932-1.726-1.893-3.501-2.92-5.12a5.747 5.747 0 0 0-.268-.374 5.625 5.625 0 0 1-.525-.81 5.147 5.147 0 0 1-.307-.792c-.061-.179-.122-.369-.2-.559l-.37-.815.889-.117a7.314 7.314 0 0 0 2.093-.781zm23.816 4.695c-.134-.18-.268-.352-.396-.53-1.312-1.837-1.899-4.004-2.462-6.097a29.177 29.177 0 0 0-1.184-3.724 13.71 13.71 0 0 0-1.524-2.652l-.229-.323.179-.358a62.862 62.862 0 0 0 3.322-8.005c.11-.31.197-.627.262-.95l.491-2.74.804 2.662a26.056 26.056 0 0 0 2.58 5.365c1.116 1.915 2.232 3.908 2.83 6.086.067.256.128.519.19.792.117.572.283 1.132.497 1.675.067.15.145.302.223.458l.039.078c.324.546.527 1.155.597 1.787a4.555 4.555 0 0 1-.257 1.568c-.256.877-.44 1.826-.62 2.747-.362 1.865-.736 3.796-1.713 5.415l-.296.475-.24.396-.687 1.117-.508-1.229a13.907 13.907 0 0 1-.458-1.172 9.3 9.3 0 0 0-.759-1.92c-.2-.323-.42-.633-.659-.927l-.022.006z" fill="#1D1D1B" stroke="#1D1D1B" stroke-width="1.2" stroke-miterlimit="10"/>
</svg>
