<svg width="78" height="77" fill="none" xmlns="http://www.w3.org/2000/svg">
    <g clip-path="url(#a)" fill="#1D1D1B">
        <path d="M76.656 44.645c-.257-.953-.583-1.902-.9-2.826-.773-2.26-1.618-4.44-3.38-6.259a22.912 22.912 0 0 0-3.608-3.108 20.765 20.765 0 0 0-2.21-1.439l-.57-.312-.05-.033c-.085-.051-.144-.093-.19-.114h-.03l-.11-.064-.186-.11a4.43 4.43 0 0 1-.562-.421 4.39 4.39 0 0 0-.456-.342l-.304-.232c-.241-.204-.5-.386-.773-.544a4.426 4.426 0 0 0-1.154-.451 7.189 7.189 0 0 0-1.208-.236l-.194-.034c-.364-.059-.676-.114-1.014-.152-.338-.038-.52-.114-.778-.181l-.422-.11-.321-.084a5.994 5.994 0 0 0-.79-.165h-.042a6.14 6.14 0 0 0-1.12-.147h-.165c-.313 0-.634-.03-.976-.021h-.372c-.236 0-.473 0-.726.033-.452 0-.866.06-1.07.085a6.98 6.98 0 0 0-1.922.506l-.38.147c-.169.068-.342.14-.524.199a5.456 5.456 0 0 1-.845.3l-1.576.42-.363.119-.376.122h-.034c-.198.08-.39.172-.574.279-.216.122-.423.24-.566.354l-.06.034c-.877.398-1.707.891-2.475 1.472l-.317.223c-.533.371-1.103.7-1.665 1.025-.562.325-1.06.616-1.58.974a19.322 19.322 0 0 0-5.408 5.34 4.43 4.43 0 0 0-.422.844l-.114.135c-.135.157-.26.322-.376.493-.055.102-.123.215-.19.33-.068.113-.131.214-.186.324l-.757 1.45a6.091 6.091 0 0 1-.49.798 3.51 3.51 0 0 1-.283.422c-.101.13-.143.21-.211.32a7.032 7.032 0 0 0-.904 1.785c-.068.198-.194.594-.296 1.003a8.28 8.28 0 0 0-.253 1.063c-.098.422-.161.814-.216 1.152-.064.367-.092.74-.084 1.113h.097l-.097.038a5.4 5.4 0 0 0 0 .844v.763c0 .249.03.51.02.772-.033.367-.046.692-.063 1.038v.206c-.035.399-.035.8 0 1.198.01.43.081.856.212 1.266.095.291.216.573.363.843l.05.105c.034.072.073.144.102.211.075.19.162.374.258.553.117.218.217.446.3.679l.038.114c0 .063.034.101.046.143.025.089.055.176.089.262l.215.696c.261.825.573 1.634.934 2.42a23.454 23.454 0 0 0 2.32 4.193 17.61 17.61 0 0 0 1.432 1.877l.769.95c.224.273.481.543.735.805l.08.08.313.278c1.081.962 2.112 1.869 3.671 2.198l.127.03c.358.033.69.195.938.455.084.071.169.147.258.21.339.221.711.386 1.102.49.292.08.575.187.845.32.224.124.437.265.638.422l.262.198c1.073.79 2.35 1.08 3.566 1.312 2.15.415 4.334.626 6.523.629h.964a17.97 17.97 0 0 0 2.737-.287c.173-.034.343-.055.507-.076a2.859 2.859 0 0 0 1.69-.624l.097-.089c.12-.124.264-.222.423-.287.065-.016.132-.027.198-.033.27-.024.52-.147.702-.346a1.31 1.31 0 0 1 .165-.14c.24-.162.503-.287.781-.37a2.87 2.87 0 0 0 .921-.481l.127-.123c.078-.086.168-.161.266-.223.081-.037.166-.064.254-.08h.059a7.243 7.243 0 0 0 2.92-1.785 9.334 9.334 0 0 0 2.048-2.762c.067-.135.118-.276.152-.422l.051-.203.237-.156a2.07 2.07 0 0 0 .604-.388 17.439 17.439 0 0 0 3.675-4.445l.106-.186c.464-.737.83-1.53 1.09-2.362.07-.304.115-.612.135-.923 0-.186.021-.376.03-.561.006-.5.061-.997.165-1.485.033-.14.071-.278.105-.422.206-.62.293-1.272.258-1.923a6.439 6.439 0 0 1 0-.7c.05-.41.14-.814.266-1.207.06-.202.114-.405.165-.607.62-2.661-.304-6.103-.913-8.38zm-6.68 23.042a.53.53 0 0 0 .263.422c-.212.126-.423.245-.638.363a9.656 9.656 0 0 0-1.323.843 32.044 32.044 0 0 1-3.663 2.611 30.384 30.384 0 0 1-3.181 1.607c-1.926.843-4.102 1.223-6.857 1.223-.444 0-.896 0-1.343-.03a14.61 14.61 0 0 1-7.479-2.193l-.33-.181c-.168-.093-.341-.186-.527-.3a6.832 6.832 0 0 0-.892-.375l-.342-.118a9.755 9.755 0 0 1-1.618-.662 30.355 30.355 0 0 1-5.023-4.083l-.36-.384-.067-.076a6.515 6.515 0 0 0-.287-.308 5.425 5.425 0 0 1-.499-.599l-.215-.274c-2.848-3.88-4.331-7.95-4.411-12.096-.055-2.776.038-5.947 1.854-8.373.174-.232.347-.464.49-.67.16-.201.301-.416.423-.641l.025-.034c.129-.193.24-.396.334-.608.057-.161.124-.32.203-.472v-.025c.034-.063.06-.118.089-.181.11-.245.207-.46.3-.629.093-.169.126-.194.19-.283.063-.088.101-.147.143-.219.123-.207.241-.38.347-.527l.118-.169.178-.257c.18-.272.346-.553.494-.844a15.28 15.28 0 0 1 3.16-3.796 19.863 19.863 0 0 1 3.536-2.172 24.603 24.603 0 0 0 2.603-1.493l.275-.118.118-.042c.144-.05.266-.11.422-.173.216-.093.423-.181.651-.257.097-.03.173-.064.266-.102l.275-.114c.232-.067.481-.122.714-.172l.152-.038h.076c.174-.051.352-.087.532-.106.206-.047.408-.11.604-.19h.038c.248-.074.49-.167.723-.278.236-.101.477-.215.722-.325l.165-.076a7.395 7.395 0 0 1 1.648-.57c.283-.062.57-.109.971-.16.214-.04.43-.07.647-.088h.068l.228-.021H55.185c.12-.011.24-.011.36 0h.173c.06.005.12.005.181 0h.609l1.23.156a.81.81 0 0 0 .274.046h.156c.067.015.135.025.203.03.111.01.221.028.33.055.059 0 .126.025.19.038h.055c.093 0 .19.033.291.055l1.069.118c.397.023.79.087 1.175.19.41.061.805.194 1.17.392l.156.084c.11.06.232.122.372.21h.03l.236.182c.091.06.179.127.262.198l.068.055c.103.092.213.175.33.25l.054.037c.151.136.312.26.482.371l.274.169c.266.156.511.304.752.464.33.197.648.411.955.641l.228.165c.283.194.555.402.816.624a18.549 18.549 0 0 1 3.874 3.965c.093.139.19.274.287.421.097.148.224.304.321.46l.288.422c.126.173.228.316.32.46.182.274.347.527.512.784l.042.063a33.245 33.245 0 0 1 1.787 3.982c.16.578.269 1.17.326 1.767l.046.359c.385 2.952.296 5.841.152 9.03a22.155 22.155 0 0 1-.355 3.446 16.708 16.708 0 0 1-1.804 4.614 15.878 15.878 0 0 1-2.438 3.155 40.53 40.53 0 0 0-.684.75 1.084 1.084 0 0 0-.363.646v-.02z" stroke="#1D1D1B" stroke-width="1.1" stroke-miterlimit="10"/>
        <path d="M27.8 48.728c.769-.181 1.804-.261 2.535-.599.891-.422 1.03-2.252-.27-1.906l-.271.093-.279.1c-.236.064-.486.106-.722.148l-.148.03h-.08c-.177.04-.357.069-.537.084a3.89 3.89 0 0 0-.613.16h-.038c-.25.065-.494.148-.73.25l-.736.295-.169.067a7.458 7.458 0 0 1-1.669.506c-.283.05-.574.085-.976.118-.19.034-.422.047-.65.064h-.529a1.71 1.71 0 0 1-.358 0h-.174a1.254 1.254 0 0 0-.185 0h-.347a1.822 1.822 0 0 0-.245 0l-1.221-.207a.744.744 0 0 0-.27-.055h-.034l-.123-.025c-.063 0-.126-.026-.202-.038a2.111 2.111 0 0 1-.326-.068l-.19-.046h-.055l-.287-.067-1.065-.165a6.11 6.11 0 0 1-1.166-.232 3.769 3.769 0 0 1-1.153-.422l-.152-.088c-.106-.064-.229-.135-.364-.228l-.03-.025-.227-.186c-.09-.072-.178-.14-.254-.21l-.063-.06c-.112-.09-.23-.17-.355-.24l-.055-.038a4.129 4.129 0 0 0-.46-.392l-.275-.178a15.766 15.766 0 0 1-.731-.497c-.321-.208-.63-.433-.925-.675l-.224-.177c-.245-.19-.52-.422-.79-.654a18.701 18.701 0 0 1-3.706-4.12 14.47 14.47 0 0 0-.274-.423 9.232 9.232 0 0 1-.3-.472c-.093-.16-.173-.266-.27-.422-.098-.156-.216-.32-.305-.468l-.477-.801-.038-.072a31.864 31.864 0 0 1-1.623-4.05 9.777 9.777 0 0 1-.257-1.78l-.03-.358c-.266-2.973-.059-5.85.216-9.03a21.86 21.86 0 0 1 .494-3.425 16.588 16.588 0 0 1 2.003-4.538 15.855 15.855 0 0 1 2.56-3.054c.236-.236.473-.472.714-.721.205-.171.342-.41.384-.675a.535.535 0 0 0-.245-.443c.216-.118.423-.232.655-.337.471-.22.923-.478 1.352-.772a32.056 32.056 0 0 1 3.773-2.463 30.731 30.731 0 0 1 3.249-1.476c1.956-.755 4.144-1.055 6.9-.945.443 0 .89.046 1.338.084a14.668 14.668 0 0 1 7.386 2.497c.097.063.202.127.32.194.119.068.334.198.516.325.283.158.575.299.875.422l.338.13c.55.197 1.083.44 1.592.726a30.401 30.401 0 0 1 4.85 4.285c.11.118.224.257.343.397l.063.08c.089.105.182.215.275.316.171.198.33.407.477.624.068.093.131.19.199.279 2.691 3.994 4.01 8.119 3.92 12.265a18.948 18.948 0 0 1-.236 3.353c-.131.658-.655 1.894.215 2.29 1.69.772 1.538-1.834 1.55-2.661h-.096l.101-.034c.03-.28.042-.562.034-.843v-1.536c.05-.367.076-.691.105-1.037v-.207c.058-.396.082-.797.072-1.198a4.585 4.585 0 0 0-.16-1.265 5.311 5.311 0 0 0-.33-.869l-.042-.101-.097-.22a4.565 4.565 0 0 0-.233-.56 4.22 4.22 0 0 1-.27-.692 1.17 1.17 0 0 1-.038-.114c0-.063-.025-.105-.038-.143a2.985 2.985 0 0 0-.08-.27l-.186-.705a20.13 20.13 0 0 0-.845-2.455 23.224 23.224 0 0 0-2.142-4.28 17.726 17.726 0 0 0-1.36-1.936l-.727-.979c-.212-.283-.46-.561-.702-.844l-.076-.088-.3-.287c-1.043-1.004-2.028-1.953-3.578-2.35l-.127-.029a2.178 2.178 0 0 1-.515-.173 1.93 1.93 0 0 1-.423-.325c-.08-.075-.16-.151-.245-.219a3.768 3.768 0 0 0-1.086-.531 5.074 5.074 0 0 1-.82-.355 5.148 5.148 0 0 1-.616-.468c-.085-.071-.17-.143-.258-.21-1.035-.844-2.298-1.173-3.506-1.456A34.651 34.651 0 0 0 23.33.253l-.96-.025c-.918-.01-1.836.048-2.745.177a7.84 7.84 0 0 1-.512.055 2.877 2.877 0 0 0-1.723.552l-.102.089c-.12.118-.264.21-.422.266a.936.936 0 0 1-.195.03 1.41 1.41 0 0 0-.228.029c-.18.061-.347.159-.49.286-.053.048-.11.091-.169.131a2.994 2.994 0 0 1-.794.342c-.34.085-.66.236-.942.443l-.135.118c-.08.083-.173.153-.275.206a1.11 1.11 0 0 1-.254.076h-.063a7.232 7.232 0 0 0-2.987 1.662 9.442 9.442 0 0 0-2.159 2.678 1.79 1.79 0 0 0-.169.422l-.059.198-.245.148a2.041 2.041 0 0 0-.617.363 17.303 17.303 0 0 0-3.853 4.294l-.114.177a10.028 10.028 0 0 0-1.183 2.32c-.085.3-.142.608-.173.919 0 .186-.038.371-.055.557-.026.498-.1.992-.224 1.476-.038.14-.08.274-.123.422a6.588 6.588 0 0 0-.3 1.219 6.38 6.38 0 0 0-.038.691c.002.234-.01.468-.033.7a6.547 6.547 0 0 1-.317 1.194c-.064.203-.131.4-.186.6-.748 2.665.038 6.14.558 8.435.215.965.502 1.927.781 2.86.68 2.29 1.432 4.504 3.127 6.394a22.966 22.966 0 0 0 3.48 3.251 20.397 20.397 0 0 0 2.151 1.527l.554.334.05.033c.06.045.122.085.186.123h.03l.11.071.181.114c.192.127.374.268.545.422.134.128.275.248.423.358l.296.25c.233.209.483.399.748.569.353.22.735.389 1.136.502.39.129.79.223 1.196.282l.194.042c.363.076.672.144 1.006.194.26.057.516.127.768.211l.423.131.321.093c.255.086.517.152.782.198h.038c.364.1.738.164 1.115.194h.16c.313.025.639.05.977.06h.371c.242.012.485.012.727 0 .452 0 .87 0 1.073-.039a7.377 7.377 0 0 0 1.944-.422l.384-.135c.17-.059.346-.122.528-.177.31-.1.628-.171.95-.215z" stroke="#1D1D1B" stroke-width="1.1" stroke-miterlimit="10"/>
        <path d="M25.747 35.113c.359-.21.604-1.396.845-1.847.335-.645.604-1.322.802-2.02.528-1.629 1.344-3.168 1.864-4.767.296-.795.682-1.555 1.149-2.265.397-.65.422-1.24.612-1.995.182-.586.44-1.146.77-1.666a15.457 15.457 0 0 0 1.347-3.737 16.285 16.285 0 0 0-3.422.034c-.237.025-.95 2.404-1.07 2.708-.367.953-.726 1.906-1.085 2.86a22.033 22.033 0 0 1-1.022 2.573c-.49.932-.66 2.108-1.04 3.116-.494 1.266-.912 2.607-1.36 3.91-1.268-2.109-1.69-4.403-2.582-6.714l-1.863-4.834a14.947 14.947 0 0 1-.997-3.303.472.472 0 0 0-.13-.32.466.466 0 0 0-.3-.063c-1.319.025-2.468.164-3.803.194.346.543.617 1.13.807 1.746.13.422.224.873.367 1.299.144.426.322.789.499 1.177a43.79 43.79 0 0 1 1.88 4.83c.46 1.437 1.234 2.732 1.627 4.196.422 1.649 1.377 3.13 2.032 4.707.236.57 1.842.228 2.42.232.533.017 1.23.215 1.653-.05zM60.788 50.922a.562.562 0 0 0 .123.122c.57.422 2.04.055 2.72.088 1.547.076 3.064-.059 4.593-.059 0 .73.304 1.633.059 2.32-1.145 0-2.298-.16-3.443-.059-1.15.159-2.31.208-3.469.148-1.17-.118-.76 2.037-.722 2.804.038.768.063 1.654.11 2.476.038.608.325 1.413.05 1.983-.228.476-.73.282-1.267.265-.241 0-2.113-.227-2.18-.054.21-.46.097-1.506.122-2.055.064-1.459-.198-2.982-.181-4.479 0-.713.122-1.379.118-2.109 0-.624-.258-1.792 0-2.324-.313-.843-.11-2.366-.118-3.277 0-1.312.118-2.602.118-3.93.786 0 1.576.024 2.357 0 3.317-.106 6.549-.06 9.874-.06.034.89.211 2.134-.064 2.978-1.613 0-3.286-.198-4.883-.118a27.54 27.54 0 0 1-4.001 0c.198 0-.077 2.442-.123 2.69-.101.574-.19 2.089.207 2.65zM54.336 60.837c.174-.118 0-1.168 0-1.548-.033-.81.026-1.62 0-2.429-.01-.78.03-1.558.119-2.332.072-.81-.36-1.742-.119-2.502-1.407.051-2.83 0-4.267 0-1.297 0-2.788-.468-4.026 0a7.339 7.339 0 0 0 .13 2.135c1.577 0 3.292.05 4.88 0 0 1.105-.029 2.15-.844 2.973-.816.823-1.496 1.392-2.628 1.611-1.133.22-2.087-.063-3.224-.476-.92-.338-2.112-.498-2.725-1.384a8.072 8.072 0 0 1-.612-1.294c-.258-.578-.715-1.072-.909-1.688a4.552 4.552 0 0 1 0-2.024c.093-.658 0-1.32.224-1.961.625-1.873 2.282-4.142 4.369-4.454 1.069-.16 2.4-.211 3.38.24.98.451 2.585 1.16 2.805 2.307.422.173 1.267 0 1.774 0 .596 0 1.268.203 1.293-.48.021-.444-.422-1.093-.667-1.439-1.352-2.037-3.38-3.087-5.801-3.374-1.944-.236-3.621-.333-5.366.725-1.83 1.11-3.828 2.46-4.749 4.488a7.374 7.374 0 0 0-.422 2.235c-.072.726-.634 2.746-.06 3.27a7.347 7.347 0 0 0 3.402 6.402 8.88 8.88 0 0 0 1.745.603c.507.186 1.005.422 1.533.557 2.113.56 4.36.683 6.207-.658.62-.452 1.846-1.658 1.787-2.383 0 1.046.194 2.028.181 3.036.524.022 2.21.093 2.59-.156z"/>
    </g>
    <defs>
        <clipPath id="a">
            <path fill="#fff" d="M0 0h78v77H0z"/>
        </clipPath>
    </defs>
</svg>
