<svg xmlns="http://www.w3.org/2000/svg" viewBox="0 0 470.62 514.49"><defs><style>.cls-1{fill:#fff;}</style></defs><title>Element 1</title><g id="Ebene_2" data-name="Ebene 2"><g id="Ebene_1-2" data-name="Ebene 1"><path class="cls-1" d="M.16,356.91c1-2.23,5.41-1.59,12.75,1a42.31,42.31,0,0,1,5.73,2.23c1.92.64,4.47,1.59,6.7,2.55,2.55,1,5.1,1.91,8,2.87,2.87,1.27,5.74,2.87,8.61,4.46s5.74,3.51,8.61,4.79c3.18,1.59,6.37,3.19,9.88,4.78,1.59,1,3.5,1.6,5.1,2.55s3.5,1.6,5.1,2.55c3.5,1.6,7.33,3.19,11.15,5.11s7.33,4.14,11.16,6.38c1.91.95,3.82,1.91,5.42,2.86,1.91.64,3.82,1.6,6,2.24a48.93,48.93,0,0,1,6.38,2.23c2.23,1,4.14,1.91,6,2.87,4.15,1.91,8,3.83,12.12,6.06,7.33,3.51,14.66,7,22,10.84,3.51,1.92,7.33,3.83,10.84,5.42,3.5,1.92,7,4.15,10.52,6.06,6.69,3.83,13.38,7.66,19.76,11.16,2.87,1.6,6.37,2.55,9.56,4.15a35.27,35.27,0,0,1,5.1,2.23c1.59,1,2.87,1.6,4.46,2.55,2.87,1.6,5.74,3.19,8.29,4.79,1.27.63,2.87,1.59,4.14,2.23,1.28,1,2.87,1.91,3.83,2.55,4.78,3.83,8.28,6.7,12.11,8.29s7.65,2.87,11.16,4.47a46.56,46.56,0,0,1,7,4.46c2.87,2.23,5.42,4.78,7.65,6.38a6.89,6.89,0,0,1,1.59,1.27c.64.32,1.28,1,1.91,1.28a26.52,26.52,0,0,0,3.83,2.55c4.78,3.51,8.61,6.7,12.11,9.57,6.7,5.42,9.88,9.57,9.24,11.16-.95,1.6-6,.32-13.7-3.19a139.15,139.15,0,0,1-13.39-7c-1.27-.63-2.55-1.59-3.82-2.23-.64-.32-1.28-.95-1.92-1.27a9.9,9.9,0,0,1-2.23-1.6c-2.87-1.91-5.42-4.46-8-6.38a31.84,31.84,0,0,0-5.41-3.5c-2.55-1.28-6.06-2.56-10.52-4.47a40.16,40.16,0,0,1-7-4.14c-2.24-1.6-4.15-3.51-6.38-5.11a38.48,38.48,0,0,0-7-4.78c-2.55-1.6-5.42-3.19-8.29-5.1-1.27-1-2.87-1.6-4.14-2.55-1.28-.64-2.87-1.6-4.15-2.24-2.87-1.27-6.37-2.55-9.88-4.46-6.69-3.83-12.43-8-19.44-12.12-3.51-2.23-6.69-4.46-9.88-6.38-3.51-1.91-7-3.82-10.52-6.06-7-4.14-14.34-8-21.36-11.8-4.14-2.23-8-4.14-11.79-6.37l-2.87-1.6-1.59-.63c-.32-.32-1-.32-1.28-.64a33.8,33.8,0,0,0-6-2.24,48.93,48.93,0,0,1-6.38-2.23c-2.23-1-4.14-1.91-6-2.87-3.83-2.23-7.65-4.14-11.16-6.06a115.83,115.83,0,0,0-11.16-4.46c-1.91-.64-3.82-1.6-5.73-2.23s-3.51-1.6-5.42-2.24c-3.51-1.59-7-2.87-10.2-4.46a67.62,67.62,0,0,1-9.56-4.78c-2.87-1.6-5.42-2.87-8.29-4.15l-7.65-2.87c-2.55-1-5.1-1.91-7-2.87a49.34,49.34,0,0,1-5.74-2.87C2.71,362-.8,359.14.16,356.91Z"/><path class="cls-1" d="M133.4.06c2.23-.64,5.73,4.14,10.2,13.71,1.27,2.23,2.23,5.1,3.5,7.65s2.55,5.74,4.46,8.93c1.6,3.19,3.51,6.7,5.1,10.53s3.19,8,4.79,12.43c1.59,4.15,2.86,8.61,4.78,12.76,1.91,4.46,3.82,8.93,6.05,13.71,1,2.23,2.23,4.79,3.19,7a71.64,71.64,0,0,0,3.51,7c2.55,4.79,5.1,9.89,7.65,15,2.55,5.42,4.46,10.84,7,16l3.82,7.65a49,49,0,0,0,4.78,7.34c1.6,2.55,3.51,5.1,5.1,7.65,1.6,2.87,2.87,5.42,4.47,8.29,2.86,5.42,5.73,10.84,8.92,16.26,5.42,9.89,11.16,19.46,16.58,29,2.86,4.79,5.41,9.57,8.28,14.36s5.42,9.88,8,14.35c5.42,9.24,10.52,18.17,15.62,26.78a132.56,132.56,0,0,0,8.61,11.48c1.59,1.92,2.86,4.15,4.46,6.06,1.27,1.92,2.55,3.83,3.82,5.74,2.55,3.83,4.79,7.66,7.33,10.85,1.28,1.91,2.24,3.5,3.51,5.42s2.23,3.83,3.19,5.42c3.82,7,7,12.76,10.52,16.9,3.5,4.46,7.65,8,10.83,11.8a69.81,69.81,0,0,1,6.7,9.25c2.86,4.46,4.78,8.29,7,11.48.64,1,1.27,1.59,1.59,2.23.64,1,1.28,1.6,1.92,2.55a58.35,58.35,0,0,0,3.82,4.78c4.78,6.38,9.24,12.12,13.07,16.27,7.65,8.93,12.75,14,11.79,15.63s-8.29-1.28-18.17-8.93c-5.1-3.83-10.2-8.93-15.93-15a55.37,55.37,0,0,1-4.15-4.79c-.63-1-1.59-1.59-2.23-2.55a17,17,0,0,1-2.23-2.87c-2.87-4.14-5.42-8.29-8-12.11-1.27-1.92-2.87-4.47-5.1-7.34-2.55-3.19-6.37-6.7-10.52-12.12a67.69,67.69,0,0,1-6.37-9.24c-1.92-3.19-3.51-6.7-5.42-9.89a78.81,78.81,0,0,0-5.74-9.89c-2.23-3.51-4.46-7.33-7-11.16-1.27-1.91-2.23-3.83-3.51-5.74a51.65,51.65,0,0,0-3.5-5.42c-2.55-3.83-5.74-7.65-8.61-12.44-5.42-8.93-9.88-17.86-15.3-27.74-2.55-4.79-5.1-9.57-7.33-14.35l-7.65-14.35c-5.1-9.89-10.52-19.78-15.62-29.66-2.87-5.42-5.73-10.84-8.6-16.58L204.16,156l-1-1.91-1-1.92c-1.27-2.55-3.18-4.78-4.78-7.33s-3.5-5.1-5.1-7.66c-1.59-2.87-3.18-5.74-4.46-8.29-2.55-5.42-4.78-10.84-7.33-15.94-2.55-4.79-5.1-9.57-8-14.67-1.27-2.55-2.87-4.79-3.82-7.34-1.28-2.55-2.24-4.78-3.51-7-2.23-4.79-4.46-9.25-6.69-13.72s-4.15-9.24-5.74-13.39-3.19-8-4.78-11.48a102.1,102.1,0,0,0-5.1-10.2c-1.6-3.19-3.19-6.7-4.46-9.89A63.13,63.13,0,0,1,135.63,17C132.12,6.75,131.16.69,133.4.06Z"/><path class="cls-1" d="M464.56,142c2.23,0,3.82,2.87,4.46,7.65a16.82,16.82,0,0,1,.32,4.15,33.06,33.06,0,0,0,.64,4.78,28.06,28.06,0,0,1,.64,5.42,47.65,47.65,0,0,1-.64,6.38,43.1,43.1,0,0,0-.64,6.38V191.4c0,2.55.32,5.1.32,8s-.64,5.42-1,8.29a18,18,0,0,0,0,4.15,21.84,21.84,0,0,0,.64,4.14c.32,1.28.64,2.87,1,4.47a20.78,20.78,0,0,1,0,4.46v8.61c0,5.42.32,10.53.32,15.95v8a56.86,56.86,0,0,1-.64,7.65c-.32,5.11-.64,9.89-1,14.67a48.05,48.05,0,0,0,1,6.7,13.05,13.05,0,0,1,.32,3.51v3.19c0,2.23-.32,4.14-.32,6.38v3.19a11.37,11.37,0,0,1-.64,3.19c-1,3.82-1.91,7-1.59,9.56s1.27,5.42,1.27,7.66a13.25,13.25,0,0,1-.64,5.42c-.63,2.55-1.59,4.46-1.91,6.37,0,.32-.32,1-.32,1.28,0,.64-.32,1-.32,1.6-.31,1-.31,1.91-.63,2.87-.64,3.82-1.92,7-2.55,9.88-1.6,5.42-3.51,8.61-5.42,8.61s-3.19-3.19-4.15-8.61c-.63-2.87-.32-6.06-.32-9.88v-4.47c0-.64,0-1.28.32-1.59a52.22,52.22,0,0,1,1.92-6.7,14.13,14.13,0,0,0,.64-4.15c0-1.91-.64-4.14-1-7.33a14,14,0,0,1,.64-5.11,34.57,34.57,0,0,1,1.59-5.41,26.68,26.68,0,0,0,.95-5.43c.32-1.91.32-4.14.64-6.06,0-.95.32-2.23.32-3.19V288c0-2.24-.64-4.47-.64-7,.32-4.78,1.28-9.57,1.6-15,.32-2.55,1-5.1,1.27-7.65s.32-5.1.64-7.66c.32-5.1.64-10.52,1-15.94,0-2.87.31-5.74.31-8.61V222a18.54,18.54,0,0,0-.63-4.14c-.32-1.28-.64-2.87-1-4.47a10.48,10.48,0,0,1,0-4.46,78.25,78.25,0,0,0,.64-8.29,31.4,31.4,0,0,0-1-7.66,15.9,15.9,0,0,1-.31-3.82,15.46,15.46,0,0,0-.32-3.83c0-2.55-.32-4.78-.32-7.34a25.79,25.79,0,0,1,.32-7,40.54,40.54,0,0,0,.32-6.06,31.3,31.3,0,0,0-.64-5.42,27.37,27.37,0,0,1-.32-5.1c0-1.6.32-2.87.32-4.15C461.05,144.52,462.33,142,464.56,142Z"/></g></g></svg>