<svg width="55" height="82" viewBox="0 0 55 82" fill="none" xmlns="http://www.w3.org/2000/svg">
<g clip-path="url(#clip0)">
<path d="M28.8739 31.9282C28.8739 32.5115 28.9684 32.6343 28.9887 32.6527C29.1235 32.6618 29.2589 32.6618 29.3937 32.6527L30.7912 32.622C30.9117 31.87 30.9592 31.1098 30.933 30.3502C30.9131 29.5892 30.9537 28.8279 31.0545 28.0722C31.2704 26.4869 31.3966 24.8924 31.4325 23.2953C31.5238 22.1138 31.5238 20.9279 31.4325 19.7464C31.2033 17.1711 31.1289 14.5864 31.2097 12.0038C31.2097 10.8556 31.2097 9.72585 31.2097 8.60222C31.1593 5.84787 30.9543 3.09764 30.5954 0.362305H30.5212C30.1247 0.371017 29.7351 0.459062 29.3803 0.620184L29.279 0.724564C29.1981 0.816139 29.1101 0.902329 29.0157 0.982453L28.9212 1.06228C28.9212 1.06228 28.9212 1.09297 28.9212 1.11139C28.7035 1.72306 28.5831 2.35986 28.5634 3.00251C28.5433 3.88815 28.4644 4.77187 28.3271 5.64885L28.2866 5.94358C28.2461 6.26286 28.1853 6.55759 28.1178 6.88915C28.0277 7.27789 27.9668 7.67176 27.9355 8.06802C27.9368 8.73662 28.0274 9.40259 28.2056 10.0513C28.8526 12.381 29.1053 14.7869 28.9549 17.186C28.6948 20.4819 28.6474 23.7889 28.8132 27.0898H28.1381H28.8132C28.8334 28.6801 28.8739 30.2949 28.8739 31.9282Z" fill="#010101" stroke="#1D1D1B" stroke-width="1.2" stroke-miterlimit="10"/>
<path d="M0.756185 57.3601C0.658103 57.3748 0.562712 57.4017 0.472656 57.4399C0.711594 57.9555 1.08736 58.409 1.56631 58.76C2.42368 59.4477 3.21355 60.1907 3.98316 60.9091C4.75277 61.6274 5.33334 62.1923 6.08269 62.7879C7.00758 63.5554 7.90545 64.3966 8.78308 65.2071C9.35015 65.7351 9.90373 66.2509 10.4641 66.7482C11.1409 67.3747 11.7766 68.0369 12.3678 68.7315L12.4151 68.7806C12.8674 69.2902 13.3332 69.8121 13.8193 70.2787C14.6052 71.0003 15.4394 71.677 16.3171 72.305L17.1677 72.919C18.4819 73.8091 19.6841 74.8283 20.7525 75.9583C21.6369 76.9652 22.447 77.8739 23.3449 78.7458L23.5609 78.9546C24.479 79.851 26.8554 82.172 28.03 81.5088C28.3995 81.2634 28.7271 80.9695 29.0022 80.6369L29.2587 80.3545C30.9937 78.4634 33.1473 76.1179 35.7126 74.9267C37.3947 73.7445 38.9376 72.407 40.3167 70.9357C42.0304 69.0829 43.9362 67.3845 46.0078 65.8641C48.3707 64.0221 50.774 62.1371 52.4347 59.7916C52.6959 59.4463 52.9776 59.1143 53.2786 58.7969C53.7682 58.3242 54.1818 57.7908 54.5073 57.2128C54.3614 57.1496 54.2071 57.1042 54.0482 57.0777C53.021 56.9313 51.9778 56.9025 50.9428 56.9917C50.45 56.9917 49.8153 57.0347 49.1807 57.0347L41.1269 56.9119C40.8796 56.9246 40.632 56.8908 40.3997 56.8127C40.1674 56.7345 39.9553 56.6136 39.7767 56.4575C39.5514 56.2211 39.404 55.9317 39.3514 55.6225C38.7458 52.7818 38.5867 49.8772 38.8788 46.9958C38.9395 46.3818 39.0273 45.7309 39.1151 45.0985C39.5363 42.8284 39.5363 40.5102 39.1151 38.2401L39.0071 37.4296C38.4344 33.0582 38.4118 28.6415 38.9396 24.2654C39.0071 23.4609 38.9594 22.6519 38.7978 21.8585C38.6611 21.0974 38.5956 20.3272 38.602 19.556V19.4455C38.4419 19.4857 38.2797 19.5185 38.116 19.5437C37.8832 19.5817 37.6564 19.6456 37.4409 19.7341C36.9616 19.9613 36.7658 20.4525 36.7658 21.4165L36.678 40.4505C36.678 42.0162 36.678 43.5819 36.678 45.1476C36.732 49.814 37.0021 54.5603 37.2653 59.1592L48.3301 59.2697L47.4188 60.6082C46.807 61.4148 46.0677 62.1348 45.2247 62.7449C44.9074 62.9905 44.5901 63.2423 44.2998 63.5063L28.7051 77.395C28.3769 77.7447 27.9121 77.9648 27.4089 78.009C27.1503 77.9934 26.8977 77.931 26.6659 77.8256C26.4341 77.7202 26.2277 77.5738 26.0587 77.395L21.3736 73.2751C20.3453 72.4386 19.4113 71.511 18.5854 70.5059C18.4099 70.2787 18.2479 70.0454 18.0859 69.8121C17.7804 69.3438 17.4254 68.9037 17.026 68.4981C16.5983 68.1425 16.1134 67.8485 15.588 67.6262C15.2116 67.4576 14.8464 67.269 14.4944 67.0614C13.7036 66.5405 12.9771 65.9435 12.3273 65.2808C12.0573 65.0229 11.7872 64.7711 11.5172 64.5317C11.0332 64.1367 10.5819 63.7099 10.167 63.2545C10.0657 63.1317 9.96448 63.009 9.86997 62.88C9.72891 62.6901 9.57324 62.5096 9.40415 62.3397C9.26447 62.214 9.11563 62.0971 8.95861 61.9897C8.59744 61.7841 8.28963 61.5096 8.05652 61.1852C7.8234 60.8608 7.67054 60.4943 7.60842 60.1109L7.56791 59.4355L8.24301 59.2206C9.49976 58.9331 10.8024 58.85 12.091 58.975H12.3071C12.6758 58.9929 13.0454 58.9929 13.4142 58.975L16.7897 58.932C16.9065 58.9415 17.024 58.9415 17.1408 58.932H18.4572V58.8215L18.6259 58.6802C18.788 57.6917 18.869 56.6663 18.9432 55.7576C19.004 54.9901 19.0648 54.198 19.1728 53.3937C19.2133 53.0744 19.2741 52.7797 19.3416 52.4481C19.4341 52.0597 19.495 51.6657 19.5238 51.2692C19.5218 50.5987 19.4312 49.9307 19.2538 49.2799C18.6059 46.9524 18.3555 44.5481 18.5112 42.1513C18.6698 40.1871 18.6698 38.215 18.5112 36.2507C18.4639 35.3113 18.4032 34.243 18.3897 33.1807C18.3559 31.1914 18.4639 29.1897 18.572 27.2495C18.6395 25.9908 18.7137 24.5786 18.7407 23.2155C18.7677 21.8524 18.6597 20.256 18.5517 18.7885V18.7026C18.4572 17.5052 18.3694 16.2465 18.3492 15.0554C18.3492 14.2817 18.3492 13.4897 18.3492 12.6915C18.3829 9.97144 18.4167 7.16546 17.7213 4.7463C17.6358 4.35129 17.4512 3.97956 17.1819 3.66006C16.9126 3.34057 16.5658 3.08194 16.1686 2.90429C16.1108 2.88197 16.0491 2.86947 15.9863 2.86743C15.6623 3.09461 14.9669 4.29192 15.588 10.5609V10.6653C15.588 10.96 15.642 11.1933 15.6488 11.3468C15.6825 11.9608 15.7298 12.5748 15.7771 13.1888C15.9979 15.3442 16.0362 17.5119 15.8918 19.6727C15.6777 22.4317 15.6551 25.2002 15.8243 27.9617C15.9035 30.5481 15.8359 33.1365 15.6218 35.7165C15.4056 38.3437 15.3447 40.9795 15.4395 43.6126C15.6353 47.1063 15.9661 50.9438 16.4454 55.3278L16.4859 55.69L16.2361 55.9725C15.48 56.8321 14.1501 57.2987 12.2733 57.3663C10.8286 57.4215 9.37714 57.3663 7.9662 57.2987H7.85144C6.71728 57.2435 5.69789 57.2005 4.692 57.2005H3.45656C2.55287 57.1739 1.64848 57.2273 0.756185 57.3601Z" fill="#010101" stroke="#1D1D1B" stroke-width="1.2" stroke-miterlimit="10"/>
</g>
<defs>
<clipPath id="clip0">
<rect width="55" height="82" fill="white"/>
</clipPath>
</defs>
</svg>
