<svg xmlns="http://www.w3.org/2000/svg" viewBox="0 0 467.87 416.04"><defs><style>.cls-1{fill:#fff;}</style></defs><title>Element 2</title><g id="Ebene_2" data-name="Ebene 2"><g id="Ebene_1-2" data-name="Ebene 1"><path class="cls-1" d="M227.45.7c3.16,2.22,1.9,7.6-2.22,15.51a48.35,48.35,0,0,1-3.8,6.34c-1.27,2.21-2.54,4.74-4.12,7.59A52.21,52.21,0,0,1,212.24,39c-1.9,3.16-4.75,6-7.28,8.86s-5.39,5.7-7.6,9.18q-3.81,5.22-7.6,10.45c-1.27,1.9-2.54,3.48-3.81,5.38s-2.53,3.8-3.8,5.7c-2.53,3.8-4.75,8.23-7.6,12.34s-6.65,7.92-9.82,11.72a43,43,0,0,0-4.43,6,46.19,46.19,0,0,0-3.17,7A51.55,51.55,0,0,1,154,122.9a49.65,49.65,0,0,1-4.44,6.65L141,142.84c-5.38,7.92-10.45,16.15-15.84,24.06-2.53,4.12-5.38,7.92-7.91,12-2.86,4.12-5.71,7.6-8.56,11.4-5.38,7.28-10.45,14.56-15.52,21.52-2.21,3.49-3.48,7.29-5.38,11.08a50.74,50.74,0,0,1-3.17,5.7c-1.26,1.59-2.21,3.48-3.48,5.07-2.22,3.16-4.44,6.33-6.34,9.49a53.32,53.32,0,0,1-3.16,4.44,49.75,49.75,0,0,1-3.8,4.11c-5.07,5.07-9.19,8.86-11.09,13.3-2.22,4.43-3.48,9.18-5.38,13a29.77,29.77,0,0,1-6,7.91c-3.17,3.17-6.34,5.7-8.87,8.23a8.29,8.29,0,0,0-1.58,1.9,13.6,13.6,0,0,0-1.9,2.22,39.74,39.74,0,0,0-3.49,4.11c-4.75,5.39-9.18,9.5-12.67,13.3-7.28,7.28-13,10.76-15.52,9.18S0,317.27,4.16,307.78C6.06,303,9.22,298,13,292c1-1.59,1.9-2.85,2.85-4.44.64-.63,1-1.58,1.59-2.21a16.65,16.65,0,0,1,1.9-2.53c2.85-3.17,6-6,8.87-8.87a26.74,26.74,0,0,0,4.75-6c1.58-2.85,3.16-7.29,5.7-12.67a31.45,31.45,0,0,1,5.7-7.59c2.22-2.22,4.75-4.44,7.28-7,2.54-2.21,4.12-4.43,6.65-7.6,2.22-2.84,4.44-6,7-8.86,1.27-1.58,2.22-3.17,3.49-4.75,1-1.58,2.21-3.16,3.16-4.75,1.9-3.48,3.8-7.28,6.34-11.39,5.38-7.28,11.08-13.62,17.1-21.21,3.17-3.8,6.34-7,9.19-10.77l8.55-11.39c5.7-7.6,11.4-15.52,17.1-23.11,3.17-4.43,6.34-8.55,9.19-13l2.21-3.17,1.27-1.58c.32-.63.63-.95,1-1.58a46.64,46.64,0,0,0,3.17-7,51.55,51.55,0,0,1,3.16-7.28,35.15,35.15,0,0,1,4.44-6.65c3.17-4.11,6.65-7.91,9.18-11.71s4.75-8.23,7-12.35c1.27-2.21,2.22-4.11,3.49-6.33q1.89-2.85,3.8-5.7c2.53-3.8,4.75-7.59,7-11.08,2.22-3.8,5.07-7,7.61-10.13a78.6,78.6,0,0,0,6.65-8.54c1.9-2.85,3.16-5.7,4.75-8.55s3.17-5.38,4.75-7.92c1.58-2.21,3.17-4.11,4.75-6C219.84,1.65,224.28-1.51,227.45.7Z"/><path class="cls-1" d="M394.05,250.16c1.26,3.48-1.59,7-7.29,10.13-1.58.95-3.16,1.58-5.07,2.53-1.58.95-3.48,1.9-5.7,3.17a32.91,32.91,0,0,1-6.65,3.48,63.34,63.34,0,0,1-8.23,2.22c-2.85.63-5.7.94-8.55,2.21-2.86,1-6,2.22-9.19,3.17a28.45,28.45,0,0,1-4.75,1.58l-4.75,1.9A76.13,76.13,0,0,1,323.73,285c-3.48,1.27-7.6,1.9-11.08,2.85a14,14,0,0,0-5.07,1.9,40.87,40.87,0,0,0-4.75,3.17,28.94,28.94,0,0,1-5.07,3.48c-1.9.95-3.8,1.58-5.7,2.53-3.8,1.58-7.28,3.17-11.08,4.43-6.66,2.85-13.31,5.7-20,8.24-3.48,1.26-6.65,2.53-10.13,4.11-3.49,1.27-7,2.21-10.14,3.17-6.65,2.21-13,4.43-19,6.33a41.51,41.51,0,0,0-7.92,5.06,19.74,19.74,0,0,1-4.43,2.22c-1.59.63-2.85.95-4.12,1.58-2.85.95-5.38,1.9-7.92,2.85a18.25,18.25,0,0,1-3.8,1.27c-1.27.31-2.85.63-4.12.95-5.38.63-9.82.94-13,2.85s-5.7,4.74-8.55,6.33a21.14,21.14,0,0,1-7,2.21c-3.49.32-6.65.32-9.5.63-.64,0-1.27.32-1.9.32s-1.27.32-1.9.32c-1.27.32-2.85.63-4.12,1-5.07.95-10.14,1.26-13.94,1.9-7.92.95-13.3,0-14.25-2.85-1.27-2.53,1.9-6.33,8.23-10.76a60.72,60.72,0,0,1,12-6,19.77,19.77,0,0,0,3.8-1.58,4.47,4.47,0,0,1,1.9-.64,6,6,0,0,1,2.22-.63c3.17-.63,6.65-.63,9.5-.95,1.58-.31,3.48-.31,5.7-1.58,2.22-.95,4.75-3.48,8.87-5.7a22.56,22.56,0,0,1,7-2.22c2.53-.31,5.06-.31,7.6-.63a20.09,20.09,0,0,0,7.28-1.58c2.54-.63,5.39-1.59,8.24-2.53,1.26-.32,2.85-.95,4.43-1.27a19.51,19.51,0,0,0,3.8-1.58c2.54-1.27,5.39-3.17,8.55-4.44,6.66-1.89,13-3.16,20-5.38,3.48-1,7-1.26,10.45-2.21s6.65-2.22,10.13-3.17c7-1.9,13.94-4.43,20.91-6.65l11.4-3.79,2.85-1,1.27-.63c.31-.32.95-.32,1.27-.63a41.73,41.73,0,0,0,4.75-3.17,28.86,28.86,0,0,1,5.06-3.48,21.1,21.1,0,0,1,5.7-2.21c3.81-1.27,7.61-1.91,10.77-3.17a69.71,69.71,0,0,0,9.51-5.07,33.66,33.66,0,0,1,4.75-2.53A32.12,32.12,0,0,0,338,264.4c3.16-1.26,6-2.84,8.87-4.11a47.26,47.26,0,0,1,8.86-2.85,57.22,57.22,0,0,0,7.92-2.22,66.27,66.27,0,0,0,6.65-3.48,28.57,28.57,0,0,1,6.34-2.85,50.46,50.46,0,0,1,5.38-1.58C388.35,246.36,392.78,246.68,394.05,250.16Z"/><path class="cls-1" d="M467.84,400.53c.32,3.8-1.9,6-6.33,7.6l-3.8.95a39.93,39.93,0,0,0-4.44,1.58,23.51,23.51,0,0,1-5.07,1.58,19.31,19.31,0,0,1-6-.31c-2.22-.32-4.12-.95-6.34-.64a46.28,46.28,0,0,0-6.65.32h-3.48a12.91,12.91,0,0,0-3.49.32c-2.53.31-4.75.95-7.6.95a69.23,69.23,0,0,1-7.92-.95,15.1,15.1,0,0,0-3.8,0,17.32,17.32,0,0,0-3.8,1.27,16.19,16.19,0,0,1-4.11,1.58,20,20,0,0,1-4.12.31c-2.85,0-5.39.32-8.24.32-5.06.32-10.13.63-15.2.63h-7.6a50.26,50.26,0,0,1-7.29-1c-4.75-.63-9.5-.95-13.93-1.58-2.22,0-4.12.95-6.34,1.27a12.08,12.08,0,0,1-3.48.31c-.95,0-2.22-.31-3.17-.31-1.9-.32-4.12-.32-6-.64-1,0-1.91-.31-2.86-.31l-2.85-.95c-3.48-1.59-6.33-3.48-8.86-2.85-2.54.32-5.07,1.58-7.29,1.9a7.54,7.54,0,0,1-5.07-1.27c-2.21-1.26-4.11-2.85-6-3.48-.31-.32-.95-.32-1.26-.63s-1-.32-1.27-.64a19.87,19.87,0,0,1-2.53-1c-3.49-1.26-6.34-3.16-8.87-4.43-5.07-2.85-7.6-6-7.6-8.86.32-2.85,3.16-4.75,8.55-5.7,2.53-.63,5.7-.32,9.19,0,.95,0,1.9.32,2.53.32a1.92,1.92,0,0,1,1.26.31c.64,0,1,.32,1.59.32,2.22.63,4.12,2.21,6,3.16a4.93,4.93,0,0,0,3.8,1c1.58,0,4.12-1,7-1.27,1.58-.32,3.16.31,4.75,1a38,38,0,0,1,4.75,2.85,13.56,13.56,0,0,0,5.07,1.58,36.7,36.7,0,0,1,5.7,1.27c.94.31,1.9.31,2.85.63H331a21.37,21.37,0,0,1,6.65-.63c4.75.63,8.87,1.9,13.93,2.85,2.54.63,4.75,1.26,7.29,1.89,2.53.32,4.75.64,7.28,1,5.07.63,9.82.94,14.89,1.26,2.85,0,5.38.32,8.23.32h3.8a18.33,18.33,0,0,0,3.81-1.27,15.69,15.69,0,0,1,4.11-1.58,17.9,17.9,0,0,1,4.12-.32c2.85,0,5.38.63,7.6.63,2.53,0,4.75-1,7.29-1.58,1.26-.31,2.53-.63,3.48-.95,1.27-.31,2.22-.31,3.48-.63l6.65-.95a21,21,0,0,1,6.34,0,17.58,17.58,0,0,0,5.7,0c1.58-.32,3.17-.95,4.75-1.27a12.77,12.77,0,0,1,4.75-.95H459C464.36,395.15,467.21,397.05,467.84,400.53Z"/></g></g></svg>