<svg width="320" height="252" fill="none" xmlns="http://www.w3.org/2000/svg">
    <path d="M1.43 66.179c-1.35-1.725-.675-3.665 1.35-5.82.45-.431 1.126-1.078 1.801-1.51.675-.43 1.126-1.292 2.026-1.94.675-.646 1.35-1.508 2.476-2.155.9-.646 2.25-1.078 3.376-1.509 1.125-.43 2.476-.862 3.6-1.508 1.126-.647 2.252-1.294 3.602-2.156.675-.431 1.125-.647 1.8-1.078.676-.431 1.126-.862 1.801-1.293 1.126-.862 2.251-1.94 3.826-2.803 1.35-.862 3.151-1.293 4.502-1.94.675-.43 1.576-.646 2.026-1.077.675-.431 1.125-1.078 1.575-1.94.45-.647 1.125-1.294 1.576-1.94.675-.647 1.35-1.078 2.025-1.51 1.35-.861 2.701-1.94 4.277-2.801 2.475-1.725 4.951-3.45 7.652-5.174 1.35-.862 2.701-1.509 3.826-2.37 1.35-.863 2.701-1.294 4.052-1.94 2.7-1.294 5.176-2.588 7.652-3.881 1.126-.647 1.8-1.724 2.926-2.802.45-.431.9-.862 1.576-1.293.675-.216 1.125-.647 1.575-.863 1.126-.646 2.25-1.293 3.151-1.724.45-.216 1.126-.647 1.576-.862.675-.216 1.125-.432 1.8-.647 2.476-.431 4.502-.647 5.402-1.725 1.125-1.077 2.026-2.586 2.926-3.448 1.125-.863 2.25-1.078 2.926-1.294 1.576-.215 3.151-.215 4.276-.431.225 0 .676-.216.9-.216.226 0 .676-.215.901-.215.675-.216 1.125-.431 1.8-.431 2.251-.647 4.502-.862 6.078-1.294 3.601-.646 6.076-.215 6.977 1.294.9 1.293.225 3.449-2.026 5.604-1.125 1.294-2.701 2.156-4.726 3.45-.451.215-.901.646-1.576.861-.225.216-.45.216-.9.431-.225.216-.675.216-.901.432-1.35.43-2.925.43-4.276.646-.675.216-1.575.216-2.25.863-.9.646-1.576 1.94-3.152 3.233-.675.647-1.8 1.078-2.926 1.293-1.125.216-2.25.216-3.376.431-1.125.216-2.025.431-3.15 1.078-1.126.431-2.251 1.078-3.377 1.51-.675.215-1.125.43-1.8.861-.45.216-1.126.647-1.576 1.078-.9.862-1.8 1.724-3.15 2.587-2.702 1.293-5.403 2.155-8.104 3.233-1.35.647-2.925.862-4.276 1.509l-4.051 1.94c-2.701 1.293-5.402 2.802-8.328 4.311-1.575.862-2.926 1.725-4.502 2.371l-1.125.647-.45.215-.45.432c-.675.43-1.126 1.077-1.576 1.724-.45.647-.9 1.509-1.575 1.94-.675.647-1.35 1.078-2.026 1.509-1.575.862-3.15 1.293-4.276 2.156-1.35.862-2.251 1.94-3.376 3.017-.45.431-1.126 1.078-1.8 1.51-.676.43-1.126.861-1.801 1.293l-3.377 2.586c-1.125.863-2.475 1.51-3.6 1.94-1.126.431-2.252 1.078-3.152 1.725-.9.647-1.575 1.509-2.25 2.155-.676.647-1.35 1.294-2.251 1.725-.9.43-1.576.862-2.251 1.078-2.476.646-4.727.646-5.852-1.078zM66.927 251.126c-1.8-1.078-.676-5.174 2.475-11.209.9-1.509 1.801-3.234 2.701-4.958.9-1.725 2.026-3.665 3.151-5.82 1.126-2.156 2.251-4.527 3.827-6.898 1.575-2.371 3.376-4.742 5.176-7.113 2.026-2.372 3.827-4.527 5.627-7.329 1.8-2.587 3.601-5.389 5.627-8.192.9-1.509 2.026-2.802 2.926-4.311.9-1.509 1.801-2.802 2.926-4.311 1.801-3.018 3.601-6.251 5.852-9.484 2.251-3.234 4.726-6.252 7.202-9.269 1.126-1.509 2.251-3.018 3.151-4.743.901-1.509 1.801-3.449 2.476-5.173.9-1.725 1.576-3.665 2.701-5.605 1.125-1.94 2.251-3.448 3.376-5.173l6.752-10.347c4.052-6.251 8.103-12.502 12.154-18.538 2.026-3.017 4.051-6.035 6.077-9.269 2.026-3.017 4.502-6.035 6.527-8.837 4.052-5.82 8.103-11.425 11.929-16.814 1.576-2.587 2.926-5.389 4.502-8.407.675-1.509 1.575-2.802 2.475-4.31l2.701-3.88c1.801-2.372 3.376-4.959 4.952-7.114.9-1.078 1.575-2.371 2.476-3.45.9-1.293 1.8-2.37 2.701-3.233 3.826-4.095 6.977-7.113 8.552-10.346 1.801-3.234 3.151-6.898 4.727-9.7 1.575-2.803 3.601-4.958 4.501-6.036 2.476-2.587 4.727-4.527 6.528-6.467.45-.43.9-1.078 1.35-1.509.45-.646.9-1.077 1.35-1.508l2.701-3.234c3.601-4.096 6.978-7.329 9.453-10.347 5.402-5.604 9.453-8.406 10.804-7.544 1.35.862 0 5.389-3.601 12.287-1.801 3.449-4.277 7.329-7.428 11.64-.675 1.078-1.575 2.155-2.25 3.449-.451.646-.901 1.077-1.351 1.724-.45.647-.9 1.293-1.575 1.94-2.026 2.587-4.502 4.742-6.528 6.898-.9 1.078-2.475 2.587-3.601 4.742-1.35 2.156-2.701 5.39-4.951 9.27-1.126 1.94-2.701 4.095-4.502 5.82-1.8 1.94-3.601 3.664-5.402 5.388-1.8 1.725-3.151 3.45-4.951 5.82-1.801 2.156-3.376 4.527-5.177 6.898-.9 1.293-1.8 2.371-2.701 3.665-.9 1.077-1.575 2.37-2.476 3.664-1.575 2.587-2.925 5.605-4.951 8.407-4.051 5.604-8.328 10.562-12.829 16.382-2.251 2.802-4.727 5.605-6.753 8.407-2.025 2.802-4.276 5.82-6.527 8.838-4.501 5.82-8.778 12.071-13.054 18.107-2.251 3.448-4.726 6.682-6.977 10.131l-1.801 2.586-.9 1.294-.675 1.293c-.901 1.509-1.801 3.449-2.701 5.174-.9 1.724-1.576 3.664-2.701 5.604-.9 1.94-2.251 3.664-3.376 5.173-2.251 3.234-4.727 6.252-6.752 9.269-2.026 3.018-3.601 6.251-5.402 9.485-.9 1.509-1.801 3.233-2.701 4.742l-2.701 4.527c-1.8 3.018-3.601 5.82-5.176 8.622-1.801 2.802-3.827 5.605-5.627 7.976-1.8 2.371-3.602 4.526-4.727 6.682-1.35 2.156-2.476 4.527-3.601 6.467-1.126 2.155-2.25 4.095-3.601 6.035-1.35 1.725-2.251 3.234-3.376 4.743-4.052 5.82-7.203 8.622-9.003 7.329zM303.929 73.938c-2.251 0-3.376-.863-4.052-2.372-.225-.43-.225-.862-.225-1.293 0-.431-.225-.862-.45-1.509-.225-.431-.45-1.078-.45-1.724 0-.647.225-1.294.675-1.94.45-.647.675-1.294.9-1.94 0-.647.226-1.294.226-2.156 0-.431.225-.647.225-1.078v-1.078c0-.862-.225-1.508-.225-2.37.225-.863.675-1.725 1.125-2.372.225-.43.225-.862.225-1.293 0-.431-.225-.862-.675-1.294-.225-.43-.675-.862-.675-1.293-.225-.43 0-.862 0-1.293 0-.862 0-1.725.225-2.587 0-1.509 0-3.233.225-4.742 0-.862.225-1.509.225-2.371.225-.862.45-1.51.9-2.371.45-1.51.9-3.018 1.125-4.312 0-.646-.45-1.293-.675-1.94-.225-.43-.225-.646-.225-1.077 0-.431.225-.647.225-1.078.225-.647.225-1.293.45-1.94 0-.216.225-.647.225-.862.226-.216.226-.647.676-.863 1.125-1.077 2.025-1.94 1.575-2.802-.225-.862-1.125-1.509-1.125-2.371-.225-.647.45-1.293.675-1.509.675-.647 1.576-1.293 2.026-1.94.225-.215.225-.215.225-.431s.225-.216.225-.431c.225-.216.45-.647.675-.862.9-1.078 1.801-2.156 2.476-2.803 1.575-1.508 3.376-2.586 5.177-2.37 1.8 0 2.926 1.077 3.601 2.801.45.863.225 1.725 0 3.018 0 .216-.225.647-.225.863 0 .215 0 .215-.225.43 0 .216-.225.432-.225.432-.451.646-1.351 1.293-1.801 1.94-.225.215-.675.646-.675 1.293 0 .647.675 1.294.9 2.156 0 .43-.225 1.078-.675 1.509l-1.576 1.508c-.675.432-.675.863-.9 1.51-.225.646-.45 1.293-.675 1.724-.225.215-.225.647-.45.862v.862c0 .647.45 1.294.225 2.156-.45 1.509-1.351 2.802-2.026 4.311-.45.862-.9 1.509-1.35 2.156-.225.862-.451 1.508-.676 2.37-.45 1.51-.9 3.019-1.35 4.743-.225.862-.45 1.724-.45 2.587v1.078c0 .43.225.862.675 1.293.225.43.675.862.675 1.293.225.431 0 .862 0 1.294-.225.862-.675 1.724-.675 2.37 0 .863.225 1.51.45 2.372.225.43.225.862.225 1.078v1.077c0 .647 0 1.51.225 2.156 0 .647-.225 1.509-.45 1.94-.225.647-.45 1.293-.45 1.724 0 .647.225 1.078.45 1.51.225.43.225 1.077.225 1.508 0 .431-.225.863-.45 1.294-.9 2.802-2.026 3.448-4.276 3.448z" fill="#fff"/>
</svg>
