<svg width="297" height="158" fill="none" xmlns="http://www.w3.org/2000/svg">
    <path d="M8.907 60.822c2.25.216 3.376 1.293 3.826 3.018 0 .431.225.862.225 1.293 0 .431.225 1.078.45 1.51.225.646.45 1.293.45 1.94 0 .646-.45 1.293-.675 1.94-.45.646-.9 1.293-.9 1.94-.225.646-.225 1.508-.45 2.37 0 .431-.225.862-.225 1.294v1.293c0 .862.225 1.724.225 2.587-.225.862-.676 1.724-.9 2.802-.226.431-.226.862-.226 1.293 0 .431.45.862.675 1.294.226.43.676.862.676 1.508.225.432 0 .863 0 1.51v2.802c0 1.724.225 3.449.225 5.173v2.587c0 .862-.225 1.724-.45 2.586 0 1.725-.225 3.234-.225 4.958.225.647.675 1.294 1.125 2.156.225.431.45.647.45 1.078v4.311c0 .431-.225.646-.225 1.078-.675 1.508-1.35 2.586-.9 3.448.45.863 1.575 1.509 1.8 2.156.45.647 0 1.509-.225 1.94-.45.862-1.125 1.94-1.35 2.587 0 .215-.225.431-.225.431l-.225.647c0 .431-.225.646-.225 1.077-.45 1.509-1.126 2.803-1.35 3.88-.901 2.156-2.252 3.88-3.827 4.312-1.576.431-3.151-.216-4.502-1.94-.675-.863-.9-1.94-1.125-3.449 0-.432 0-.647-.225-1.078v-1.294c.225-.862.675-1.94 1.125-2.802.225-.431.45-1.078.225-1.509-.225-.646-1.125-1.293-1.575-2.371-.225-.646-.225-1.293.225-1.94.225-.647.675-1.509 1.125-2.155.45-.647.45-1.294.45-1.94 0-.647.226-1.509.226-2.156 0-.431 0-.862.225-1.078 0-.431 0-.646-.225-1.078-.226-.646-.676-1.508-.9-2.371.224-1.724.9-3.449 1.125-5.389.225-.862.675-1.94.9-2.802.225-.862.225-1.724.45-2.802.45-1.725.45-3.665.675-5.39 0-1.077.225-1.94.225-3.017v-1.509c0-.43-.45-.862-.675-1.293-.225-.431-.675-.862-.9-1.509-.225-.431-.225-1.078 0-1.509.225-1.078.675-1.94.675-2.802 0-.862-.225-1.725-.675-2.587-.225-.431-.225-.862-.225-1.293v-3.664c0-.863.225-1.725.45-2.372.225-.647.675-1.293.45-1.94 0-.646-.225-1.293-.225-1.94-.225-.646-.225-1.293 0-1.724.225-.431.225-.863.45-1.294 1.126-2.37 2.476-3.018 4.727-2.802zM202.469 1.112c1.801 1.294 1.351 3.88-.675 7.33a19.48 19.48 0 0 1-1.801 2.801c-.675.863-1.125 2.156-1.8 3.234-.675 1.293-1.351 2.586-2.251 3.88-.9 1.293-2.251 2.587-3.601 3.664-1.351 1.294-2.701 2.371-3.826 3.665-1.126 1.509-2.476 3.018-3.827 4.526-.675.863-1.35 1.51-2.025 2.372-.676.862-1.126 1.508-1.801 2.37-1.125 1.725-2.251 3.665-3.826 5.39-1.576 1.724-3.376 3.233-4.952 4.742-.675.862-1.575 1.724-2.025 2.587-.676.862-1.126 1.94-1.576 3.017-.45 1.078-.9 2.156-1.575 3.234-.676 1.078-1.351 1.94-2.026 2.802-1.351 1.94-2.926 3.88-4.276 5.605-2.701 3.448-5.177 6.897-7.878 10.346-1.35 1.725-2.701 3.45-4.051 4.958-1.351 1.725-2.926 3.233-4.277 4.742-2.701 3.018-5.402 6.036-7.877 9.054-1.126 1.509-1.801 3.233-2.701 4.958-.45.862-.9 1.724-1.576 2.37-.675.647-1.125 1.51-1.8 2.156-1.126 1.294-2.251 2.587-3.151 3.88-.45.647-1.126 1.294-1.576 1.94l-1.8 1.725c-2.701 1.94-4.952 3.449-5.852 5.389-1.126 1.94-1.576 4.095-2.701 5.604-.9 1.725-2.251 2.587-2.926 3.234-1.801 1.293-3.376 2.155-4.727 3.233-.225.216-.675.431-.9.647l-.9.862c-.676.647-1.351 1.078-1.801 1.725-2.476 2.155-4.726 3.664-6.527 5.173-3.826 2.802-6.977 3.88-8.328 3.018-1.35-.863-.9-3.665 1.126-7.76.9-2.156 2.7-4.312 4.501-6.683.45-.646.9-1.293 1.576-1.94.225-.215.45-.646.9-1.077.225-.432.675-.647.9-1.078 1.35-1.294 3.151-2.371 4.727-3.449.675-.431 1.575-1.294 2.476-2.371.9-1.294 1.575-3.234 2.926-5.389.675-1.078 1.8-2.371 2.926-3.234 1.125-.862 2.475-1.724 3.826-2.586 1.35-.863 2.25-1.725 3.376-3.018 1.125-1.294 2.251-2.371 3.601-3.665.675-.646 1.125-1.293 1.801-1.94.45-.646 1.125-1.293 1.575-1.94.9-1.509 1.801-3.233 3.151-4.958 2.701-3.017 5.627-5.604 8.778-8.622 1.575-1.509 3.151-2.802 4.727-4.311 1.35-1.509 2.925-3.018 4.276-4.742 2.926-3.234 5.852-6.467 8.553-9.7 1.575-1.725 3.151-3.665 4.726-5.39l1.126-1.293.45-.646c.225-.216.225-.431.45-.647.675-.862 1.125-1.94 1.575-3.018.451-1.078.901-2.155 1.576-3.233.675-1.078 1.35-1.94 2.251-2.802 1.575-1.725 3.376-3.234 4.501-4.958 1.351-1.725 2.251-3.665 3.376-5.39.45-.861 1.126-1.94 1.801-2.801.675-.863 1.125-1.725 1.8-2.587 1.126-1.725 2.251-3.233 3.377-4.742 1.125-1.51 2.475-3.018 3.601-4.312 1.35-1.293 2.475-2.37 3.151-3.664.9-1.293 1.575-2.587 2.25-3.665.676-1.293 1.351-2.37 2.251-3.448.9-.863 1.576-1.725 2.251-2.372 2.701-3.017 5.177-4.095 6.977-2.802zM296.55 107.167c.901 1.94-.225 3.664-2.701 5.389l-2.025 1.293c-.676.431-1.576.862-2.476 1.509-.9.647-1.801 1.293-2.926 1.724-1.125.432-2.476.647-3.601.863-1.351.215-2.701.431-3.826.862l-4.052 1.293-2.026.647c-.675.215-1.35.647-2.025.862-1.351.647-2.701 1.509-4.277 2.156-1.575.646-3.376.646-4.951 1.077-.9.216-1.576.432-2.251.863-.675.431-1.35 1.077-2.026 1.509-.675.646-1.35 1.293-2.025 1.724-.675.431-1.576.647-2.476 1.078-1.576.647-3.151 1.509-4.727 2.155-2.926 1.294-5.626 2.803-8.552 3.88-1.351.647-2.926 1.294-4.277 1.94-1.575.647-3.151.863-4.501 1.509-2.926 1.078-5.627 2.156-8.328 3.018-1.125.647-2.251 1.509-3.376 2.371a4.925 4.925 0 0 1-1.801 1.078c-.675.216-1.125.431-1.8.862-1.126.431-2.251 1.078-3.376 1.509-.676.216-1.126.431-1.801.647-.675.215-1.35.215-1.801.431-2.475.216-4.501.216-5.851 1.293-1.351 1.078-2.251 2.371-3.377 3.234-1.125.862-2.475.862-3.151 1.077-1.575.216-3.151 0-4.276.216-.225 0-.675 0-.9.216-.225 0-.675.215-.9.215-.676.216-1.126.216-1.801.431-2.251.431-4.502.647-6.302.862-3.601.432-6.302-.215-7.203-1.508-.9-1.509.226-3.449 2.701-5.605 1.126-1.293 3.151-2.155 5.177-3.018.45-.215 1.125-.431 1.576-.646.225-.216.675-.216.9-.431.225-.216.675-.216 1.125-.432 1.351-.431 3.151-.215 4.502-.431.675 0 1.575-.215 2.476-.646.9-.647 2.025-1.725 3.601-3.018.9-.647 2.025-.862 3.151-1.078 1.125-.216 2.476-.216 3.601-.216a9.38 9.38 0 0 0 3.376-.646c1.125-.431 2.476-.862 3.601-1.078.675-.216 1.351-.431 1.801-.647.675-.215 1.125-.431 1.575-.862 1.126-.647 2.251-1.724 3.601-2.371 2.926-.862 5.852-1.509 9.003-2.371 1.576-.431 3.151-.647 4.727-1.078 1.575-.431 2.926-.862 4.501-1.509 3.151-.862 6.077-1.94 9.228-3.018 1.576-.646 3.376-1.293 4.952-1.724l1.125-.431.676-.216c.225 0 .45-.215.45-.215.675-.431 1.35-.863 2.025-1.509.676-.647 1.351-1.294 2.026-1.725.675-.646 1.576-.862 2.476-1.077 1.575-.432 3.376-.863 4.726-1.294 1.351-.646 2.701-1.509 4.052-2.371l2.025-1.293c.676-.431 1.351-.647 2.026-1.078 1.35-.647 2.701-1.293 3.826-1.94 1.351-.647 2.701-1.078 4.052-1.293 1.35-.216 2.475-.432 3.376-1.078.9-.431 2.025-1.078 2.926-1.725.9-.646 1.8-1.077 2.701-1.293.9-.216 1.8-.431 2.475-.647 2.926-.646 4.952-.215 5.627 1.725z" fill="#fff"/>
</svg>
