<svg id="Layer_1" data-name="Layer 1" xmlns="http://www.w3.org/2000/svg" viewBox="0 0 261.54 250"><defs><style>.cls-1{fill:#010101;}</style></defs><path class="cls-1" d="M258,176.34q-24.16,2.81-48.48,4c-16.31.84-32-1.78-48.38-1.09a204.58,204.58,0,0,1-26-.18c-8.61-.72-16.64.2-25.29.69-6.91.39-22.74,2.71-28.39-1.72-2-1.6-5.78-18.16-4.09-18.37-1.34.16-2-1.54-2.22-2.87-1.73-11.65-1.55-23.47-2.81-35.17-1.12-10.42-4.16-20.41-6.68-30.52a36.76,36.76,0,0,0-2.14-5.91A62.81,62.81,0,0,1,61,78a47.15,47.15,0,0,1-1-8.55,54.74,54.74,0,0,0-1-8.88c-.65-3.12-1.31-6.41-2-9.69-.33-1.65-.65-3.29-1-5.1-.33-1.64-.82-3.28-1.32-5.09a104.1,104.1,0,0,1-2.95-10.85l-.17-1.48-.16-1.31-.16-2.3c-.17-1.48-.33-2.63-.5-3.62s-.49-1.48-.82-1.64-.49.33-1.15.49a11.71,11.71,0,0,1-3.61.66c-2,.16-3.77-.17-5.58-.17s-3.78,0-5.58-.16c-2,0-3.78,0-5.75.16C22.49,20.63,2,26,2,15.61,2,5.8,21.33,10,27.06,10c4.1,0,8,.33,12,.66l3,.17,1.48.16h1.31c1.81,0,3.61-.33,5.42-.33a11.47,11.47,0,0,1,5.58,1.15,9.51,9.51,0,0,1,3.77,4.6c1.65,3.62,1.81,7.4,2.63,10.85a86.15,86.15,0,0,0,3.45,10.36,48.3,48.3,0,0,1,1.8,5.25c.5,1.65,1,3.46,1.48,5.1,1,3.29,1.81,6.57,2.79,9.7a49.33,49.33,0,0,1,1.64,9.53,57.25,57.25,0,0,0,1.32,8.22c.65,2.46,1.48,4.76,2.3,7.23,1.94,5.46,1.28,10.35,2.06,16,.89,6.39,3.09,12.52,4.73,18.74a233.44,233.44,0,0,1,4.75,25.49q1,6.69,2,13.38c.33,2.21-.64,6.56.49,8.44,1.6,2.67,6.52,2.44,9.18,2.41l21-.25c8.42-.11,17-1.28,25.31-1.13,10.24.2,20.46,1.14,30.71,1,9.58-.13,18.49-1.25,28.06-.36,7.25.67,14.15-.58,21.21-2.05a27.69,27.69,0,0,1,6.83-.82c2.28.1,4.5.74,6.76,1,3.09.37,6.23.05,9.33.35s6.33,1.36,8.22,3.83S261,176,258,176.34Z"/><path class="cls-1" d="M149.6,212.08c-.11-.54-.28-1.08-.39-1.63a15.35,15.35,0,0,0-.44-1.57c-.16-.54-.38-1.09-.55-1.58l-.27-.76c-.12-.27-.23-.49-.34-.76a19,19,0,0,0-1.48-2.82,30.32,30.32,0,0,0-1.82-2.5c-.61-.82-1.33-1.47-1.93-2.23a25.13,25.13,0,0,0-2.1-2,17.14,17.14,0,0,0-2.37-1.79,9.08,9.08,0,0,0-1.27-.71c-.44-.22-.88-.43-1.32-.6a19.5,19.5,0,0,0-5-1.25l-1.11-.09,0,0A24,24,0,0,0,125,191l-2.26-.16a10.12,10.12,0,0,0-1.26-.05c-.39,0-.78.05-1.16.05a39.46,39.46,0,0,0-5.24.49,20.34,20.34,0,0,0-4.13,1.3,21.17,21.17,0,0,0-2.65,1.47c-.44.27-.94.6-1.38.92s-1,.77-1.49,1.15c-.82.76-1.7,1.57-2.64,2.55A22.08,22.08,0,0,0,100,202.3a13.43,13.43,0,0,0-1.16,2.34c-.28.82-.55,1.63-.77,2.45a37.24,37.24,0,0,0-.94,5c-.11.92-.16,1.79-.22,2.72a23,23,0,0,0,1.65,8.8,25.47,25.47,0,0,0,2.65,5.65,20.29,20.29,0,0,0,1.87,2.55,23.88,23.88,0,0,0,2.21,2.39,25.36,25.36,0,0,0,5.4,4.08,30.51,30.51,0,0,0,6.45,2.55,26.1,26.1,0,0,0,14,0,25.68,25.68,0,0,0,7.11-3.26c.55-.38,1.11-.71,1.6-1.09s1-.82,1.55-1.3.93-1,1.32-1.47a15.34,15.34,0,0,0,1.16-1.52c.33-.49.66-1,1-1.52a12.69,12.69,0,0,1,.88-1.53c.28-.48.55-1,.88-1.46s.61-1.09.88-1.58a22.3,22.3,0,0,0,2.43-6.9A21.88,21.88,0,0,0,149.6,212.08Z"/><path class="cls-1" d="M246.43,212.08c-.11-.54-.28-1.08-.39-1.63a15.35,15.35,0,0,0-.44-1.57c-.16-.54-.38-1.09-.55-1.58l-.28-.76c-.11-.27-.22-.49-.33-.76A19,19,0,0,0,243,203a30.32,30.32,0,0,0-1.82-2.5c-.61-.82-1.33-1.47-1.93-2.23a26.77,26.77,0,0,0-2.1-2,17.14,17.14,0,0,0-2.37-1.79,9.69,9.69,0,0,0-1.27-.71c-.44-.22-.88-.43-1.32-.6a19.47,19.47,0,0,0-5-1.25l-1.1-.09-.05,0a24,24,0,0,0-4.14-.76l-2.26-.16a10.21,10.21,0,0,0-1.27-.05c-.38,0-.77.05-1.15.05a39.46,39.46,0,0,0-5.24.49,20.34,20.34,0,0,0-4.13,1.3,21.17,21.17,0,0,0-2.65,1.47c-.44.27-.94.6-1.38.92s-1,.77-1.49,1.15c-.82.76-1.71,1.57-2.64,2.55a22.08,22.08,0,0,0-2.81,3.58,13.43,13.43,0,0,0-1.16,2.34c-.28.82-.55,1.63-.77,2.45a37.24,37.24,0,0,0-.94,5c-.11.92-.17,1.79-.22,2.72a27.48,27.48,0,0,0,.16,3,28.13,28.13,0,0,0,1.49,5.76,25.47,25.47,0,0,0,2.65,5.65,20.29,20.29,0,0,0,1.87,2.55,22.75,22.75,0,0,0,2.21,2.39,25.36,25.36,0,0,0,5.4,4.08,30.51,30.51,0,0,0,6.45,2.55,26.1,26.1,0,0,0,14,0,25.68,25.68,0,0,0,7.11-3.26c.55-.38,1.1-.71,1.6-1.09s1.05-.82,1.54-1.3.94-1,1.33-1.47a15.34,15.34,0,0,0,1.16-1.52c.33-.49.66-1,1-1.52a12.69,12.69,0,0,1,.88-1.53c.27-.48.55-1,.88-1.46s.61-1.09.88-1.58a22.3,22.3,0,0,0,2.43-6.9A21.88,21.88,0,0,0,246.43,212.08Z"/><path class="cls-1" d="M88.77,72.78A268.14,268.14,0,0,0,95,100.56c.19.65.55,1.43,1.23,1.44s.52-1.42,0-1q3.26,25.58,6.49,51.14l11.61,0,50.62.12c4,0,7.9,0,11.83.36,7.49.64,14.86,2.45,22.36,2.59a115.44,115.44,0,0,0,13.89-.93q12.24-1.24,24.55-1.78c5.15-.22,13.48,2.28,18-1,3.48-2.52,2-6.59,1.93-10.54-.09-5.73.07-11.47.32-17.21.81-18.09,2.72-36.22,1.41-54.33-.64-8.92-.68-12.81-9.72-15.29-6-1.65-12.37-2-18.54-2.09-3,0-5.95.18-8.92.06-6-.24-11.82-1.87-17.68-3.11a140,140,0,0,0-36-2.88c-10.41.52-21.2,2.15-31-1.36-3.1-1.11-6-2.71-9-4-10.92-4.58-23.11-4.82-35-5-8.65-.1-10,4.71-8.86,12Q86.5,60.33,88.77,72.78Z"/></svg>