<svg id="Ebene_1" data-name="Ebene 1" xmlns="http://www.w3.org/2000/svg" xmlns:xlink="http://www.w3.org/1999/xlink" viewBox="0 0 774.37 113.85"><defs><style>.cls-1{fill:none;}.cls-2{clip-path:url(#clip-path);}.cls-3,.cls-4{fill:#1d1d1b;}.cls-4{font-size:13.58px;font-family:RocGrotesk-Medium, Roc Grotesk;font-weight:500;}</style><clipPath id="clip-path" transform="translate(92.94 -364.57)"><rect class="cls-1" x="-92.94" y="365.31" width="774.89" height="113.12"/></clipPath></defs><title>Surreal Logo-1</title><g class="cls-2"><path class="cls-3" d="M-39.88,478.43c44.21,0,55.22-18,55.22-38.38,0-11.18-4.5-18.85-12.51-23.52-6.34-3.51-15-5.34-26.7-6.84-9.51-1.34-17.35-2.51-20.52-3.84a7.27,7.27,0,0,1-4-7c0-4.5,4-8.17,11.68-8.17,7.5,0,11.92,3.52,12.59,10.94a2.25,2.25,0,0,0,2.24,2.07H9.36a2.28,2.28,0,0,0,2.27-2.38c-.75-22-12.35-36-51.18-36-34.7,0-53.39,15-53.39,37.37,0,11.34,4.5,19.19,11.68,23.52,6.84,4.18,18.18,6.51,26.36,7.68,7.34.83,15.35,1.83,19,3,4.17,1,5.67,3.67,5.67,7.34,0,4.51-2.67,8.85-11.84,8.85-8.23,0-11.87-4.32-12.44-11.42a2.26,2.26,0,0,0-2.25-2.1H-90.3a2.28,2.28,0,0,0-2.26,2.38c.69,18.4,10,36.5,52.68,36.5m116.2,0c34.37,0,53.89-14.19,53.89-47.72V369.24A2.27,2.27,0,0,0,128,367h-30a2.27,2.27,0,0,0-2.27,2.27V427c0,11-5.67,15-14.34,15-8.85,0-14.52-4-14.52-15v-57.8A2.27,2.27,0,0,0,64.55,367h-40a2.27,2.27,0,0,0-2.27,2.27v61.47c0,33.53,20,47.72,54.06,47.72m66.09-1.67h39.51a2.27,2.27,0,0,0,2.27-2.27v-33a2.26,2.26,0,0,1,2.26-2.26h6.91c6.68,0,9.51,2.67,9.51,10.34v24.93a2.27,2.27,0,0,0,2.27,2.27h39.18a2.27,2.27,0,0,0,2.27-2.27V451.06c0-11.17-3.51-21-19.69-24.19v-.33c15.52-3.51,20.19-14,20.19-25.86,0-20.36-12.85-33.71-54.23-33.71H142.41a2.27,2.27,0,0,0-2.27,2.27V474.49a2.27,2.27,0,0,0,2.27,2.27m41.78-58.33V402.28a2.26,2.26,0,0,1,2.26-2.27h6.41c8,0,11.35,3.67,11.35,10.18,0,7.34-3.67,10.51-11.18,10.51h-6.58a2.27,2.27,0,0,1-2.26-2.27m190.37,58.33h80.72a2.27,2.27,0,0,0,2.27-2.27V446a2.27,2.27,0,0,0-2.27-2.27H418.6a2.26,2.26,0,0,1-2.26-2.26v-9.15A2.27,2.27,0,0,1,418.6,430h23.67a2.26,2.26,0,0,0,2.26-2.27v-12a2.27,2.27,0,0,0-2.26-2.27H418.6a2.26,2.26,0,0,1-2.26-2.26v-9A2.26,2.26,0,0,1,418.6,400H454a2.27,2.27,0,0,0,2.26-2.27v-28.5A2.27,2.27,0,0,0,454,367H374.56a2.27,2.27,0,0,0-2.27,2.27V474.49a2.27,2.27,0,0,0,2.27,2.27m167.54,0h48.1a2.27,2.27,0,0,0,2.15-3L557,368.52a2.27,2.27,0,0,0-2.15-1.55H500.22a2.28,2.28,0,0,0-2.15,1.55L462.72,473.77a2.27,2.27,0,0,0,2.15,3h38.45a2.27,2.27,0,0,0,2.2-1.73l3.32-13.56a2.27,2.27,0,0,1,2.21-1.73H534.5a2.27,2.27,0,0,1,2.21,1.75L539.89,475a2.27,2.27,0,0,0,2.21,1.75m-25.28-36.54a2.27,2.27,0,0,1-2.21-2.8l8-33.24h.83l7.7,33.26a2.27,2.27,0,0,1-2.21,2.78Zm84.39,36.54h77.06a2.27,2.27,0,0,0,2.26-2.27V444.32a2.27,2.27,0,0,0-2.26-2.27H646.09a2.26,2.26,0,0,1-2.26-2.26V369.24a2.27,2.27,0,0,0-2.27-2.27H601.21a2.27,2.27,0,0,0-2.26,2.27V474.49a2.27,2.27,0,0,0,2.26,2.27" transform="translate(92.94 -364.57)"/><path class="cls-3" d="M363.91,474.48V431.59a2.27,2.27,0,0,0-2.27-2.26h-33a2.27,2.27,0,0,1-2.26-2.27v-6.91c0-6.67,2.67-9.51,10.34-9.51h24.93a2.27,2.27,0,0,0,2.27-2.26V369.2a2.27,2.27,0,0,0-2.27-2.27H338.21c-11.18,0-21,3.5-24.19,19.69h-.33c-3.51-15.52-14-20.19-25.87-20.19-20.35,0-33.7,12.85-33.7,54.22v53.83a2.27,2.27,0,0,0,2.27,2.26H361.64a2.27,2.27,0,0,0,2.27-2.26m-58.33-45.15H289.42a2.27,2.27,0,0,1-2.26-2.27v-6.41c0-8,3.67-11.34,10.18-11.34,7.34,0,10.51,3.67,10.51,11.18v6.57a2.27,2.27,0,0,1-2.27,2.27" transform="translate(92.94 -364.57)"/><text class="cls-4" transform="translate(754.95 11.26)">TM</text></g></svg>