<?xml version="1.0" encoding="utf-8"?>
<!-- Generator: Adobe Illustrator 23.0.1, SVG Export Plug-In . SVG Version: 6.00 Build 0)  -->
<svg version="1.1" id="Layer_1" xmlns="http://www.w3.org/2000/svg" xmlns:xlink="http://www.w3.org/1999/xlink" x="0px" y="0px"
	 viewBox="0 0 170.2 170.2" style="enable-background:new 0 0 170.2 170.2;" xml:space="preserve">
<style type="text/css">
	.st0{fill:#FFFFFF;}
</style>
<g>
	<path class="st0" d="M72.3,79.1c-2.8,0.6-5.2,1.4-7,2.3c2.2,0.9,4.4,1.6,6.7,2.2C72.1,82,72.2,80.5,72.3,79.1z"/>
	<path class="st0" d="M63,82.9c-0.7,0.7-1.1,1.5-1.1,2.3c0,2.4,3.7,4.6,9.4,5.9c0.2-1.7,0.3-3.4,0.5-5.2
		C68.8,85.2,65.9,84.2,63,82.9z"/>
	<path class="st0" d="M96.4,85.9c-0.2,0.1-0.5,0.1-0.7,0.2c0.2,1.7,0.3,3.4,0.5,5c6-1.3,9.9-3.5,9.9-6c0-0.8-0.4-1.6-1.3-2.4
		c-1,0.7-2.3,1.1-3.2,1.5C99.9,85,98.2,85.5,96.4,85.9z"/>
	<path class="st0" d="M93.3,84.1c-0.2-1.9-0.4-3.7-0.5-5.6c-2.5-0.3-5.2-0.6-8.1-0.6c0,2.3-0.1,4.5-0.1,6.8
		C87.5,84.7,90.4,84.6,93.3,84.1z"/>
	<path class="st0" d="M84.8,87.1c-0.1,0-0.2,0-0.2,0c0,1.7,0,3.5-0.1,5.2c3.4,0,6.6-0.3,9.5-0.8c-0.2-1.7-0.3-3.4-0.5-5.1
		C90.6,86.9,87.7,87.1,84.8,87.1z"/>
	<path class="st0" d="M82.3,84.8c0-2.3,0.1-4.5,0.1-6.8c-2.8,0.1-5.4,0.3-7.9,0.7c-0.1,1.8-0.2,3.5-0.4,5.3
		C76.8,84.4,79.5,84.7,82.3,84.8z"/>
	<path class="st0" d="M73.9,86.3c-0.1,1.6-0.3,3.2-0.4,4.9c0,0.1,0,0.2-0.1,0.3c2.7,0.5,5.6,0.8,8.8,0.8c0-1.7,0-3.5,0.1-5.2
		C79.5,87,76.7,86.8,73.9,86.3z"/>
	<path class="st0" d="M99.5,82.6c0.6-0.2,2.1-0.8,3.2-1.3c-1.9-1-4.6-1.8-7.7-2.4c0.2,1.6,0.3,3.2,0.5,4.8
		C96.8,83.5,98.2,83.1,99.5,82.6z"/>
	<g>
		<path class="st0" d="M111.6,85.9c0-0.3,0.1-0.5,0.1-0.8c0-6.2-12.4-11.3-27.7-11.3s-27.7,5-27.7,11.3c0,0-0.1,19.9,15.6,26.8
			c0,0,11.6,5.2,24.1,0C109.9,105.9,111.4,89.7,111.6,85.9z M84.5,92.3c0-1.7,0-3.5,0.1-5.2c0.1,0,0.2,0,0.2,0
			c2.9,0,5.8-0.2,8.7-0.6c0.2,1.7,0.3,3.4,0.5,5.1C91.1,92,87.9,92.3,84.5,92.3z M63,82.9c2.9,1.3,5.8,2.3,8.7,2.9
			c-0.2,1.7-0.3,3.5-0.5,5.2c-5.7-1.3-9.4-3.4-9.4-5.9C61.9,84.4,62.3,83.6,63,82.9z M72.3,79.1c-0.1,1.5-0.2,3-0.3,4.4
			c-2.3-0.5-4.5-1.2-6.7-2.2C67,80.4,69.4,79.6,72.3,79.1z M82.4,78c0,2.3,0,4.5-0.1,6.8c-2.8-0.1-5.5-0.3-8.2-0.8
			c0.1-1.8,0.3-3.5,0.4-5.3C77,78.3,79.6,78.1,82.4,78z M102.7,81.3c-1,0.5-2.5,1.1-3.2,1.3c-1.3,0.5-2.7,0.8-4,1.1
			c-0.2-1.6-0.3-3.2-0.5-4.8C98.1,79.5,100.8,80.3,102.7,81.3z M93.3,84.1c-2.9,0.4-5.8,0.6-8.7,0.6c0-2.3,0.1-4.5,0.1-6.8
			c2.9,0,5.6,0.2,8.1,0.6C92.9,80.4,93.1,82.3,93.3,84.1z M82.2,92.3c-3.2-0.1-6.2-0.4-8.8-0.8c0-0.1,0.1-0.2,0.1-0.3
			c0.2-1.6,0.3-3.2,0.4-4.9c2.7,0.5,5.5,0.7,8.4,0.8C82.3,88.8,82.3,90.6,82.2,92.3z M95.7,86.1c0.2-0.1,0.5-0.1,0.7-0.2
			c1.8-0.4,3.5-0.9,5.2-1.6c0.9-0.4,2.3-0.8,3.2-1.5c0.8,0.7,1.3,1.5,1.3,2.4c0,2.5-4,4.7-9.9,6C96,89.5,95.9,87.8,95.7,86.1z"/>
		<path class="st0" d="M68.6,58.9c-0.8,0.6-1.4,1.5-1.8,2.4c-0.2,0.6-0.2,1.3,0.4,1.6c0.5,0.3,1.4,0.2,1.6-0.4
			c0.1-0.2,0.2-0.4,0.3-0.7c0.1-0.1,0.1-0.2,0.2-0.3c0,0,0.1-0.1,0.1-0.2c0,0,0.1-0.2,0.2-0.2c0.1-0.1,0.2-0.2,0.3-0.3
			c0.1-0.1,0.3-0.3,0.5-0.4l0.1-0.1c0.1-0.1,0.2-0.1,0.3-0.2c0.2-0.1,0.4-0.2,0.5-0.3h0.1c0.1,0,0.2-0.1,0.4-0.1
			c0.2-0.1,0.4-0.1,0.5-0.1s0.2,0,0.2,0c0.1,0,0.2,0,0.3,0c0.1,0,0.2,0,0.3,0c0,0,0,0,0.1,0l0,0c0.2,0.1,0.4,0.1,0.6,0.2h0.1H74
			c0.1,0,0.2,0.1,0.3,0.1c0.1,0.1,0.2,0.1,0.3,0.2l0,0l0,0c0.2,0.2,0.4,0.3,0.5,0.5c0.3,0.3,0.6,0.9,0.9,1.5s1.1,0.7,1.6,0.4
			c0.6-0.3,0.7-1,0.4-1.6c-0.8-1.8-2.4-3.5-4.5-3.8C71.8,57,70,57.7,68.6,58.9z"/>
		<path class="st0" d="M96.2,57.6c-2.7-0.1-4.8,1.7-5.5,4.3c-0.4,1.5,1.9,2.1,2.3,0.6c0.2-0.8,0.5-1.4,1.2-2l0,0c0,0,0,0,0.1,0
			c0.1-0.1,0.2-0.1,0.3-0.2c0.1,0,0.2-0.1,0.3-0.1l0.2-0.1c0.2-0.1,0.4-0.1,0.6-0.1h0.2c0.1,0,0.3,0,0.4,0c0.8,0,1.7,0.4,2.3,1
			c0.8,0.7,1.3,1.4,1.5,2.3c0.4,1.5,2.6,0.8,2.3-0.6C101.6,59.9,98.9,57.6,96.2,57.6z"/>
		<path class="st0" d="M83.3,64.7c0.2-2.9,0.6-5.9,1.1-8.8c0.1-0.6-0.2-1.3-0.8-1.4c-0.6-0.2-1.3,0.2-1.4,0.8
			c-0.6,3.5-1.2,7.1-1.3,10.7c0,1.4-0.3,3.4,1.2,4.2c1.3,0.8,3.2,0.2,4.6,0.1c0.6-0.1,1.2-0.5,1.2-1.2c0-0.6-0.5-1.2-1.2-1.2
			c-0.7,0.1-1.4,0.2-2.1,0.3c-0.3,0-1.2,0.2-1.4,0c-0.1-0.1,0-1.1,0-1.3C83.3,66.2,83.3,65.4,83.3,64.7z"/>
		<path class="st0" d="M85.1,0L85.1,0C38.2,0,0,38.2,0,85.1l0,0c0,46.9,38.2,85.1,85.1,85.1h0.1c46.9,0,85.1-38.2,85.1-85.1l0,0
			C170.2,38.2,132,0,85.1,0z M85.1,167.9c-45.7,0-82.8-37.2-82.8-82.8c0-45.7,37.2-82.8,82.8-82.8c45.7,0,82.8,37.2,82.8,82.8
			C167.9,130.8,130.8,167.9,85.1,167.9z"/>
		<path class="st0" d="M88,35.2c6.5,0.4,8.4-2.2,8.6-5.3c0.1-1.7-0.5-3.1-1.7-3.8c-1-0.7-2.6-1.1-4.6-1.6c-1.5-0.3-3.4-0.8-4.1-1.1
			c-0.6-0.3-0.8-0.8-0.8-1.7c0.1-1.2,1.2-2.1,3.6-1.9c2.5,0.2,3.5,1.4,3.3,3.4l4,0.3c0.3-4.1-1.4-6.6-7.2-7
			c-5.2-0.3-8.1,1.9-8.3,5.3c-0.1,1.7,0.4,3,1.5,3.9c1,0.8,2.8,1.2,4.6,1.6c1.5,0.3,3.4,0.7,4.1,1.1c0.7,0.3,1,0.8,0.9,1.6
			c-0.1,1.2-0.8,2.2-3.9,2c-3-0.2-3.8-1.5-3.6-3.5l-4-0.3C80.3,31.5,81.7,34.8,88,35.2z"/>
		<path class="st0" d="M106,39.8c4.6,2.1,8.7,1.1,10.7-3.1l4.7-10.1l-3.6-1.7l-4.6,10c-1,2.3-3.1,2.7-5.3,1.7
			c-2.2-1-3.2-2.8-2.1-5.1l4.6-10l-4.1-1.9l-4.7,10.1C99.5,33.8,101.4,37.6,106,39.8z"/>
		<path class="st0" d="M127.2,46.7c1.2,1.2,1.1,2.2-0.1,3.3l-3.2,3l3.1,3.3l3.3-3.1c1.5-1.4,2-3,1.1-4.6l0,0c1.5,0.9,3.3,0.6,5-1
			c2.5-2.3,2.2-5.6-1.1-9.1l-5.8-6.2l-13.3,12.5l3.1,3.3l4.9-4.6L127.2,46.7z M129.9,38.1l2.7,2.9c1.4,1.5,1.4,2.9,0.2,4
			c-1.2,1.2-2.5,1-3.8-0.4l-2.8-3L129.9,38.1z"/>
		<path class="st0" d="M130.7,63.5l6.3-2.4l1.6,4.1c0.6,1.6,0.2,2.4-1.4,3l-4.1,1.6l1.6,4.2l4.2-1.6c1.9-0.7,3-2,2.7-3.8h0.1
			c1.1,1.4,2.8,1.8,5,1c3.2-1.2,4.1-4.4,2.4-8.9l-3-7.9l-17,6.5L130.7,63.5z M144.4,58.3l1.4,3.7c0.7,2,0.2,3.2-1.3,3.8
			c-1.6,0.6-2.7,0-3.4-1.8l-1.5-3.9L144.4,58.3z"/>
		<polygon class="st0" points="135.7,90.6 139.3,90.5 139,81.9 143.2,81.7 143.4,88.2 146.2,88.1 146,81.7 150.1,81.5 150.3,89.9 
			153.9,89.7 153.5,76.9 135.3,77.5 		"/>
		<path class="st0" d="M134.5,97.1l3.1,2.4l-2.4,6.9l-3.9-0.1l-1.7,5l19.5-0.6l1.9-5.3l-15-12.7L134.5,97.1z M139.9,101.3l6.6,5.1
			v0.1l-8.4-0.1L139.9,101.3z"/>
		<polygon class="st0" points="119.6,122.8 122.3,125.1 127.7,118.8 138.9,128.1 141.8,124.7 127.8,113 		"/>
		<path class="st0" d="M102.5,132.6c-4.5,1.7-6.7,5.3-5.6,9.1l3.8-1.3c-0.4-1.9,0.6-3.5,2.8-4.4c2.7-1,5.5,0.2,6.8,3.6
			c1.3,3.4,0.1,6.2-2.7,7.3c-1.9,0.7-3.7,0.4-4.7-1.1l-3.9,1.3c1.7,3.5,5.7,4.7,10.1,3c5.2-2,7.7-6.7,5.6-12.2
			C112.7,132.5,107.7,130.6,102.5,132.6z"/>
		<polygon class="st0" points="78.8,136.1 78.9,139.7 87.5,139.6 87.5,143.8 81,143.8 81.1,146.6 87.5,146.5 87.6,150.6 79.2,150.7 
			79.3,154.3 92.1,154.2 92,136 		"/>
		<path class="st0" d="M69.4,140.8l-4.2-1.5c-1.6-0.6-2-1.4-1.4-3l1.5-4.2l-4.3-1.5l-1.5,4.3c-0.7,1.9-0.4,3.6,1.2,4.5v0.1
			c-1.8-0.1-3.2,1-4,3.1c-1.1,3.2,0.7,6,5.2,7.6l8,2.8l6-17.2l-4.3-1.5L69.4,140.8z M66.8,148.2l-3.7-1.3c-2-0.7-2.6-1.9-2.1-3.5
			c0.6-1.6,1.8-2.1,3.6-1.4l3.9,1.4L66.8,148.2z"/>
		<polygon class="st0" points="47.9,120.4 45.6,123.1 52.2,128.6 49.5,131.8 44.5,127.7 42.7,129.8 47.7,134 45.1,137.1 38.7,131.7 
			36.4,134.5 46.3,142.7 57.9,128.8 		"/>
		<path class="st0" d="M43.7,115.3l-3.8,0.7l-3.6-6.3l2.6-2.9l-2.6-4.6l-12.4,15l2.8,4.9l19.3-2.8L43.7,115.3z M28.7,118.2
			L28.7,118.2l5.6-6.3l2.6,4.7L28.7,118.2z"/>
		<polygon class="st0" points="34,87.2 30.5,87.7 31.8,95.9 17.4,98.3 18.1,102.7 36.1,99.8 		"/>
		<path class="st0" d="M25.5,75.3c5.6,1.8,10.1-0.9,11.8-6.3c1.5-4.5,0.1-8.5-3.5-10l-1,4c1.4,0.9,1.9,2.6,1.3,4.7
			c-0.9,2.8-3.6,4.2-7.1,3.1c-3.4-1.1-4.9-3.8-4-6.7c0.7-2.1,2.3-3.3,4.3-3l1.1-3.9c-3.8-1-7.4,1.3-8.9,5.9
			C17.8,68.6,19.9,73.5,25.5,75.3z"/>
		<path class="st0" d="M33.4,53.6c4.5,3.9,9.9,3,13.6-1.1c3.6-4.1,3.8-9.7-0.7-13.6c-4.4-3.9-9.8-2.9-13.4,1.2
			C29.2,44.3,29,49.8,33.4,53.6z M35.5,42.5c1.9-2.2,4.9-2.4,7.7,0s3,5.5,1.1,7.7s-5,2.4-7.7-0.1C33.8,47.7,33.6,44.7,35.5,42.5z"/>
		<path class="st0" d="M73.6,26.8l-0.5-2.1c-7.5,1.6-14.5,4.6-20.9,8.8l1.2,1.8C59.6,31.2,66.3,28.3,73.6,26.8z"/>
	</g>
</g>
</svg>
