<svg id="Layer_1" data-name="Layer 1" xmlns="http://www.w3.org/2000/svg" xmlns:xlink="http://www.w3.org/1999/xlink" viewBox="0 0 250 250"><defs><style>.cls-1{fill:none;}.cls-2{fill:#010101;}.cls-3{clip-path:url(#clip-path);}</style><clipPath id="clip-path"><circle class="cls-1" cx="123.91" cy="127.41" r="118.31"/></clipPath></defs><path class="cls-2" d="M4,145.37l.82,9.72c.33,4,.75,8.17,3.21,11.29a10.44,10.44,0,0,0,9.87,3.74A5.42,5.42,0,0,0,21.55,168c1.34-2.15.12-4.89-.82-7.23-3.12-7.75-3-16.36-2.85-24.71.21-11.09.42-21.73,2.12-32.6,1.75-11.22,4.2-24.15,10.46-33.81a71.7,71.7,0,0,1,6.22-8c7.79-9,16.12-18.09,26.9-23.45a61.59,61.59,0,0,0,8.33-5,78.3,78.3,0,0,1,6.76-4.69c9.83-5.59,22.7-10.39,34-11.63,1.6-.17,3.2-.35,5-.52,1.61-.18,3.39-.18,5.17-.35,1.6-.18,3.38-.18,5.16-.35a52.84,52.84,0,0,1,5.34,0c11.86,0,22.23,3.26,33.29,7,13.22,4.49,23.82,11.29,34.89,19.48l1.79,1.76L205,45.63c.54.7,1.07,1.23,1.61,1.93a13.21,13.21,0,0,0,1.42,1.93,19,19,0,0,1,1.43,1.93,47.39,47.39,0,0,1,2.49,4,46.08,46.08,0,0,1,2.31,4c2.7,5,3.87,11,6.14,16.24,6,14,12.05,29.55,12.21,45,.23,22.05-8.64,43.67-15.17,64.33-1.38,4.37-2.75,9-5.31,12.85-2.09,3.15-5.46,5.53-8.16,8.19l-1.78,1.76a9.32,9.32,0,0,0-1.95,1.75c-.72.53-1.25,1.23-2,1.76s-1.43,1.23-2.14,1.75c-1.25,1.23-2.67,2.64-3.92,3.86a26.14,26.14,0,0,1-4.09,3.69,16,16,0,0,1-4.63,3c-.89.35-1.6.7-2.67,1.05-.89.18-2,.53-2.85.71a16.45,16.45,0,0,0-2.85.7,18.54,18.54,0,0,0-3,.7c-2,.7-3.74,1.4-5.52,1.93a52.72,52.72,0,0,1-5.7,1.75c-2,.53-3.74,1.06-5.7,1.41a123.18,123.18,0,0,1-21.18,2.46c-1.78,0-3.56.17-5.34,0s-3.56-.18-5.16-.36c-1.78-.17-3.56-.17-5.17-.35-1.78-.17-3.38-.35-5-.52a161.64,161.64,0,0,1-20.3-5.44,61.39,61.39,0,0,1-8.72-4.92,39.05,39.05,0,0,0-4.63-2.45c-1.6-.53-3-1.23-4.45-1.76-2.85-1.23-5.52-2.28-8-3.51-1.25-.52-2.49-1.22-3.56-1.75a16.43,16.43,0,0,1-1.78-.88,11.92,11.92,0,0,1-1.78-.7l-1.6-.53a17.48,17.48,0,0,0-1.78-.87l-3.21-1.58c-1.78-1.23-3.38-2.28-4.27-3.86A25.26,25.26,0,0,1,46.82,200c-.71-1.58-1.25-3.16-2-4.56a13.54,13.54,0,0,0-2.32-3.51c-.71-.88-1.42-1.75-1.95-2.28-1.25-1.23-2.5-2.46-3.56-3.68a24.4,24.4,0,0,1-2.85-3.51c-.36-.53-.71-1.23-1.07-1.76-.36-.7-.71-1.23-1.07-1.93-.71-1.23-1.42-2.63-2.14-3.86-2.67-5.09-5.51-9.47-7.65-13.16-4.45-7.37-8.55-11-11.22-10.18s-3.2,5.62-2.13,13.87c.35,4.21,1.78,9,3.74,14.91.53,1.41,1.06,3,1.6,4.56.35.71.53,1.58.89,2.46S16,189.1,16.38,190a28.79,28.79,0,0,0,3.38,4.91c1.24,1.58,2.49,3,3.74,4.39a26.9,26.9,0,0,1,4.27,6c.89,1.4,1.6,3.16,2.49,4.91a26.36,26.36,0,0,1,1.6,3.16c.72,1.05,1.43,2.1,2.14,3.33A17.86,17.86,0,0,0,37,220c1.24,1,2.49,1.93,3.73,2.8,1.43.71,2.67,1.41,4.1,2.11,1.25.7,3,1.4,4.45,2.11,3,1.05,5.34,2.28,8.54,3.68,3,1.23,6.06,2.46,9.26,3.69L71.92,236c1.42.53,2.85,1.23,4.45,1.93a83.62,83.62,0,0,0,9.79,4.74A205.57,205.57,0,0,0,109,247.53c2.13.18,4.09.36,6,.36h5.88a89.58,89.58,0,0,0,11.92-.36,117.67,117.67,0,0,0,23.5-4.21,101.69,101.69,0,0,0,12.46-4l3-1.23a12.32,12.32,0,0,0,1.43-.53c.53-.17.89-.35,1.42-.52,1.78-.71,3.92-.88,6.05-1.58a43.7,43.7,0,0,0,6.41-1.76c15.74-6.46,29.87-21.7,38.81-35.79,2.58-3.93,3.56-8.16,5.08-12.49,4.68-13.4,9.15-25.55,10.18-39.78.45-6.17,1.94-12.33,2.4-18.55,1-13.18.43-27.57-4.29-40-4.44-11.7-7.17-24.35-14.12-34.94-.89-1.4-2-3-3-4.38a40.66,40.66,0,0,0-3.39-4.39c-1.24-1.58-2.49-3-3.74-4.39a30.46,30.46,0,0,0-4.27-4,46.24,46.24,0,0,0-4.63-3.69c-1.6-1.23-3.2-2.28-4.63-3.51-8.2-8.08-21.46-13.34-32.17-17.17a150.88,150.88,0,0,0-37.26-8.09,89.58,89.58,0,0,0-11.92-.36h-5.88c-2,0-3.91.18-6,.36A205.57,205.57,0,0,0,85.41,7.38a83.62,83.62,0,0,0-9.79,4.74c-1.6.7-3,1.4-4.45,1.93l-4.81,1.58c-4,1.53-8,2.91-11.56,5.32s-7.21,5.15-10.62,8c-8,6.58-14.59,14.11-21.43,21.81-1.25,1.4-2.5,2.81-3.74,4.39A29.79,29.79,0,0,0,15.63,60c-.36.88-.89,1.75-1.25,2.63s-.53,1.75-.89,2.46c-.53,1.58-1.07,3.16-1.6,4.56-.93,2.84-1.73,5.38-2.36,7.74-.15.4-.29.9-.5,1.68A136.55,136.55,0,0,0,5.86,93.8c-1.53,9.59-4.6,19.27-3.78,29,1.17,13.9,1.69,27.1,4.42,40.76a49.49,49.49,0,0,0,3,10.82,48.3,48.3,0,0,0,4.87,7.94c1.67,2.35,3.86,5,6.74,4.8"/><g class="cls-3"><path class="cls-2" d="M198.82,226.33c-2.54.13-3.93-2.62-5.32-7.11-.38-1.13-.63-2.38-1.14-3.75-.25-.62-.38-1.25-.63-2s-.64-1.37-1-2.12a18.3,18.3,0,0,0-1.14-2.25,14.56,14.56,0,0,1-1-2.49,18.45,18.45,0,0,1-.89-2.75c-.25-.87-.5-1.87-.76-2.87a25.74,25.74,0,0,0-2-5.74c-.51-1-1-1.88-1.65-2.88s-1.14-1.87-1.77-2.87a12.51,12.51,0,0,0-1-1.37,9.24,9.24,0,0,1-1-1.37c-.38-.5-.76-.88-1.14-1.38L177,184.13l-1.26-1.24a6.7,6.7,0,0,1-1.4-1.25c-.5-.38-.88-.88-1.39-1.25s-1-.88-1.52-1.25l-2.79-2.75a19.31,19.31,0,0,0-2.91-2.62,11.52,11.52,0,0,0-3.29-2.12c-.64-.25-1.14-.5-1.9-.75s-1.4-.37-2-.5a11.79,11.79,0,0,1-2-.5,12.85,12.85,0,0,1-2.15-.5c-1.39-.5-2.66-1-3.93-1.37a39.16,39.16,0,0,0-4.05-1.25c-1.39-.37-2.66-.75-4-1A87.54,87.54,0,0,0,127.25,164c-1.26,0-2.53-.12-3.8,0s-2.53.13-3.67.25-2.53.13-3.67.25l-3.55.38a113.43,113.43,0,0,0-14.44,3.87,44.42,44.42,0,0,0-6.21,3.49A26.36,26.36,0,0,1,88.62,174c-1.14.38-2.15.88-3.17,1.25-2,.87-3.92,1.62-5.69,2.5-.89.37-1.78.87-2.54,1.25a12.38,12.38,0,0,0-1.26.62,8.41,8.41,0,0,0-1.27.5l-1.14.37a11.56,11.56,0,0,1-1.27.63L70,182.26A9.4,9.4,0,0,0,67,185a18.46,18.46,0,0,0-1.77,3.49c-.51,1.13-.89,2.25-1.39,3.25a9.86,9.86,0,0,1-1.65,2.5c-.51.62-1,1.24-1.39,1.62-.89.87-1.78,1.75-2.54,2.62a16.53,16.53,0,0,0-2,2.5c-.26.37-.51.87-.76,1.25s-.51.87-.76,1.37c-.51.87-1,1.87-1.52,2.75-1.9,3.62-3.93,6.74-5.45,9.36-3.17,5.24-6.08,7.86-8,7.24s-2.28-4-1.52-9.86c.25-3,1.27-6.37,2.66-10.61.38-1,.76-2.13,1.14-3.25.25-.5.38-1.12.63-1.75s.64-1.25.89-1.87a21.38,21.38,0,0,1,2.41-3.5C46.82,191,47.71,190,48.6,189a19.12,19.12,0,0,0,3-4.24c.63-1,1.14-2.25,1.77-3.5A18.51,18.51,0,0,0,54.55,179c.51-.75,1-1.5,1.52-2.38a12.89,12.89,0,0,1,2.15-2.37c.89-.75,1.78-1.37,2.66-2s1.9-1,2.92-1.49,2.15-1,3.16-1.5c2.16-.75,3.8-1.62,6.08-2.62s4.31-1.75,6.59-2.63l3.42-1.12c1-.37,2-.87,3.16-1.37a59.67,59.67,0,0,1,7-3.37,147.49,147.49,0,0,1,16.21-3.5c1.52-.12,2.92-.25,4.31-.25h4.18a65.09,65.09,0,0,1,8.49.25,83.39,83.39,0,0,1,16.72,3,73.82,73.82,0,0,1,8.86,2.87l2.16.87a8.43,8.43,0,0,1,1,.38c.38.12.63.25,1,.37,1.27.5,2.79.63,4.31,1.13a30.9,30.9,0,0,1,4.56,1.24,17.4,17.4,0,0,1,4.18,2.38,25,25,0,0,1,3.42,2.87c1.14,1,2.15,1.87,3.17,2.87s2.15,1.62,3.29,2.5a32.31,32.31,0,0,1,3.29,2.62,21.38,21.38,0,0,1,3,2.87c.89,1,1.78,2,2.66,3.12a29.43,29.43,0,0,1,2.41,3.12c.76,1,1.52,2.12,2.15,3.12a26.07,26.07,0,0,1,3,6.74c.38,1.13.64,2.13,1,3.12a19.14,19.14,0,0,0,1,2.88l1.14,2.62L200,208c.38.87.63,1.75,1,2.62a18.11,18.11,0,0,1,.63,2.62,28.4,28.4,0,0,1,.39,4.37C202.62,223.33,201.23,226.33,198.82,226.33Z"/><path class="cls-2" d="M194.61,208.12c-1.51-8.26-3.32-17.11-9.46-22.83-5.21-4.86-12.68-6.59-18.12-11.17-2.07-1.74-3.83-3.88-6.15-5.27-2.63-1.56-5.74-2-8.76-2.47q-8.52-1.23-17-2.4c-4.53-.63-9.06-1.22-13.57-1.89-3.81-.56-6.11-2.56-9.79-2.69-8.34-.29-16.72,4.52-24.56,6.72-4.51,1.27-9.18,2-13.59,3.58-7.42,2.63-10.84,7.28-14.47,13.91L48.78,202.46c-4.11,7.5-6.23,9.68-.15,16.69a45.82,45.82,0,0,0,15.95,11.48c8.81,4,18.45,5.65,28,6.89a324.26,324.26,0,0,0,44.81,2.7c11.11-.09,22.35-.78,33-4.12,8.28-2.62,28.32-11.54,25.33-22A59.49,59.49,0,0,1,194.61,208.12Z"/><path class="cls-2" d="M187.2,93c-.25-1.25-.63-2.5-.89-3.75s-.63-2.37-1-3.62-.89-2.49-1.27-3.62l-.63-1.75c-.25-.62-.51-1.12-.76-1.74a45.28,45.28,0,0,0-3.42-6.49A66.84,66.84,0,0,0,175,66.32c-1.39-1.87-3-3.37-4.43-5.12a57.34,57.34,0,0,0-4.82-4.62,41.63,41.63,0,0,0-5.44-4.12,22.15,22.15,0,0,0-2.92-1.62,30.24,30.24,0,0,0-3-1.37,44.45,44.45,0,0,0-11.52-2.87c-.91-.1-1.69-.14-2.53-.21l-.13,0a52.59,52.59,0,0,0-9.5-1.75l-5.2-.38a22.5,22.5,0,0,0-2.91-.12c-.88,0-1.77.12-2.66.12a90.91,90.91,0,0,0-12,1.13,45.89,45.89,0,0,0-9.5,3,49.92,49.92,0,0,0-6.08,3.38c-1,.62-2.15,1.37-3.17,2.12s-2.28,1.75-3.42,2.62c-1.9,1.75-3.92,3.62-6.08,5.87a50.92,50.92,0,0,0-6.46,8.24,30.53,30.53,0,0,0-2.66,5.37c-.63,1.87-1.26,3.74-1.77,5.61a85.34,85.34,0,0,0-2.15,11.61c-.26,2.13-.38,4.12-.51,6.25a63.81,63.81,0,0,0,.38,7,63.25,63.25,0,0,0,3.42,13.23,57.8,57.8,0,0,0,6.08,13,46.19,46.19,0,0,0,4.31,5.87A51.68,51.68,0,0,0,85.36,144a58.33,58.33,0,0,0,12.42,9.37,69.45,69.45,0,0,0,14.82,5.87,59.88,59.88,0,0,0,32.17-.13,58.61,58.61,0,0,0,16.34-7.49c1.26-.87,2.53-1.62,3.67-2.5s2.41-1.87,3.55-3,2.15-2.25,3-3.37a33.39,33.39,0,0,0,2.66-3.5c.76-1.12,1.52-2.37,2.28-3.5a31.43,31.43,0,0,1,2-3.49c.64-1.12,1.27-2.25,2-3.37s1.39-2.5,2-3.62A51.56,51.56,0,0,0,188,109.39,50.18,50.18,0,0,0,187.2,93Z"/></g></svg>