<svg width="72" height="74" viewBox="0 0 72 74" fill="none" xmlns="http://www.w3.org/2000/svg">
<path d="M69.2433 26.141C68.8692 24.7565 68.4003 23.3832 67.9425 22.0489C66.826 18.7774 65.6089 15.6287 63.052 12.9937C61.4763 11.3175 59.7307 9.8095 57.8433 8.49402C56.8232 7.73309 55.7547 7.03936 54.6445 6.41725L53.8238 5.96505L53.7512 5.9148C53.6648 5.85313 53.5733 5.79896 53.4776 5.7529H53.433L53.2711 5.658L53.0031 5.50169C52.7171 5.32762 52.4463 5.12966 52.1936 4.90992C51.9862 4.73287 51.7681 4.5688 51.5405 4.41864C51.3562 4.28465 51.2278 4.18415 51.0994 4.07808C50.7478 3.78927 50.3746 3.52797 49.9829 3.2965C49.4579 3.00144 48.8941 2.78157 48.308 2.64333C47.7385 2.47909 47.1557 2.36513 46.5662 2.30278L46.2815 2.25253C45.7567 2.16321 45.3045 2.08506 44.8188 2.03482C44.3331 1.98457 44.0652 1.86733 43.7023 1.77243L43.0714 1.61052L42.6081 1.49329C42.2328 1.38482 41.8504 1.30273 41.4636 1.24765H41.4078C40.8768 1.12108 40.3344 1.04813 39.7888 1.02991H39.5543C39.1021 1.02991 38.6332 0.990841 38.1419 1.00201H37.5836C37.2431 1.00201 36.897 1.002 36.5341 1.05225C35.8809 1.05225 35.2835 1.14157 34.9877 1.17507C34.0272 1.28496 33.0873 1.53122 32.1963 1.90641L31.638 2.11855C31.398 2.21904 31.1467 2.31952 30.8844 2.40885C30.4848 2.58527 30.0723 2.73084 29.6506 2.8443L27.3784 3.47515C27.1942 3.5254 27.0211 3.58681 26.8536 3.64822C26.6861 3.70963 26.4907 3.77103 26.2953 3.82128H26.2451C25.9594 3.93717 25.6816 4.07143 25.4133 4.22324C25.1062 4.40188 24.855 4.56937 24.6038 4.73127L24.5144 4.78151C23.2467 5.35517 22.0481 6.0706 20.9415 6.91412L20.4837 7.23791C19.7133 7.79618 18.8871 8.2484 18.0776 8.71734C17.3574 9.13605 16.5423 9.61057 15.7998 10.1242C12.3441 12.5248 9.78721 15.0537 7.98399 17.8563C7.73977 18.2368 7.53406 18.6408 7.3699 19.0621L7.24148 19.2743C7.07958 19.4697 6.90651 19.6874 6.6832 19.9889C6.61063 20.134 6.51014 20.3015 6.40966 20.4634C6.30917 20.6253 6.22544 20.776 6.1417 20.9379L5.05306 23.037C4.84583 23.4376 4.60882 23.822 4.34404 24.1871C4.2268 24.3936 4.08166 24.6114 3.93092 24.8291C3.78019 25.0468 3.72996 25.1306 3.62947 25.2925C3.076 26.0871 2.63628 26.9553 2.32309 27.8717C2.22819 28.162 2.0384 28.737 1.89325 29.3288C1.73941 29.8322 1.61818 30.345 1.53035 30.864C1.39079 31.4781 1.30146 32.0364 1.21772 32.5388C1.12765 33.068 1.08652 33.6044 1.09489 34.1411H1.23445L1.09489 34.1913C1.06412 34.5908 1.06412 34.9921 1.09489 35.3916V35.8885C1.09489 36.095 1.09489 36.3016 1.09489 36.5026C1.09489 36.871 1.13399 37.2451 1.12283 37.6191C1.07258 38.1439 1.05582 38.6184 1.03907 39.1209V39.4168C0.986976 39.9943 0.986976 40.5754 1.03907 41.153C1.04866 41.7749 1.15024 42.392 1.34053 42.9841C1.479 43.41 1.6546 43.8228 1.8653 44.2179L1.93788 44.3631C1.98813 44.4691 2.04397 44.5752 2.08863 44.6757C2.19534 44.949 2.31836 45.2156 2.45707 45.474C2.62809 45.7887 2.77192 46.1174 2.88695 46.4566C2.9117 46.5082 2.93042 46.5626 2.94277 46.6185C2.97068 46.7078 2.99301 46.7692 3.01535 46.8251C3.04969 46.9543 3.09261 47.0811 3.14377 47.2047L3.4564 48.2152C3.82975 49.4076 4.27914 50.575 4.80183 51.7099C5.70479 53.8435 6.82738 55.8773 8.15146 57.7784C8.78018 58.73 9.47215 59.6383 10.2227 60.4972L11.3392 61.8649C11.6574 62.2613 12.0315 62.6521 12.3944 63.0317L12.5116 63.149L12.9638 63.5453C14.5269 64.9354 16.0008 66.2474 18.2674 66.7275L18.446 66.7666C18.7065 66.8019 18.9605 66.8752 19.1997 66.9843C19.4207 67.1068 19.6251 67.2569 19.8082 67.4309C19.9254 67.5314 20.0483 67.6375 20.1767 67.7324C20.665 68.0524 21.2025 68.29 21.7677 68.4358C22.1828 68.5561 22.5863 68.7131 22.9736 68.9048C23.2969 69.0923 23.605 69.3051 23.8948 69.5412C24.0232 69.6417 24.146 69.7422 24.2744 69.8315C25.8208 70.948 27.6631 71.3947 29.4217 71.7296C32.5267 72.3327 35.6823 72.6374 38.8453 72.6396C39.3087 72.6396 39.7721 72.6396 40.2354 72.6396C41.5615 72.6025 42.8829 72.4643 44.188 72.2265C44.4392 72.1818 44.6793 72.1483 44.9193 72.1148C45.814 72.09 46.6763 71.7745 47.3757 71.216L47.5153 71.0876C47.6792 70.9074 47.8814 70.7662 48.1071 70.6745C48.2002 70.6487 48.2955 70.6319 48.3918 70.6242C48.501 70.6114 48.6092 70.5909 48.7156 70.5628C48.9729 70.4656 49.2069 70.3154 49.4023 70.1218C49.4783 70.0502 49.5585 69.9831 49.6423 69.9208C49.9854 69.6814 50.3615 69.4934 50.7589 69.3625C51.2447 69.2215 51.6981 68.9863 52.0931 68.6703L52.2774 68.4916C52.3881 68.3658 52.5181 68.2584 52.6626 68.1734C52.7775 68.1178 52.8997 68.0783 53.0255 68.0562H53.1148C54.7464 67.5431 56.2266 66.6362 57.4246 65.4156C58.6482 64.2763 59.6513 62.9213 60.3835 61.4183C60.4766 61.2273 60.5496 61.0271 60.6012 60.821L60.6794 60.5307L61.0199 60.3018C61.3417 60.1701 61.6368 59.9809 61.8908 59.7435C64.0032 57.9094 65.7972 55.7381 67.2 53.3178L67.3508 53.0498C68.0175 51.9799 68.5464 50.8301 68.9251 49.6276C69.0289 49.1894 69.0943 48.7429 69.1205 48.2933C69.1205 48.0198 69.1484 47.735 69.1651 47.4782C69.1708 46.7576 69.2493 46.0393 69.3996 45.3345C69.4499 45.1335 69.5001 44.9325 69.5559 44.7315C69.7308 44.1502 69.8523 43.5541 69.9188 42.9506C69.9188 42.6157 69.9188 42.2751 69.9188 41.9458C69.8993 41.6092 69.8993 41.2718 69.9188 40.9353C69.9894 40.3421 70.1165 39.7569 70.2984 39.1879C70.3822 38.8976 70.4659 38.6296 70.5385 38.3114C71.4596 34.4091 70.1253 29.4349 69.2433 26.141ZM59.5963 59.4699C59.6013 59.5978 59.6388 59.7223 59.7052 59.8317C59.7716 59.9411 59.8648 60.0318 59.976 60.0952C59.6689 60.2794 59.3563 60.4525 59.0492 60.62C58.3843 60.9677 57.7478 61.3672 57.1455 61.8147C55.4677 63.1964 53.6955 64.4593 51.8419 65.5942C50.3543 66.4575 48.8184 67.2348 47.2418 67.9222C44.4504 69.1281 41.3185 69.6863 37.3436 69.6863C36.7016 69.6863 36.0484 69.6863 35.4064 69.6473C31.5829 69.584 27.8479 68.4863 24.5982 66.4707C24.4586 66.3814 24.3023 66.3032 24.1236 66.2083C23.945 66.1134 23.6324 65.9459 23.3644 65.7728C22.9465 65.5603 22.5158 65.3739 22.0748 65.2146L21.5779 65.0415C20.7725 64.7953 19.9914 64.4757 19.2443 64.0869C18.2618 63.4504 16.8159 62.4902 15.5095 61.5021L14.834 60.994L15.4872 60.4358C15.5915 60.3528 15.6869 60.2592 15.7719 60.1566C16.2799 59.5258 16.8884 58.7051 17.5416 57.8844L17.8319 57.516C18.3511 56.8405 18.8591 56.1817 19.2834 55.6569C19.5529 55.3068 19.7205 54.889 19.7678 54.4497C19.8151 54.0104 19.7402 53.5665 19.5514 53.167C19.5114 53.072 19.446 52.9899 19.3622 52.9298C19.2785 52.8696 19.1797 52.8339 19.0769 52.8265C18.9539 52.8912 18.8441 52.9783 18.7531 53.0833C17.8317 54.0615 16.9863 55.1085 16.2241 56.2152C15.9172 56.6192 15.5609 56.983 15.1634 57.2983L15.0629 57.3764C14.5547 57.7493 14.1178 58.2108 13.7733 58.7386L13.349 59.643L12.4725 58.6772C12.3218 58.5097 12.1655 58.3366 11.9924 58.1692C11.8193 58.0017 11.6463 57.8063 11.4732 57.6109L11.3727 57.5048C11.2387 57.3541 11.0992 57.2034 10.9596 57.0582C10.6974 56.7854 10.4548 56.4944 10.2338 56.1873C10.1333 56.0533 10.0328 55.9193 9.92677 55.7965C5.8123 50.1803 3.66854 44.2961 3.5513 38.2946C3.47314 34.2751 3.61271 29.6917 6.23659 26.1801C6.48781 25.8452 6.73905 25.5102 6.94561 25.2087C7.1713 24.9186 7.37292 24.6105 7.54852 24.2876L7.58202 24.2317C7.76901 23.9542 7.93156 23.6609 8.06774 23.3552C8.1441 23.12 8.24123 22.8921 8.35802 22.6742V22.6407C8.40268 22.5458 8.44178 22.4676 8.48086 22.3783C8.64276 22.021 8.78231 21.7084 8.9163 21.4627C9.01678 21.3008 9.10052 21.1836 9.18984 21.0552C9.26583 20.9539 9.33484 20.8476 9.3964 20.737C9.55026 20.4751 9.71799 20.2217 9.89886 19.9777L10.0663 19.7321C10.1612 19.5981 10.2506 19.4753 10.3232 19.358C10.5847 18.9742 10.8233 18.5753 11.0377 18.1633C12.2542 16.0966 13.7963 14.2397 15.6044 12.6643C17.191 11.4415 18.9012 10.3881 20.707 9.52124C22.004 8.88022 23.2606 8.16058 24.4698 7.36632L24.8662 7.19325L25.0336 7.13183C25.2402 7.05368 25.4244 6.97552 25.6366 6.88619C25.9492 6.74662 26.2451 6.62381 26.5745 6.51216C26.706 6.47018 26.8346 6.41984 26.9597 6.36143L27.3561 6.19953C27.691 6.09904 28.0483 6.02087 28.3889 5.9483L28.6066 5.89247L28.7127 5.86456C28.9657 5.7967 29.2231 5.74635 29.4831 5.71383C29.7831 5.65012 30.0766 5.55852 30.3596 5.44027H30.4154C30.7725 5.33413 31.1198 5.1978 31.4538 5.03274C31.7999 4.88759 32.146 4.72569 32.5033 4.56379L32.7378 4.45772C33.4957 4.09055 34.2938 3.81325 35.116 3.63147C35.5236 3.54214 35.9423 3.47515 36.5229 3.40257C36.8308 3.34077 37.1421 3.2979 37.4552 3.27418H37.5501L37.8795 3.24067H38.1251H38.1977C38.3705 3.22596 38.5442 3.22596 38.7169 3.24067H39.0016C39.0888 3.25058 39.1768 3.25058 39.264 3.24067H39.3366C39.4798 3.23259 39.6233 3.23259 39.7665 3.24067C39.9172 3.24067 40.0121 3.24067 40.1238 3.24067L41.8935 3.46956C42.0214 3.51187 42.1551 3.53446 42.2899 3.53655H42.3401H42.5187C42.6162 3.55856 42.7151 3.57349 42.8147 3.58123C42.9748 3.59312 43.1336 3.61927 43.2892 3.65937L43.5627 3.71521H43.6409C43.7749 3.71521 43.9144 3.75986 44.0596 3.79894L45.606 3.96644C46.1719 4.00216 46.7329 4.09379 47.2808 4.23998C47.8666 4.33047 48.4328 4.51922 48.9557 4.79826L49.1845 4.92108C49.3353 5.00482 49.5139 5.09974 49.7149 5.22814H49.7596C49.8768 5.32304 49.9885 5.40678 50.1001 5.48494C50.2118 5.5631 50.3681 5.68033 50.4797 5.77523L50.5802 5.85897C50.7287 5.99037 50.8874 6.10985 51.0548 6.21628L51.1329 6.27211C51.3489 6.47582 51.5803 6.66247 51.8251 6.83038L52.2271 7.07043C52.6068 7.29932 52.964 7.51146 53.3102 7.74594C53.7867 8.02699 54.247 8.33451 54.6891 8.66709L55.0241 8.91273C55.3814 9.16953 55.7945 9.47101 56.1964 9.81155C56.9243 10.3964 57.6212 11.0188 58.2844 11.6762L58.7533 12.1395L58.3011 12.6197C58.0108 12.9156 57.7429 13.2449 57.4526 13.5743C57.0663 14.0521 56.6426 14.4983 56.1853 14.9086C55.0129 15.8465 52.964 17.9009 52.5342 18.85C52.1547 19.6267 51.8967 20.457 51.7693 21.312C51.7158 21.5911 51.7509 21.88 51.8698 22.1382C51.8932 22.185 51.9277 22.2252 51.9703 22.2555L52.0317 22.2834C52.4225 22.3336 53.2767 21.6302 54.5328 20.201C54.6891 20.0168 54.8008 19.8884 54.8845 19.8046C56.2802 18.3531 58.4407 15.8521 59.7247 14.2777L60.2439 13.6413L60.7631 14.2777C60.8468 14.3838 60.9362 14.4843 61.0255 14.5904L61.0869 14.6574C61.3416 14.9386 61.5766 15.2371 61.7903 15.5506C61.9243 15.7516 62.0695 15.947 62.209 16.1424C62.3486 16.3378 62.5273 16.5778 62.6724 16.8011C62.8176 17.0244 62.9348 17.1808 63.0855 17.3873C63.2363 17.5939 63.4205 17.8395 63.5545 18.0517L64.2858 19.1682L64.3528 19.2687C65.3374 21.1281 66.1972 23.0509 66.9265 25.0245C67.1633 25.8603 67.3221 26.7163 67.401 27.5814L67.468 28.1006C68.0262 32.3881 67.8979 36.5528 67.6857 41.1697C67.6477 42.8407 67.476 44.506 67.1721 46.1495C66.6442 48.5008 65.7653 50.7592 64.5649 52.8488C63.5899 54.5116 62.4081 56.0442 61.0478 57.4099C60.7184 57.7672 60.3891 58.1245 60.0597 58.4985C59.7967 58.7584 59.6328 59.102 59.5963 59.4699Z" fill="#1D1D1B" stroke="#1D1D1B" stroke-width="1.2" stroke-miterlimit="10"/>
<path d="M53.7413 34.7833L53.5682 34.4205L53.5124 34.2976C52.2842 31.657 51.0895 28.9215 49.9562 26.1636C49.6491 25.4155 49.3421 24.6618 49.0406 23.9305L48.6163 22.881L46.7405 18.2138C46.2492 16.9856 45.691 15.5899 44.6638 14.7022C44.6029 14.6394 44.531 14.5883 44.4516 14.5515H44.4014H44.3455L44.0217 14.7637L43.765 14.9311C43.0021 15.3383 42.1605 15.5763 41.2974 15.629L40.7391 15.7071C38.7963 16.0086 36.9708 16.8907 35.2066 17.7392L24.6999 22.8084C24.2244 22.9984 23.7931 23.2844 23.4329 23.6484C23.0727 24.0124 22.7914 24.4467 22.6064 24.9242C22.3457 25.5626 22.133 26.2194 21.9699 26.8894C21.836 27.3806 21.6852 27.9445 21.4843 28.486C21.29 28.99 21.0663 29.4821 20.8143 29.9599C20.5483 30.4646 20.3171 30.9868 20.1221 31.523L18.1179 37.3905L18.0844 37.5579L17.8946 38.3954V38.44V38.5293V38.6019C17.8503 38.7486 17.8278 38.9009 17.8276 39.0541C17.7445 39.7712 17.8306 40.4977 18.0788 41.1756C18.1704 41.3458 18.273 41.5099 18.3858 41.6668C18.4473 41.7506 18.5087 41.8455 18.5701 41.9404C19.2366 43.0745 19.7723 44.2807 20.1667 45.5357C20.4068 46.1944 20.6524 46.8811 20.9148 47.4785L21.2386 48.2154C21.9588 49.8567 22.7739 51.7102 23.7118 53.4017C23.7332 53.4454 23.7594 53.4866 23.7899 53.5246L23.8625 53.6195L24.097 53.5022L24.4543 54.1889L23.8457 54.5071L24.6831 54.563C24.9567 55.3278 26.7376 57.9126 27.2568 58.2755H27.2959C27.4787 58.3197 27.6661 58.3422 27.8542 58.3425C29.4397 58.3425 32.0189 57.1198 33.6435 56.3494C34.0622 56.1484 34.4418 55.9642 34.76 55.8246C35.2736 55.6013 35.776 55.3724 36.2785 55.1435C38.0404 54.2831 39.868 53.5644 41.744 52.9942C43.1117 52.6034 44.58 52.101 46.2381 51.4534C46.5563 51.325 46.8745 51.2301 47.1481 51.1407C48.1306 50.8337 48.5717 50.6718 48.8843 50.0242C48.9705 49.8556 49.0714 49.695 49.1858 49.5441C49.236 49.4715 49.2863 49.3989 49.3309 49.3208C50.3637 46.9586 51.2493 44.5348 51.9827 42.0632C52.541 40.3884 53.0993 38.6577 53.7078 37.0053C53.9351 36.5464 54.0426 36.0374 54.0204 35.5258C53.9597 35.2674 53.8659 35.0178 53.7413 34.7833ZM42.5758 18.2417C42.4212 18.6408 42.3144 19.0568 42.2576 19.4811C42.211 19.7651 42.1495 20.0465 42.0734 20.3241C41.7677 21.2133 41.3352 22.0538 40.7893 22.8195C40.6609 23.0149 40.5325 23.2103 40.4097 23.4113C39.6079 24.7323 38.9988 26.161 38.6009 27.6542L38.5004 28.0171L38.1431 28.1176C37.3308 28.3433 36.5344 28.6231 35.7593 28.955C35.5137 29.061 35.2792 29.1783 35.0391 29.2955H35.0056C34.3471 29.6437 33.6551 29.9242 32.94 30.1329C32.5717 30.2197 32.199 30.2868 31.8235 30.3339H31.723C31.4829 30.3674 31.2317 30.4009 30.9861 30.4567C29.9875 30.7249 29.0298 31.1268 28.1389 31.6514L19.6922 36.1176L20.5464 34.3088C20.6636 34.052 20.7752 33.7896 20.8869 33.5216C21.0488 33.1364 21.2274 32.701 21.4452 32.2934C21.5512 32.098 21.6629 31.9082 21.7802 31.7352C21.9368 31.4822 22.0802 31.2213 22.21 30.9536C22.4522 30.3166 22.608 29.6501 22.6734 28.9717C22.7125 28.7037 22.7459 28.4414 22.7962 28.1845C22.9573 27.1107 23.4355 26.1096 24.1695 25.3094C25.2414 24.1538 26.7097 23.7128 28.1277 23.2885C28.8822 23.0875 29.6181 22.8223 30.3273 22.4957C30.8035 22.2489 31.264 21.973 31.7062 21.6695C32.0356 21.4518 32.4432 21.1782 32.8563 20.9493C33.9931 20.3602 35.1889 19.8924 36.4236 19.5536C37.5809 19.2355 38.7031 18.8016 39.7733 18.2585L40.0971 18.0742C40.6414 17.7207 41.2389 17.4569 41.8668 17.2926L43.1899 17.0302L42.5758 18.2417ZM22.0481 37.3905C23.1647 36.8322 24.2309 36.3186 25.2805 35.8273C27.3517 34.8503 29.529 33.8678 31.455 33.0024L38.3999 29.8761L38.7237 30.2781C39.9357 31.9239 40.8988 33.7391 41.5821 35.6654C43.0224 39.1714 44.5186 42.8001 45.758 46.4847C45.911 46.9589 46.0976 47.4216 46.3162 47.8692L46.6959 48.6062L45.8975 48.8239C45.155 49.0249 44.5353 49.1979 43.8766 49.4268C42.6316 49.8679 41.3811 50.4373 40.1585 50.9956C39.1369 51.4589 38.0817 51.9391 37.0433 52.341L31.187 54.6411C30.5277 54.9386 29.8207 55.1163 29.0991 55.1659C28.6586 55.1815 28.2263 55.0434 27.8765 54.7751C27.4181 54.297 27.1046 53.6989 26.9721 53.05C26.9013 52.7944 26.8117 52.5444 26.7041 52.3019L24.7725 48.8239C24.4096 48.1651 24.0467 47.4896 23.6559 46.8085V46.7583C22.7236 45.0332 21.7634 43.2579 20.7362 41.6389C20.6524 41.5105 20.5631 41.3877 20.4682 41.2649C20.2704 41.0106 20.0948 40.7397 19.9434 40.4554C19.8194 40.2001 19.7167 39.9349 19.6364 39.6626C19.575 39.484 19.5136 39.2942 19.4354 39.1044L19.0669 38.2893L19.9546 38.172C20.6883 38.0203 21.3944 37.7567 22.0481 37.3905ZM45.864 42.0855C45.73 41.9069 45.5961 41.7338 45.4677 41.5552C44.1557 39.7185 43.5695 37.5524 43.0057 35.4588C42.6948 34.1926 42.2994 32.9485 41.8221 31.7352C41.4146 30.7972 40.9034 29.9077 40.2981 29.0834L40.0692 28.7596L40.2478 28.4023C41.5379 25.8133 42.6478 23.1384 43.5695 20.3966C43.6791 20.0868 43.7668 19.7697 43.8319 19.4476L44.3232 16.7065L45.1271 19.3694C45.7791 21.2504 46.6445 23.0505 47.7064 24.7344C48.8229 26.6493 49.9394 28.6423 50.5368 30.8196C50.6038 31.0764 50.6652 31.3388 50.7266 31.6123C50.8442 32.1838 51.0104 32.7441 51.2235 33.2872C51.2905 33.4379 51.3686 33.5886 51.4468 33.7449L51.4858 33.8231C51.8097 34.3693 52.0134 34.9784 52.0832 35.6096C52.0902 36.1435 52.0033 36.6745 51.8264 37.1783C51.5696 38.0548 51.3854 39.0039 51.2067 39.925C50.8438 41.7897 50.4698 43.7213 49.4928 45.3403L49.1969 45.8148L48.9569 46.2112L48.2702 47.3277L47.7622 46.0995C47.5668 45.6417 47.4049 45.2454 47.3044 44.9272C47.1234 44.2608 46.8687 43.6167 46.5451 43.0067C46.3456 42.684 46.1256 42.3744 45.8864 42.08L45.864 42.0855Z" fill="#1D1D1B" stroke="#1D1D1B" stroke-width="1.2" stroke-miterlimit="10"/>
</svg>
